<?xml version="1.0" encoding="UTF-8" standalone="no"?>
<svg
   version="1.1"
   width="566.92908pt"
   height="170.0787pt"
   id="svg12"
   viewBox="0 0 566.92908 170.0787"
   xmlns="http://www.w3.org/2000/svg"
   xmlns:svg="http://www.w3.org/2000/svg">
  <defs
     id="defs16" />
  <path
     d="M 0,0 V 170.0787 H 566.9291 V 0 Z"
     style="fill:none"
     id="path2" />
  <g
     id="Layer1000">
    <g
       id="Layer1001">
      <path
         d="m 190.5942,47.2416 1.9667,0.1593 1.9667,-0.1593 v 18.3107 c -0.7266,-0.1239 -1.4174,-0.1859 -2.073,-0.1859 -0.5669,0 -1.1872,0.0533 -1.8604,0.1596 z m 8.6105,18.2311 V 47.2416 h 2.6578 c 0.7971,0.8859 2.0551,2.2502 3.7738,4.0927 1.2223,1.311 2.4494,2.622 3.6807,3.9331 1.2314,1.3113 2.5645,2.7907 3.9997,4.4382 v -12.464 l 1.0364,0.1063 1.0896,-0.1063 v 18.3107 l -2.2323,-0.053 c -1.2934,-1.4219 -2.5648,-2.8216 -3.8137,-4.208 -1.249,-1.3862 -2.5381,-2.7947 -3.8667,-4.2344 -1.6478,-1.7762 -3.0476,-3.2556 -4.199,-4.447 v 12.9424 l -1.1959,-0.1859 z m 20.2777,-4.146 h 0.5315 c 0.2126,0.8507 0.5935,1.5239 1.1426,2.02 0.6557,0.5845 1.5061,0.877 2.5515,0.877 0.8679,0 1.5945,-0.2526 2.179,-0.7574 0.5847,-0.5051 0.877,-1.165 0.877,-1.98 0,-0.762 -0.2523,-1.404 -0.7574,-1.9267 -0.5049,-0.5227 -1.4128,-1.0587 -2.7238,-1.6078 -1.5061,-0.6557 -2.5869,-1.3555 -3.2423,-2.0996 -0.7798,-0.8859 -1.1696,-2.0376 -1.1696,-3.4549 0,-1.6124 0.4873,-2.9146 1.4619,-3.9067 1.0984,-1.1339 2.6841,-1.7008 4.7571,-1.7008 0.7441,0 1.5015,0.1151 2.2722,0.3455 0.7708,0.2302 1.3864,0.5315 1.8471,0.9034 -0.1772,0.4961 -0.3101,0.8949 -0.3989,1.196 -0.2126,0.6202 -0.3631,1.0984 -0.4515,1.4352 h -0.3989 c -0.2126,-0.6557 -0.549,-1.1781 -1.0097,-1.5679 -0.5493,-0.4785 -1.2225,-0.7177 -2.0199,-0.7177 -0.9922,0 -1.7317,0.2259 -2.219,0.6777 -0.4873,0.4519 -0.7308,1.1118 -0.7308,1.98 0,0.6024 0.2481,1.1427 0.7441,1.6212 0.3544,0.3543 0.8859,0.6996 1.5945,1.0363 l 1.9667,0.9834 c 1.4706,0.7086 2.507,1.5857 3.1093,2.6311 0.4606,0.7971 0.6911,1.7362 0.6911,2.8168 0,1.7895 -0.7532,3.2159 -2.2589,4.2789 -1.3468,0.9567 -2.9679,1.4352 -4.8634,1.4352 -0.7974,0 -1.5594,-0.1021 -2.2856,-0.3059 -0.7265,-0.2035 -1.3819,-0.4827 -1.9667,-0.8371 0.1948,-0.6199 0.3498,-1.1738 0.4652,-1.6608 0.1151,-0.4873 0.2168,-1.0587 0.3056,-1.7144 z m 16.9287,4.146 V 49.1284 c -0.8858,0 -1.745,0.0354 -2.5778,0.1063 -0.8328,0.0708 -1.6299,0.1684 -2.3919,0.2925 l 0.0797,-1.0366 -0.0797,-1.249 h 13.6866 l -0.1593,1.249 0.1593,1.0366 c -0.6554,-0.0709 -1.3862,-0.155 -2.1923,-0.2526 -0.8062,-0.0975 -1.6699,-0.1462 -2.5912,-0.1462 v 16.3443 l -2.073,-0.1063 z m 15.4673,-7.6318 c -0.6024,-1.0629 -1.2226,-2.1968 -1.8604,-3.4018 -0.3365,-0.62 -0.9743,-1.8247 -1.9134,-3.6142 -0.7974,-1.5236 -1.4352,-2.7195 -1.9134,-3.592 0.8326,0.1062 1.6388,0.1593 2.4183,0.1593 0.8328,0 1.6123,-0.0488 2.3388,-0.1506 1.3111,2.6575 2.6309,5.3062 3.9598,7.9461 0.496,-0.6554 1.0717,-1.6566 1.7274,-3.003 1.258,-2.7816 2.0109,-4.4294 2.2589,-4.9431 0.5315,0.1018 0.9301,0.1506 1.196,0.1506 0.301,0 0.7707,-0.0488 1.4085,-0.1506 -0.9921,1.7229 -1.9755,3.4328 -2.95,5.1381 -1.0276,1.8247 -1.9134,3.4591 -2.6575,4.8943 v 8.2783 l -2.073,-0.1859 -1.94,0.1596 z m 15.5735,7.6318 V 49.1284 c -0.8858,0 -1.745,0.0354 -2.5778,0.1063 -0.8328,0.0708 -1.6299,0.1684 -2.3919,0.2925 l 0.0797,-1.0366 -0.0797,-1.249 h 13.6866 l -0.1594,1.249 0.1594,1.0366 c -0.6554,-0.0709 -1.3862,-0.155 -2.1924,-0.2526 -0.8061,-0.0975 -1.6698,-0.1462 -2.5911,-0.1462 v 16.3443 l -2.073,-0.1063 z m 11.6402,-6.9098 V 47.2416 c 0.7265,0.1063 1.3822,0.1593 1.9667,0.1593 0.6202,0 1.2935,-0.053 2.0197,-0.1593 v 10.2317 c 0,0.9921 0.0754,1.8825 0.2259,2.6708 0.1508,0.7886 0.3677,1.4043 0.6511,1.847 0.3722,0.567 0.8062,1.01 1.3023,1.3289 0.7086,0.4607 1.5593,0.6911 2.5514,0.6911 0.9743,0 1.745,-0.1329 2.312,-0.3988 0.5669,-0.2656 1.1075,-0.7441 1.6211,-1.4349 0.5139,-0.6911 0.8595,-1.692 1.0366,-3.0033 0.1063,-0.7795 0.1593,-1.7629 0.1593,-2.9498 v -8.9827 l 1.0367,0.1063 1.0896,-0.1063 v 9.6735 c 0,2.0376 -0.1774,3.5879 -0.5318,4.6509 -0.2834,0.8503 -0.7262,1.5502 -1.3286,2.0996 -0.7974,0.7262 -1.6478,1.271 -2.5514,1.6344 -0.9034,0.3631 -2.0552,0.5449 -3.4549,0.5449 -1.4528,0 -2.7017,-0.1863 -3.7471,-0.5582 -1.0454,-0.3722 -1.9313,-0.9125 -2.6575,-1.6211 -0.5669,-0.6202 -0.9924,-1.3865 -1.2759,-2.2989 -0.2834,-0.9125 -0.4252,-1.8471 -0.4252,-2.8038 z m 23.8122,6.9098 V 49.1284 c -0.8858,0 -1.745,0.0354 -2.5778,0.1063 -0.8329,0.0708 -1.63,0.1684 -2.3919,0.2925 l 0.0796,-1.0366 -0.0796,-1.249 h 13.6865 l -0.1593,1.249 0.1593,1.0366 c -0.6554,-0.0709 -1.3861,-0.155 -2.1923,-0.2526 -0.8062,-0.0975 -1.6699,-0.1462 -2.5912,-0.1462 v 16.3443 l -2.0729,-0.1063 z m 18.7361,0.0796 V 47.2416 h 10.1254 l -0.1593,1.1427 0.1593,1.1429 c -0.8328,-0.0887 -1.7717,-0.1684 -2.8171,-0.2392 -1.0451,-0.0709 -2.1438,-0.1063 -3.2953,-0.1063 v 5.6605 h 2.8435 c 1.3822,0 2.4361,-0.0709 3.1626,-0.2126 l -0.1593,1.1695 0.1593,1.1693 c -0.8858,-0.1374 -1.7274,-0.2216 -2.5248,-0.248 -0.7971,-0.0312 -1.9576,-0.0445 -3.4813,-0.0445 v 8.8501 c -0.8503,-0.1063 -1.5326,-0.1596 -2.0463,-0.1596 -0.4785,0 -1.1341,0.062 -1.9667,0.1859 z m 13.6599,-18.3107 1.9667,0.1593 1.9667,-0.1593 v 18.3107 c -0.7266,-0.1239 -1.4174,-0.1859 -2.073,-0.1859 -0.5669,0 -1.1872,0.0533 -1.8604,0.1596 z m 8.079,0 h 13.9258 v 0.4782 c -1.2047,1.8604 -2.4007,3.765 -3.5875,5.7138 -0.9391,1.5594 -1.9225,3.2247 -2.95,4.9964 -0.6378,1.1163 -1.5415,2.702 -2.7108,4.7571 v 0.2659 c 0.6732,0 2.0287,-0.0445 4.066,-0.133 2.0375,-0.0887 3.7474,-0.1329 5.1293,-0.1329 l -0.1596,1.0366 0.2126,1.1427 h -15.0154 v -0.4785 c 0.8858,-1.3641 1.9933,-3.1093 3.3222,-5.2353 1.2047,-1.9313 2.2589,-3.6409 3.1623,-5.1293 1.0455,-1.7184 2.0376,-3.384 2.9767,-4.9961 v -0.3455 c -1.3819,0 -2.6133,0.0266 -3.6941,0.0796 -2.9055,0.1418 -4.4649,0.2126 -4.6775,0.2126 l 0.1063,-1.0896 c 0,-0.2835 -0.0133,-0.5049 -0.0396,-0.6645 -0.0267,-0.1593 -0.0488,-0.3189 -0.0667,-0.4782 z m 20.7029,10.5993 c -0.6024,-1.0629 -1.2226,-2.1968 -1.8604,-3.4018 -0.3365,-0.62 -0.9743,-1.8247 -1.9134,-3.6142 -0.7974,-1.5236 -1.4352,-2.7195 -1.9134,-3.592 0.8326,0.1062 1.6387,0.1593 2.4183,0.1593 0.8328,0 1.6123,-0.0488 2.3388,-0.1506 1.311,2.6575 2.6309,5.3062 3.9597,7.9461 0.4961,-0.6554 1.0718,-1.6566 1.7275,-3.003 1.258,-2.7816 2.0109,-4.4294 2.2589,-4.9431 0.5315,0.1018 0.9301,0.1506 1.1959,0.1506 0.3011,0 0.7708,-0.0488 1.4086,-0.1506 -0.9921,1.7229 -1.9755,3.4328 -2.95,5.1381 -1.0276,1.8247 -1.9134,3.4591 -2.6575,4.8943 v 8.2783 l -2.073,-0.1859 -1.94,0.1596 z m 11.9857,-10.5993 2.02,0.1593 1.993,-0.1593 v 8.345 c 0.9391,-1.0854 2.0996,-2.4628 3.4815,-4.1327 0.3719,-0.443 1.5061,-1.847 3.4016,-4.2123 l 1.3555,0.1593 1.5149,-0.1593 v 0.2126 c -1.5061,1.5991 -2.6133,2.7684 -3.322,3.5124 -1.2404,1.3156 -2.4185,2.6088 -3.5348,3.8889 L 390.1,65.1271 v 0.4252 c -0.7441,-0.1239 -1.4261,-0.1859 -2.0464,-0.1859 -0.5669,0 -1.2223,0.0533 -1.9664,0.1596 l -6.0063,-8.4513 v 8.4776 l -1.94,-0.1859 -2.073,0.1596 z m 16.7695,0 1.9667,0.1593 1.9666,-0.1593 v 18.3107 c -0.7265,-0.1239 -1.4173,-0.1859 -2.0729,-0.1859 -0.567,0 -1.1872,0.0533 -1.8604,0.1596 z M 409.288,62.5935 V 47.2416 l 1.9666,0.1593 2.0197,-0.1593 v 15.0863 c 0,1.3286 -0.1241,2.4095 -0.3722,3.2335 -0.248,0.8237 -0.7262,1.5812 -1.4349,2.2765 -1.0099,0.9567 -2.383,1.5415 -4.1193,1.7541 l -0.3985,-1.2493 c 1.0275,-0.2656 1.7008,-0.9521 2.0197,-2.0505 0.2126,-0.7087 0.3189,-1.9401 0.3189,-3.6987 z m 21.0747,2.7729 -2.1529,0.1063 c -0.5315,-1.8071 -1.1514,-3.6409 -1.8601,-5.5012 h -6.2189 c -0.3189,0.8328 -0.5582,1.4882 -0.7175,1.9666 -0.5848,1.5945 -0.9745,2.7726 -1.1693,3.5346 l -1.3289,-0.1063 -1.1426,0.1063 7.5739,-18.4703 0.9833,0.0796 1.0367,-0.0796 7.4145,18.4703 h -1.3022 c -0.2126,0.3809 -0.3543,0.6511 -0.4252,0.8107 -0.2126,0.4161 -0.3543,0.6775 -0.4252,0.7837 -0.1417,0.3323 -0.2392,0.6245 -0.2922,0.8859 -0.0533,0.2613 -0.08,0.5493 -0.08,0.8637 0,0.8904 0.4076,1.3334 1.2226,1.3334 0.2835,0 0.5936,-0.0312 0.9303,-0.093 0.2126,-0.062 0.3453,-0.0932 0.3986,-0.0932 l -0.186,0.8594 c -0.1063,0.0309 -0.3146,0.0885 -0.6247,0.1684 -0.3098,0.0751 -0.5712,0.1151 -0.7838,0.1151 -1.1696,0 -2.0109,-0.1993 -2.5248,-0.5936 -0.5139,-0.3985 -0.7708,-0.9391 -0.7708,-1.6299 0,-0.5448 0.2039,-1.0942 0.6112,-1.639 0.3367,-0.4561 0.9479,-1.0851 1.834,-1.8779 z m -4.6244,-7.0694 -2.3962,-6.1744 -2.5027,6.1744 z m 9.7004,7.0694 V 47.2416 h 9.0357 c 2.2326,0 4.0927,0.6821 5.5812,2.0464 1.6653,1.5414 2.4978,3.6674 2.4978,6.3782 0,2.8701 -0.8325,5.1735 -2.4978,6.9097 -1.772,1.8604 -4.2702,2.7905 -7.4946,2.7905 z m 3.9331,-1.5679 h 2.4451 c 1.7541,0 3.1272,-0.4342 4.1194,-1.3022 1.4703,-1.2935 2.2056,-3.517 2.2056,-6.6708 0,-2.5512 -0.6199,-4.4115 -1.8604,-5.5808 -1.0097,-0.9567 -2.4094,-1.4352 -4.1989,-1.4352 h -2.7108 z m 16.3976,1.7538 V 47.2416 h 6.6971 c 1.2932,0 2.228,0.1018 2.8037,0.3056 0.5758,0.2038 1.1472,0.5891 1.7141,1.156 0.3544,0.3367 0.6245,0.7619 0.8105,1.2756 0.1862,0.5139 0.2792,1.0366 0.2792,1.5681 0,1.4706 -0.4873,2.6399 -1.4618,3.5079 -0.7087,0.6381 -1.6033,1.0808 -2.6842,1.3289 0.8859,1.4927 1.8516,3.0563 2.8968,4.6907 0.9569,1.4927 1.9136,2.9852 2.8703,4.4779 -0.9037,-0.1063 -1.7008,-0.1593 -2.3919,-0.1593 -0.691,0 -1.506,0.053 -2.4448,0.1593 -0.815,-1.4394 -1.4176,-2.5157 -1.8074,-3.2244 -1.311,-2.3298 -2.3386,-4.1148 -3.0827,-5.3595 h -0.1859 v 8.5576 c -0.7974,-0.0888 -1.4619,-0.133 -1.9934,-0.133 -0.5136,0 -1.1871,0.053 -2.0196,0.1593 z m 4.013,-9.7268 0.6111,0.0267 c 1.1163,0 1.9667,-0.2656 2.5512,-0.7974 0.6911,-0.62 1.0366,-1.6121 1.0366,-2.9764 0,-1.3998 -0.3367,-2.3477 -1.01,-2.8437 -0.4782,-0.3544 -1.2313,-0.5315 -2.2589,-0.5315 h -0.93 z m 11.1353,0.5582 c 0,-2.4804 0.7707,-4.6066 2.3119,-6.3783 1.8604,-2.1438 4.5003,-3.2156 7.9198,-3.2156 3.3131,0 5.8733,0.9479 7.6804,2.8437 1.6299,1.7184 2.4449,3.9331 2.4449,6.6439 0,2.9588 -1.0054,5.3152 -3.0206,7.0693 -1.9267,1.6653 -4.4115,2.4982 -7.4503,2.4982 -1.3773,0 -2.7017,-0.2217 -3.973,-0.6645 -1.6963,-0.5848 -3.043,-1.4794 -4.0306,-2.6841 -1.2535,-1.5239 -1.8825,-3.4373 -1.8825,-5.7405 z m 15.8924,-0.6112 c 0,-2.1971 -0.5006,-3.9864 -1.5015,-5.3685 -1.0012,-1.3819 -2.3343,-2.0727 -3.9997,-2.0727 -2.0375,0 -3.5702,0.8592 -4.5978,2.5778 -0.9212,1.5415 -1.3818,3.6232 -1.3818,6.2453 0,2.2147 0.5493,3.9688 1.6477,5.2619 1.0276,1.2048 2.312,1.8074 3.8535,1.8074 2.2147,0 3.8446,-1.072 4.89,-3.2159 0.7262,-1.4882 1.0896,-3.2332 1.0896,-5.2353 z m 5.7668,-8.5309 2.1793,0.1063 2.1793,-0.1063 c 0.3719,1.5591 0.7662,3.1181 1.1826,4.6772 0.4164,1.5593 0.8104,3.0254 1.1826,4.3985 0.3719,1.3731 0.7617,2.7771 1.1693,4.2123 0.3722,-1.1339 0.8858,-2.6045 1.5415,-4.4116 0.4782,-1.3467 0.9921,-2.8082 1.5412,-4.3851 0.6556,-1.9313 1.1429,-3.4283 1.4618,-4.4913 l 1.3553,0.1063 1.3555,-0.1063 c 0.2656,1.0452 0.6554,2.3607 1.1693,3.9464 0.5139,1.5857 1.0275,3.1493 1.5415,4.6908 0.5845,1.7895 1.0805,3.3398 1.4882,4.6508 0.7086,-2.1263 1.3906,-4.2698 2.0463,-6.4315 0.7441,-2.4803 1.3819,-4.7659 1.9134,-6.8565 l 1.1959,0.1063 1.2756,-0.1063 c -1.1339,3.034 -2.1702,5.9176 -3.1093,8.6593 -0.9389,2.7417 -1.9755,5.9573 -3.1093,9.6472 -0.4785,-0.1242 -0.9301,-0.1817 -1.3553,-0.1817 -0.39,0 -0.824,0.0575 -1.3022,0.1817 -0.6557,-2.3256 -1.3244,-4.5312 -2.0067,-6.6175 -0.682,-2.0863 -1.4306,-4.2256 -2.2456,-6.427 l -4.6241,13.0445 -1.3819,-0.1817 -1.3023,0.1817 c -0.8682,-3.2468 -1.7365,-6.3519 -2.6044,-9.315 -0.8683,-2.9633 -1.7808,-5.9575 -2.7375,-8.9915 z m 28.2238,18.1248 V 47.2416 h 10.1786 l -0.2126,1.196 0.1593,1.0896 c -0.7265,-0.0887 -1.559,-0.1684 -2.4982,-0.2392 -0.9388,-0.0709 -1.8513,-0.1063 -2.7371,-0.1063 h -0.877 v 5.6605 h 3.4548 c 0.3365,0 0.7662,-0.0176 1.2889,-0.0576 0.5228,-0.0397 0.9434,-0.0929 1.2623,-0.155 l -0.1593,1.2226 0.1593,1.1162 c -0.3189,-0.0799 -0.8016,-0.1462 -1.4485,-0.2038 -0.6466,-0.0575 -1.2356,-0.0887 -1.7671,-0.0887 h -2.7904 v 6.7771 c 1.063,0 2.1214,-0.0355 3.1756,-0.1063 1.0542,-0.0709 2.0509,-0.1596 2.99,-0.2659 l -0.2126,1.2492 0.1593,1.0364 z m 13.9257,-2.7729 V 47.2416 l 1.9667,0.1593 2.0197,-0.1593 v 15.0863 c 0,1.3286 -0.1242,2.4095 -0.3722,3.2335 -0.248,0.8237 -0.7262,1.5812 -1.4349,2.2765 -1.01,0.9567 -2.3831,1.5415 -4.1193,1.7541 l -0.3986,-1.2493 c 1.0276,-0.2656 1.7008,-0.9521 2.0197,-2.0505 0.2126,-0.7087 0.3189,-1.9401 0.3189,-3.6987 z m -344.9044,15.0438 1.3457,0.1091 1.3456,-0.1091 v 12.5282 c -0.497,-0.0847 -0.9698,-0.1272 -1.4182,-0.1272 -0.3881,0 -0.8124,0.0363 -1.2731,0.1091 z m 4.9641,12.5282 c 0.3152,-1.7606 0.6545,-3.8789 1.0182,-6.3549 0.2789,-1.882 0.5697,-3.9396 0.8728,-6.1733 l 0.7455,0.1091 0.7455,-0.1091 c 0.4484,0.9819 0.9031,1.9516 1.3637,2.9094 0.2302,0.4729 0.6971,1.4182 1.4001,2.8367 0.3515,0.7152 0.8243,1.6546 1.4184,2.8182 0.7152,-1.3941 1.4304,-2.7882 2.1456,-4.182 0.7758,-1.5276 1.4848,-2.9883 2.1274,-4.3823 l 0.7818,0.1091 0.7455,-0.1091 c 0.2545,2.4244 0.4062,3.8185 0.4547,4.1822 0.121,1.0426 0.2967,2.4245 0.5272,4.1457 0.1576,1.2002 0.3577,2.5942 0.6001,4.1822 -0.4969,-0.0728 -0.9941,-0.1091 -1.491,-0.1091 -0.485,0 -0.9819,0.0425 -1.491,0.1272 0,-1.2395 -0.091,-2.6214 -0.2727,-4.1456 -0.182,-1.5245 -0.3515,-2.9792 -0.5091,-4.364 -0.1577,0.3272 -0.6183,1.2668 -1.3819,2.8182 -0.6064,1.2365 -1.067,2.1881 -1.3822,2.8548 -0.4847,1.0182 -0.9091,1.9213 -1.2728,2.7094 h -0.3636 -0.309 c -0.7274,-1.5152 -1.2427,-2.5881 -1.5458,-3.2185 -1.4788,-3.0305 -2.2909,-4.6913 -2.4363,-4.9822 -0.2183,1.5395 -0.4031,3.079 -0.5548,4.6185 -0.1513,1.5395 -0.227,2.77 -0.227,3.6913 l -0.8547,-0.1091 z m 18.0921,-2.8547 c 0.4122,0 0.7637,0.1454 1.0548,0.4365 0.2908,0.2908 0.4362,0.6423 0.4362,1.0545 0,0.4122 -0.1454,0.7636 -0.4362,1.0548 -0.2911,0.2908 -0.6426,0.4362 -1.0548,0.4362 -0.4122,0 -0.7636,-0.1454 -1.0545,-0.4362 -0.2911,-0.2912 -0.4365,-0.6426 -0.4365,-1.0548 0,-0.4122 0.1454,-0.7637 0.4365,-1.0545 0.2909,-0.2911 0.6423,-0.4365 1.0545,-0.4365 z m 9.1097,2.8003 V 77.6373 c 0.4969,0.0728 0.9454,0.1091 1.3453,0.1091 0.4244,0 0.885,-0.0363 1.3819,-0.1091 v 4.9458 l 2.9458,0.1092 2.6365,-0.1092 v -4.9458 l 1.3456,0.1091 1.3819,-0.1091 v 12.4738 l -1.4182,-0.0728 -1.3093,0.0728 V 84.0379 L 227.461,83.965 c -0.3152,0 -0.8274,0.0122 -1.5366,0.0366 -0.7093,0.0241 -1.1121,0.0363 -1.2093,0.0363 v 6.0732 l -1.4182,-0.0728 z m 13.9825,-0.0728 v -12.401 h 6.9641 l -0.1454,0.8183 0.1091,0.7455 c -0.4969,-0.0606 -1.0666,-0.1151 -1.7093,-0.1635 -0.6423,-0.0485 -1.2668,-0.0729 -1.8728,-0.0729 h -0.6001 v 3.873 h 2.3638 c 0.2305,0 0.5244,-0.0122 0.8819,-0.0394 0.3577,-0.0272 0.6457,-0.0635 0.8637,-0.106 l -0.1089,0.8365 0.1089,0.7636 c -0.218,-0.0547 -0.5485,-0.1 -0.991,-0.1394 -0.4422,-0.0394 -0.8453,-0.0607 -1.209,-0.0607 h -1.9094 v 4.6366 c 0.7274,0 1.4516,-0.024 2.173,-0.0725 0.7212,-0.0485 1.4032,-0.1092 2.0455,-0.182 l -0.1454,0.8546 0.1091,0.7093 z m 9.2007,0.0728 V 77.6373 h 1.8184 c 0.5454,0.6063 1.406,1.5395 2.5821,2.8003 0.8362,0.8969 1.6758,1.7941 2.5183,2.6912 0.8424,0.8969 1.7546,1.9092 2.7365,3.0365 v -8.528 l 0.709,0.0728 0.7455,-0.0728 v 12.5282 l -1.5273,-0.0362 c -0.885,-0.9729 -1.7547,-1.9304 -2.6093,-2.8792 -0.8547,-0.9485 -1.7365,-1.9122 -2.6456,-2.897 -1.1273,-1.2152 -2.0849,-2.2275 -2.8729,-3.0427 v 8.8551 l -0.8184,-0.1272 z m 13.9464,0.0544 V 77.6373 h 4.5822 c 0.8847,0 1.5242,0.0697 1.9182,0.2092 0.394,0.1394 0.7849,0.403 1.1727,0.7908 0.2427,0.2305 0.4275,0.5213 0.5548,0.8728 0.1272,0.3518 0.1907,0.7092 0.1907,1.0729 0,1.006 -0.3333,1.8063 -1,2.4001 -0.4848,0.4366 -1.097,0.7396 -1.8363,0.9094 0.606,1.0213 1.2665,2.0908 1.982,3.2091 0.6545,1.0213 1.309,2.0426 1.9635,3.0639 -0.6182,-0.0728 -1.1636,-0.1091 -1.6364,-0.1091 -0.4728,0 -1.0304,0.0363 -1.6727,0.1091 -0.5576,-0.985 -0.9698,-1.7212 -1.2365,-2.2062 -0.8972,-1.5939 -1.6002,-2.8153 -2.1093,-3.6669 h -0.1273 v 5.855 c -0.5456,-0.0607 -1,-0.091 -1.3637,-0.091 -0.3515,0 -0.8121,0.0363 -1.3819,0.1091 z m 2.7456,-6.6549 0.4182,0.0182 c 0.7636,0 1.3456,-0.182 1.7455,-0.5457 0.4729,-0.424 0.7093,-1.1029 0.7093,-2.0364 0,-0.9575 -0.2305,-1.6061 -0.6911,-1.9457 -0.3271,-0.2424 -0.8425,-0.3637 -1.5455,-0.3637 h -0.6364 z m 10.5645,1.3788 c -0.4122,-0.7274 -0.8365,-1.5032 -1.2728,-2.3275 -0.2304,-0.4241 -0.6667,-1.2484 -1.3093,-2.473 -0.5454,-1.0423 -0.9819,-1.8606 -1.309,-2.4576 0.5697,0.0729 1.1211,0.1091 1.6546,0.1091 0.5697,0 1.1029,-0.0334 1.6001,-0.1031 0.8969,1.8184 1.8,3.6306 2.7094,5.4368 0.3393,-0.4484 0.7333,-1.1333 1.1817,-2.0545 0.8606,-1.9032 1.376,-3.0306 1.5455,-3.3823 0.3637,0.0697 0.6366,0.1031 0.8183,0.1031 0.2061,0 0.5273,-0.0334 0.9638,-0.1031 -0.6789,1.1789 -1.3515,2.3487 -2.0182,3.5155 -0.7033,1.2486 -1.3094,2.3669 -1.8185,3.3488 v 5.6639 l -1.4181,-0.1272 -1.3275,0.1091 z m 8.2006,-7.2521 1.3819,0.1091 1.3638,-0.1091 v 5.7095 c 0.6423,-0.7424 1.4363,-1.6849 2.3819,-2.8273 0.2546,-0.3033 1.0304,-1.2639 2.3273,-2.8822 l 0.9275,0.1091 1.0363,-0.1091 v 0.1457 c -1.0304,1.0939 -1.7881,1.8938 -2.2728,2.4032 -0.8487,0.9 -1.6546,1.7849 -2.4185,2.6606 l 4.8733,7.0279 v 0.2908 c -0.5091,-0.0847 -0.976,-0.1272 -1.4003,-0.1272 -0.3878,0 -0.8363,0.0363 -1.3454,0.1091 l -4.1093,-5.7824 v 5.8005 l -1.3275,-0.1272 -1.4182,0.1091 z m 10.0551,12.4738 5.1823,-12.6374 0.6726,0.0547 0.7093,-0.0547 5.0728,12.6374 -1.6545,-0.0728 -1.4729,0.0728 c -0.3637,-1.2365 -0.7878,-2.4911 -1.2728,-3.7641 h -4.2548 c -0.2182,0.5698 -0.3818,1.0185 -0.4909,1.3456 -0.4,1.0911 -0.6667,1.8972 -0.8,2.4185 l -0.9093,-0.0728 z m 6.8187,-4.9096 -1.6395,-4.2245 -1.7122,4.2245 z m 10.9644,4.9096 V 77.6373 h 1.8185 c 0.5453,0.6063 1.4059,1.5395 2.582,2.8003 0.8362,0.8969 1.6759,1.7941 2.5183,2.6912 0.8425,0.8969 1.7547,1.9092 2.7366,3.0365 v -8.528 l 0.7089,0.0728 0.7456,-0.0728 v 12.5282 l -1.5274,-0.0362 c -0.8849,-0.9729 -1.7546,-1.9304 -2.6092,-2.8792 -0.8547,-0.9485 -1.7366,-1.9122 -2.6456,-2.897 -1.1274,-1.2152 -2.0849,-2.2275 -2.8729,-3.0427 v 8.8551 l -0.8184,-0.1272 z m 14.2736,-12.4738 1.3456,0.1091 1.3456,-0.1091 v 12.5282 c -0.4969,-0.0847 -0.9697,-0.1272 -1.4182,-0.1272 -0.388,0 -0.8124,0.0363 -1.273,0.1091 z m 5.7821,12.401 v -12.401 h 6.9642 l -0.1454,0.8183 0.1091,0.7455 c -0.4969,-0.0606 -1.0667,-0.1151 -1.7093,-0.1635 -0.6423,-0.0485 -1.2668,-0.0729 -1.8729,-0.0729 h -0.6001 v 3.873 h 2.3639 c 0.2304,0 0.5244,-0.0122 0.8818,-0.0394 0.3577,-0.0272 0.6457,-0.0635 0.8637,-0.106 l -0.1088,0.8365 0.1088,0.7636 c -0.218,-0.0547 -0.5485,-0.1 -0.991,-0.1394 -0.4422,-0.0394 -0.8452,-0.0607 -1.2089,-0.0607 h -1.9095 v 4.6366 c 0.7274,0 1.4517,-0.024 2.1731,-0.0725 0.7211,-0.0485 1.4031,-0.1092 2.0455,-0.182 l -0.1454,0.8546 0.1091,0.7093 z m 7.9642,-12.401 1.4911,0.0728 1.491,-0.0728 c 0.2545,1.0669 0.5244,2.1336 0.8093,3.2003 0.2849,1.0667 0.5544,2.0698 0.809,3.0092 0.2545,0.9394 0.5213,1.9004 0.8002,2.882 0.2545,-0.7755 0.606,-1.7818 1.0545,-3.0183 0.3274,-0.9213 0.6789,-1.9213 1.0548,-3.0002 0.4484,-1.3212 0.7818,-2.3457 1,-3.073 l 0.9272,0.0728 0.9275,-0.0728 c 0.1817,0.7154 0.4485,1.6154 0.8,2.7002 0.3515,1.0849 0.703,2.1547 1.0545,3.2094 0.4002,1.2243 0.7395,2.285 1.0184,3.1819 0.4848,-1.4544 0.9516,-2.9214 1.4001,-4.4002 0.5091,-1.6971 0.9453,-3.2607 1.309,-4.6913 l 0.8184,0.0728 0.8728,-0.0728 c -0.7759,2.0761 -1.4851,4.049 -2.1274,5.9247 -0.6427,1.8759 -1.3516,4.0762 -2.1274,6.6004 -0.3274,-0.0847 -0.6364,-0.1241 -0.9275,-0.1241 -0.2665,0 -0.5636,0.0394 -0.891,0.1241 -0.4484,-1.5908 -0.9059,-3.1002 -1.3728,-4.5275 -0.4666,-1.4272 -0.9788,-2.891 -1.5364,-4.3974 l -3.164,8.9249 -0.9453,-0.1241 -0.891,0.1241 c -0.5941,-2.2212 -1.188,-4.3458 -1.7821,-6.3731 -0.5939,-2.0273 -1.2181,-4.0759 -1.8729,-6.152 z m 18.4924,6.2552 c 0,-1.6971 0.5273,-3.1519 1.582,-4.364 1.2728,-1.4669 3.079,-2.2002 5.4184,-2.2002 2.2669,0 4.0184,0.6486 5.2549,1.9457 1.1154,1.1758 1.673,2.6909 1.673,4.5456 0,2.0245 -0.6879,3.6366 -2.067,4.8368 -1.3181,1.1395 -3.0183,1.7093 -5.0973,1.7093 -0.9425,0 -1.8484,-0.1517 -2.7184,-0.4547 -1.1605,-0.4 -2.0817,-1.0123 -2.7578,-1.8366 -0.8575,-1.0423 -1.2878,-2.3516 -1.2878,-3.9274 z m 10.8734,-0.4184 c 0,-1.503 -0.3424,-2.7275 -1.0272,-3.6729 -0.6849,-0.9456 -1.5971,-1.4184 -2.7366,-1.4184 -1.3941,0 -2.4426,0.5879 -3.1456,1.764 -0.6304,1.0545 -0.9457,2.4789 -0.9457,4.2729 0,1.5151 0.3759,2.7153 1.1274,3.6003 0.703,0.8243 1.582,1.2365 2.6365,1.2365 1.5154,0 2.6305,-0.7334 3.3457,-2.2003 0.4969,-1.0182 0.7455,-2.2121 0.7455,-3.5821 z m 5.2186,6.5642 v -12.401 h 6.1821 c 1.5273,0 2.8003,0.4668 3.8185,1.4003 1.1396,1.0545 1.7093,2.5092 1.7093,4.3639 0,1.9636 -0.5697,3.5396 -1.7093,4.7276 -1.2123,1.2728 -2.9213,1.9092 -5.1276,1.9092 z m 2.6909,-1.0729 h 1.673 c 1.2,0 2.1394,-0.2968 2.8183,-0.891 1.0062,-0.885 1.5091,-2.406 1.5091,-4.5638 0,-1.7455 -0.424,-3.0186 -1.2727,-3.8185 -0.6908,-0.6545 -1.6487,-0.9819 -2.873,-0.9819 h -1.8547 z m 11.4007,1.1457 V 77.6373 h 1.8184 c 0.5454,0.6063 1.406,1.5395 2.5821,2.8003 0.8362,0.8969 1.6758,1.7941 2.5183,2.6912 0.8425,0.8969 1.7546,1.9092 2.7366,3.0365 v -8.528 l 0.7089,0.0728 0.7455,-0.0728 v 12.5282 l -1.5273,-0.0362 c -0.885,-0.9729 -1.7546,-1.9304 -2.6093,-2.8792 -0.8546,-0.9485 -1.7365,-1.9122 -2.6455,-2.897 -1.1274,-1.2152 -2.0849,-2.2275 -2.873,-3.0427 v 8.8551 l -0.8183,-0.1272 z m 14.2736,-12.4738 1.3456,0.1091 1.3456,-0.1091 v 12.5282 c -0.4969,-0.0847 -0.9697,-0.1272 -1.4182,-0.1272 -0.388,0 -0.8124,0.0363 -1.273,0.1091 z m 4.8186,6.6551 c 0,-1.8303 0.4425,-3.3154 1.3272,-4.4549 0.7032,-0.9091 1.6789,-1.582 2.9276,-2.0183 0.9334,-0.3274 1.885,-0.4909 2.8548,-0.4909 0.8968,0 1.7393,0.1091 2.5273,0.3274 0.5698,0.1576 1.0182,0.3452 1.3456,0.5635 -0.0969,0.3515 -0.1698,0.6273 -0.2182,0.8274 -0.0485,0.1999 -0.1214,0.5485 -0.2183,1.0455 h -0.2364 c -0.4,-0.5454 -0.8637,-0.9607 -1.391,-1.2456 -0.5272,-0.2849 -1.0698,-0.4272 -1.6273,-0.4272 -1.2484,0 -2.2607,0.4848 -3.0365,1.4545 -0.8243,1.0304 -1.2365,2.4063 -1.2365,4.1278 0,1.5514 0.3637,2.8001 1.0911,3.7457 0.7758,1.006 1.8728,1.5092 3.291,1.5092 0.5454,0 1.1151,-0.1214 1.7093,-0.3637 0.5938,-0.2424 1.097,-0.5698 1.5092,-0.9819 l 0.2545,0.1091 -0.4181,1.5636 c -0.4365,0.2545 -0.976,0.4487 -1.6183,0.5819 -0.6426,0.1333 -1.3034,0.2002 -1.982,0.2002 -2.0971,0 -3.7823,-0.6064 -5.055,-1.8185 -1.2002,-1.1395 -1.8,-2.5577 -1.8,-4.2548 z m 12.8554,-6.6551 h 9.5281 v 0.3274 c -0.8243,1.2727 -1.6427,2.5758 -2.4548,3.9092 -0.6423,1.067 -1.3153,2.2062 -2.0183,3.4186 -0.4365,0.7637 -1.0548,1.8485 -1.8547,3.2547 v 0.1817 c 0.4606,0 1.3881,-0.03 2.7819,-0.0907 1.3941,-0.0606 2.564,-0.091 3.5096,-0.091 l -0.1091,0.7093 0.1454,0.7818 h -10.2736 v -0.3274 c 0.6063,-0.9332 1.3637,-2.1274 2.2731,-3.5819 0.8243,-1.3215 1.5454,-2.4911 2.1637,-3.5096 0.7151,-1.1758 1.394,-2.315 2.0364,-3.4183 v -0.2364 c -0.9454,0 -1.7878,0.0182 -2.5274,0.0547 -1.9879,0.097 -3.0546,0.1455 -3.2003,0.1455 l 0.0728,-0.7456 c 0,-0.1941 -0.009,-0.3455 -0.0272,-0.4546 -0.0181,-0.1092 -0.0334,-0.2183 -0.0456,-0.3274 z m 10.2007,12.4738 5.1823,-12.6374 0.6727,0.0547 0.7092,-0.0547 5.0729,12.6374 -1.6546,-0.0728 -1.4728,0.0728 c -0.3637,-1.2365 -0.7878,-2.4911 -1.2728,-3.7641 h -4.2548 c -0.2183,0.5698 -0.3818,1.0185 -0.491,1.3456 -0.3999,1.0911 -0.6667,1.8972 -0.7999,2.4185 l -0.9094,-0.0728 z m 6.8188,-4.9096 -1.6396,-4.2245 -1.7121,4.2245 z m 6.6005,4.9096 V 77.6373 h 1.8184 c 0.5454,0.6063 1.406,1.5395 2.5821,2.8003 0.8362,0.8969 1.6758,1.7941 2.5183,2.6912 0.8424,0.8969 1.7546,1.9092 2.7365,3.0365 v -8.528 l 0.709,0.0728 0.7455,-0.0728 v 12.5282 l -1.5273,-0.0362 c -0.885,-0.9729 -1.7547,-1.9304 -2.6093,-2.8792 -0.8547,-0.9485 -1.7365,-1.9122 -2.6456,-2.897 -1.1273,-1.2152 -2.0849,-2.2275 -2.8729,-3.0427 v 8.8551 l -0.8184,-0.1272 z m 4.6003,-13.4373 2.4185,-2.8004 c 0.2665,-0.3756 0.6061,-0.5635 1.0182,-0.5635 0.5939,0 0.891,0.2786 0.891,0.8362 0,0.2911 -0.188,0.5638 -0.5639,0.8184 l -2.7637,1.7093 z m 9.2733,10.6007 h 0.3636 c 0.1455,0.5817 0.4063,1.0426 0.7818,1.3819 0.4488,0.3999 1.0304,0.6001 1.7456,0.6001 0.5942,0 1.0911,-0.1729 1.491,-0.5182 0.4003,-0.3455 0.6001,-0.7971 0.6001,-1.3547 0,-0.5213 -0.1726,-0.9606 -0.5181,-1.3184 -0.3456,-0.3574 -0.9666,-0.7242 -1.8638,-1.1001 -1.0304,-0.4484 -1.7697,-0.9272 -2.2184,-1.4363 -0.5332,-0.6061 -0.7999,-1.3941 -0.7999,-2.3638 0,-1.1033 0.3333,-1.9942 1,-2.6731 0.7515,-0.7758 1.8366,-1.1636 3.2548,-1.1636 0.5091,0 1.0272,0.0788 1.5548,0.2364 0.5272,0.1576 0.9484,0.3637 1.2636,0.6182 -0.1213,0.3393 -0.2123,0.612 -0.2729,0.8181 -0.1454,0.4244 -0.2483,0.7518 -0.309,0.9819 h -0.2727 c -0.1454,-0.4484 -0.3759,-0.8061 -0.6911,-1.0726 -0.3756,-0.3274 -0.8362,-0.491 -1.3819,-0.491 -0.6789,0 -1.1849,0.1545 -1.5182,0.4635 -0.3334,0.3093 -0.5,0.7608 -0.5,1.3547 0,0.4121 0.1698,0.7821 0.5091,1.1092 0.2423,0.2423 0.606,0.4787 1.091,0.7092 l 1.3456,0.6727 c 1.006,0.485 1.7153,1.0851 2.1274,1.8003 0.3152,0.5453 0.4726,1.188 0.4726,1.9272 0,1.2243 -0.5151,2.2003 -1.5455,2.9276 -0.9213,0.6546 -2.0304,0.982 -3.3276,0.982 -0.5454,0 -1.0667,-0.0698 -1.5636,-0.2092 -0.4972,-0.1395 -0.9456,-0.3303 -1.3456,-0.5729 0.1332,-0.4241 0.2395,-0.8031 0.3184,-1.1364 0.0788,-0.3334 0.1482,-0.7243 0.2089,-1.1727 z m 9.1281,-9.6372 1.3819,0.1091 1.3637,-0.1091 v 5.7095 c 0.6424,-0.7424 1.4363,-1.6849 2.382,-2.8273 0.2545,-0.3033 1.0304,-1.2639 2.3272,-2.8822 l 0.9275,0.1091 1.0364,-0.1091 v 0.1457 c -1.0304,1.0939 -1.7881,1.8938 -2.2729,2.4032 -0.8486,0.9 -1.6545,1.7849 -2.4185,2.6606 l 4.8734,7.0279 v 0.2908 c -0.5092,-0.0847 -0.976,-0.1272 -1.4004,-0.1272 -0.3877,0 -0.8362,0.0363 -1.3453,0.1091 l -4.1094,-5.7824 v 5.8005 l -1.3274,-0.1272 -1.4182,0.1091 z m 11.4732,0 1.3456,0.1091 1.3456,-0.1091 v 12.5282 c -0.4969,-0.0847 -0.9697,-0.1272 -1.4181,-0.1272 -0.3881,0 -0.8125,0.0363 -1.2731,0.1091 z m 5.7821,12.401 v -12.401 h 6.9642 l -0.1454,0.8183 0.1091,0.7455 c -0.4969,-0.0606 -1.0667,-0.1151 -1.7093,-0.1635 -0.6423,-0.0485 -1.2668,-0.0729 -1.8728,-0.0729 h -0.6001 v 3.873 h 2.3638 c 0.2304,0 0.5244,-0.0122 0.8818,-0.0394 0.3578,-0.0272 0.6458,-0.0635 0.8638,-0.106 l -0.1089,0.8365 0.1089,0.7636 c -0.218,-0.0547 -0.5486,-0.1 -0.991,-0.1394 -0.4422,-0.0394 -0.8453,-0.0607 -1.209,-0.0607 h -1.9094 v 4.6366 c 0.7273,0 1.4516,-0.024 2.173,-0.0725 0.7211,-0.0485 1.4032,-0.1092 2.0455,-0.182 l -0.1454,0.8546 0.1091,0.7093 z m 8.4552,-5.855 c 0,-1.8184 0.5153,-3.3335 1.5457,-4.5459 1.3091,-1.5395 3.2789,-2.3091 5.9094,-2.3091 0.8002,0 1.5517,0.0757 2.2547,0.2273 0.7033,0.1514 1.4304,0.4394 2.1821,0.8637 -0.1091,0.2424 -0.2183,0.5667 -0.3274,0.9729 -0.1091,0.4059 -0.1757,0.6999 -0.1998,0.8818 h -0.2549 c -0.4484,-0.6789 -1.0363,-1.176 -1.7637,-1.491 -0.5576,-0.2426 -1.1636,-0.3637 -1.8181,-0.3637 -1.3578,0 -2.4548,0.5151 -3.2913,1.5455 -0.8362,1.0304 -1.2546,2.4486 -1.2546,4.2548 0,1.5154 0.3971,2.7456 1.1911,3.6913 0.794,0.9456 1.785,1.4181 2.973,1.4181 0.3636,0 0.7242,-0.0453 1.0817,-0.1363 0.3577,-0.091 0.7426,-0.2333 1.1548,-0.4272 v -4.2732 c 0.4969,0.0728 0.9453,0.1091 1.3453,0.1091 0.4244,0 0.885,-0.0363 1.3822,-0.1091 v 5.055 c -0.9457,0.303 -1.8275,0.5153 -2.6459,0.6364 -0.8181,0.1213 -1.5607,0.182 -2.2274,0.182 -1.9032,0 -3.5031,-0.4366 -4.8002,-1.3094 -1.6246,-1.1029 -2.4367,-2.7274 -2.4367,-4.873 z"
         style="fill:#00436a;fill-rule:evenodd"
         id="path4" />
      <path
         d="m 503.3886,83.8925 c 0,-1.6971 0.5272,-3.1519 1.582,-4.364 1.2727,-1.4669 3.079,-2.2002 5.4184,-2.2002 2.2669,0 4.0184,0.6486 5.2549,1.9457 1.1154,1.1758 1.673,2.6909 1.673,4.5456 0,2.0245 -0.688,3.6366 -2.067,4.8368 -1.3182,1.1395 -3.0184,1.7093 -5.0973,1.7093 -0.9425,0 -1.8485,-0.1517 -2.7184,-0.4547 -1.1605,-0.4 -2.0818,-1.0123 -2.7579,-1.8366 -0.8574,-1.0423 -1.2877,-2.3516 -1.2877,-3.9274 z m 10.8734,-0.4184 c 0,-1.503 -0.3424,-2.7275 -1.0273,-3.6729 -0.6848,-0.9456 -1.597,-1.4184 -2.7366,-1.4184 -1.394,0 -2.4426,0.5879 -3.1456,1.764 -0.6304,1.0545 -0.9456,2.4789 -0.9456,4.2729 0,1.5151 0.3759,2.7153 1.1273,3.6003 0.703,0.8243 1.5821,1.2365 2.6365,1.2365 1.5154,0 2.6306,-0.7334 3.3458,-2.2003 0.4969,-1.0182 0.7455,-2.2121 0.7455,-3.5821 z m -324.2999,35.9121 v -17.2715 h 6.3445 c 0.9232,0 1.7626,0.1262 2.5177,0.3779 0.6211,0.2012 1.1248,0.47 1.5106,0.8056 0.8226,0.7049 1.2339,1.737 1.2339,3.0968 0,1.779 -0.5961,3.1218 -1.7878,4.0283 -0.8728,0.6546 -2.056,1.0741 -3.5498,1.2589 -0.8226,0.0502 -1.645,0.0921 -2.4673,0.1259 v 7.5781 l -1.9638,-0.1006 z m 3.8018,-8.9629 c 1.1917,0 2.0979,-0.2267 2.719,-0.6797 0.7722,-0.5709 1.1582,-1.5358 1.1582,-2.8956 0,-1.1245 -0.2769,-1.9973 -0.8308,-2.6184 -0.4365,-0.4867 -0.9147,-0.7302 -1.4352,-0.7302 h -1.6112 z m 9.2398,0.3524 c 0,-2.3499 0.7302,-4.364 2.1903,-6.0423 1.7626,-2.0311 4.2634,-3.0464 7.5028,-3.0464 3.1388,0 5.5641,0.8977 7.2762,2.6937 1.5444,1.6282 2.3162,3.7262 2.3162,6.2944 0,2.8029 -0.9524,5.0354 -2.8615,6.6971 -1.8256,1.5778 -4.1794,2.3666 -7.058,2.3666 -1.3051,0 -2.5597,-0.2097 -3.7642,-0.6295 -1.6069,-0.5539 -2.8828,-1.4015 -3.8185,-2.5427 -1.1874,-1.4437 -1.7833,-3.2565 -1.7833,-5.4383 z m 15.056,-0.5791 c 0,-2.0812 -0.4743,-3.7766 -1.4225,-5.0857 -0.9484,-1.3093 -2.2116,-1.9638 -3.7893,-1.9638 -1.9301,0 -3.382,0.8141 -4.3555,2.442 -0.8727,1.4604 -1.3093,3.4325 -1.3093,5.9168 0,2.0982 0.5205,3.7599 1.5611,4.985 0.9734,1.1415 2.1903,1.7121 3.6507,1.7121 2.0979,0 3.6422,-1.0156 4.6324,-3.0464 0.6882,-1.4099 1.0324,-3.0634 1.0324,-4.96 z m 7.0747,-8.0819 1.8629,0.1511 1.9134,-0.1511 v 15.3581 c 0.722,0 1.5568,-0.0252 2.5052,-0.0754 0.9482,-0.0504 2.052,-0.1428 3.3109,-0.2769 l -0.2015,1.1327 0.151,1.0324 h -9.5419 z m 12.3366,13.3441 h 0.5037 c 0.2013,0.8056 0.5622,1.4434 1.0826,1.9134 0.6211,0.5539 1.4267,0.8308 2.4171,0.8308 0.8223,0 1.5106,-0.2392 2.0645,-0.7177 0.5539,-0.4782 0.8308,-1.1035 0.8308,-1.8757 0,-0.7217 -0.2392,-1.33 -0.7177,-1.8252 -0.4782,-0.4952 -1.3386,-1.0029 -2.5807,-1.5234 -1.4267,-0.6207 -2.4505,-1.2838 -3.0713,-1.9887 -0.7387,-0.8394 -1.1081,-1.9304 -1.1081,-3.2732 0,-1.5273 0.4618,-2.761 1.385,-3.7009 1.0406,-1.0744 2.5427,-1.6112 4.5065,-1.6112 0.705,0 1.4225,0.1088 2.1527,0.3271 0.7302,0.2182 1.3135,0.5037 1.7498,0.856 -0.1678,0.47 -0.2937,0.8476 -0.3776,1.133 -0.2015,0.5874 -0.3441,1.0406 -0.428,1.3595 h -0.3776 c -0.2015,-0.621 -0.5204,-1.1162 -0.957,-1.4853 -0.5201,-0.4533 -1.1579,-0.6798 -1.9134,-0.6798 -0.9399,0 -1.6406,0.2141 -2.1021,0.6421 -0.4618,0.4277 -0.6925,1.0531 -0.6925,1.8757 0,0.5706 0.235,1.0825 0.7049,1.5358 0.336,0.3356 0.8394,0.6627 1.5106,0.9816 l 1.8632,0.9318 c 1.3933,0.6712 2.3752,1.5021 2.9458,2.4925 0.4363,0.7551 0.6545,1.6449 0.6545,2.6688 0,1.6951 -0.7132,3.0464 -2.1401,4.0535 -1.2756,0.9063 -2.8114,1.3595 -4.6072,1.3595 -0.7554,0 -1.4771,-0.0966 -2.1654,-0.2897 -0.6882,-0.193 -1.309,-0.4572 -1.8629,-0.7928 0.1845,-0.5876 0.3314,-1.112 0.4405,-1.5738 0.1091,-0.4615 0.2055,-1.0029 0.2894,-1.6237 z m 12.6391,-13.3441 1.9134,0.1511 1.8885,-0.1511 v 7.9058 c 0.8895,-1.0281 1.9888,-2.3332 3.2981,-3.9152 0.3523,-0.4195 1.4267,-1.7498 3.2227,-3.9906 l 1.2841,0.1511 1.4349,-0.1511 v 0.2016 c -1.4267,1.5148 -2.4758,2.6226 -3.147,3.3275 -1.175,1.2462 -2.2913,2.4716 -3.3486,3.6842 l 6.7473,9.7311 v 0.4028 c -0.705,-0.1176 -1.351,-0.1763 -1.9386,-0.1763 -0.5369,0 -1.158,0.0504 -1.8629,0.1511 l -5.69,-8.0065 v 8.0317 l -1.838,-0.1763 -1.9639,0.1511 z m 15.8865,0 1.8632,0.1511 1.8633,-0.1511 v 17.3472 c -0.6883,-0.1176 -1.3428,-0.1763 -1.9639,-0.1763 -0.5372,0 -1.1248,0.0504 -1.7626,0.1511 z m 8.0065,17.1709 v -17.1709 h 9.6429 l -0.2016,1.133 0.1511,1.0324 c -0.6882,-0.0839 -1.4771,-0.1596 -2.3666,-0.2265 -0.8895,-0.0672 -1.7541,-0.1009 -2.5932,-0.1009 h -0.8308 v 5.3629 h 3.2729 c 0.3189,0 0.7259,-0.017 1.2212,-0.0547 0.4952,-0.0378 0.8937,-0.0882 1.1959,-0.1469 l -0.1511,1.1583 0.1511,1.0573 c -0.3022,-0.0754 -0.7597,-0.1384 -1.3723,-0.1931 -0.6125,-0.0544 -1.1707,-0.0839 -1.6741,-0.0839 h -2.6436 v 6.4202 c 1.0069,0 2.0098,-0.0334 3.0084,-0.1006 0.999,-0.0672 1.9429,-0.1511 2.8327,-0.2517 l -0.2016,1.1832 0.1511,0.9819 z m 13.193,-2.6269 v -14.544 l 1.8629,0.1511 1.9134,-0.1511 v 14.2923 c 0,1.2589 -0.1173,2.2827 -0.3523,3.0631 -0.235,0.7807 -0.6883,1.4981 -1.3595,2.1569 -0.9567,0.9065 -2.2575,1.4604 -3.9025,1.6617 l -0.3778,-1.1832 c 0.9737,-0.2517 1.6114,-0.9023 1.9136,-1.9429 0.2013,-0.6715 0.3022,-1.838 0.3022,-3.5039 z m 13.117,2.7275 7.1757,-17.498 0.9314,0.0757 0.9819,-0.0757 7.0246,17.498 -2.2913,-0.1006 -2.0392,0.1006 c -0.5037,-1.7118 -1.0911,-3.4492 -1.7626,-5.2115 h -5.8912 c -0.3022,0.7889 -0.5287,1.41 -0.6798,1.8629 -0.5539,1.5106 -0.9232,2.6269 -1.1078,3.3486 l -1.2588,-0.1006 z m 9.4417,-6.7978 -2.2703,-5.8493 -2.3709,5.8493 z m 8.837,-10.4737 1.9134,0.1511 1.8884,-0.1511 v 7.9058 c 0.8895,-1.0281 1.9888,-2.3332 3.2981,-3.9152 0.3524,-0.4195 1.4267,-1.7498 3.2227,-3.9906 l 1.2841,0.1511 1.4349,-0.1511 v 0.2016 c -1.4267,1.5148 -2.4758,2.6226 -3.147,3.3275 -1.175,1.2462 -2.2913,2.4716 -3.3486,3.6842 l 6.7473,9.7311 v 0.4028 c -0.7049,-0.1176 -1.351,-0.1763 -1.9386,-0.1763 -0.5369,0 -1.1579,0.0504 -1.8629,0.1511 l -5.69,-8.0065 v 8.0317 l -1.838,-0.1763 -1.9638,0.1511 z m 13.9226,17.2715 7.1756,-17.498 0.9315,0.0757 0.9819,-0.0757 7.0246,17.498 -2.2913,-0.1006 -2.0392,0.1006 c -0.5037,-1.7118 -1.0911,-3.4492 -1.7626,-5.2115 h -5.8912 c -0.3022,0.7889 -0.5287,1.41 -0.6798,1.8629 -0.5539,1.5106 -0.9232,2.6269 -1.1078,3.3486 l -1.2588,-0.1006 z m 9.4417,-6.7978 -2.2703,-5.8493 -2.3709,5.8493 z m 9.1893,6.6972 v -17.1709 h 8.5604 c 2.1149,0 3.8772,0.6463 5.2871,1.9389 1.5778,1.4601 2.3667,3.4744 2.3667,6.0423 0,2.7193 -0.7889,4.9011 -2.3667,6.5461 -1.6783,1.7623 -4.045,2.6436 -7.0999,2.6436 z m 3.7264,-1.4854 h 2.3162 c 1.6617,0 2.9625,-0.4113 3.9025,-1.2336 1.3932,-1.2254 2.0897,-3.3319 2.0897,-6.3196 0,-2.4171 -0.5876,-4.1794 -1.7623,-5.2872 -0.957,-0.9062 -2.2828,-1.3595 -3.9782,-1.3595 h -2.5679 z m 15.6348,1.4854 v -17.1709 h 9.6429 l -0.2015,1.133 0.1511,1.0324 c -0.6883,-0.0839 -1.4772,-0.1596 -2.3667,-0.2265 -0.8895,-0.0672 -1.7541,-0.1009 -2.5931,-0.1009 h -0.8309 v 5.3629 h 3.2729 c 0.3189,0 0.726,-0.017 1.2212,-0.0547 0.4952,-0.0378 0.8938,-0.0882 1.1959,-0.1469 l -0.1511,1.1583 0.1511,1.0573 c -0.3021,-0.0754 -0.7597,-0.1384 -1.3722,-0.1931 -0.6126,-0.0544 -1.1707,-0.0839 -1.6742,-0.0839 h -2.6436 v 6.4202 c 1.0069,0 2.0098,-0.0334 3.0085,-0.1006 0.9989,-0.0672 1.9428,-0.1511 2.8326,-0.2517 l -0.2015,1.1832 0.1511,0.9819 z m 11.4557,0.1763 c 0.4365,-2.4381 0.9065,-5.3711 1.4099,-8.7996 0.3861,-2.6056 0.7889,-5.455 1.2084,-8.5476 l 1.0324,0.1511 1.0321,-0.1511 c 0.6211,1.3598 1.2506,2.7026 1.8884,4.0283 0.3189,0.6548 0.9652,1.9639 1.9387,3.9277 0.4867,0.9904 1.1412,2.2913 1.9638,3.9025 0.9901,-1.9301 1.9806,-3.8605 2.9707,-5.7906 1.0743,-2.115 2.0563,-4.1375 2.9458,-6.0679 l 1.0825,0.1511 1.0324,-0.1511 c 0.3523,3.3571 0.5624,5.2872 0.6293,5.7909 0.1681,1.4434 0.4113,3.3568 0.7302,5.7404 0.2183,1.6617 0.4952,3.5918 0.8308,5.7907 -0.6879,-0.1007 -1.3762,-0.1511 -2.0644,-0.1511 -0.6713,0 -1.3595,0.0587 -2.0645,0.1763 0,-1.7164 -0.1259,-3.6298 -0.3776,-5.7405 -0.252,-2.1106 -0.487,-4.1249 -0.705,-6.0426 -0.2182,0.4533 -0.856,1.7541 -1.9136,3.9025 -0.8391,1.7121 -1.4769,3.0297 -1.9134,3.9529 -0.6713,1.41 -1.2589,2.6603 -1.7623,3.7514 h -0.5035 -0.428 c -1.0071,-2.0982 -1.7206,-3.5836 -2.1401,-4.4564 -2.0478,-4.1961 -3.1723,-6.4956 -3.3738,-6.8984 -0.3022,2.1317 -0.5582,4.2633 -0.7679,6.395 -0.2098,2.1316 -0.3147,3.8353 -0.3147,5.1109 l -1.1832,-0.1511 z m 23.8677,-17.3472 1.8632,0.1511 1.8632,-0.1511 v 17.3472 c -0.6882,-0.1176 -1.3428,-0.1763 -1.9638,-0.1763 -0.5372,0 -1.1248,0.0504 -1.7626,0.1511 z m 8.3588,0 1.8632,0.1511 1.8632,-0.1511 v 17.3472 c -0.6882,-0.1176 -1.3428,-0.1763 -1.9638,-0.1763 -0.5372,0 -1.1248,0.0504 -1.7626,0.1511 z m 15.1316,17.2715 v -17.2715 h 2.5177 c 0.7552,0.8393 1.9469,2.1317 3.5751,3.8775 1.1582,1.2419 2.3204,2.484 3.4869,3.7262 1.1667,1.2421 2.4296,2.6436 3.7893,4.2046 v -11.8083 l 0.982,0.1009 1.0321,-0.1009 v 17.3472 l -2.115,-0.0505 c -1.2251,-1.347 -2.4295,-2.673 -3.6127,-3.9863 -1.1835,-1.3133 -2.4044,-2.6479 -3.6632,-4.0116 -1.5611,-1.6827 -2.8871,-3.0841 -3.9782,-4.2129 v 12.2613 l -1.133,-0.1763 z m 17.7999,0 7.1756,-17.498 0.9315,0.0757 0.9819,-0.0757 7.0245,17.498 -2.2912,-0.1006 -2.0393,0.1006 c -0.5037,-1.7118 -1.091,-3.4492 -1.7625,-5.2115 h -5.8913 c -0.3022,0.7889 -0.5286,1.41 -0.6797,1.8629 -0.5539,1.5106 -0.9233,2.6269 -1.1078,3.3486 l -1.2589,-0.1006 z m 9.4416,-6.7978 -2.2702,-5.8493 -2.3709,5.8493 z m 9.2398,0.2518 v -10.7255 c 0.6883,0.1009 1.3094,0.1511 1.8632,0.1511 0.5874,0 1.2252,-0.0502 1.9134,-0.1511 v 9.6934 c 0,0.9399 0.0715,1.7832 0.214,2.5302 0.1426,0.7469 0.3484,1.3303 0.6169,1.7498 0.3523,0.5372 0.7636,0.9567 1.2336,1.2589 0.6715,0.4362 1.4771,0.6545 2.4171,0.6545 0.923,0 1.6532,-0.1259 2.1903,-0.3776 0.5372,-0.2517 1.0491,-0.705 1.5358,-1.3595 0.4868,-0.6548 0.8142,-1.603 0.982,-2.8451 0.1006,-0.7384 0.1511,-1.6699 0.1511,-2.7947 v -8.5099 l 0.9819,0.1009 1.0321,-0.1009 v 9.1647 c 0,1.9301 -0.1678,3.3987 -0.5035,4.4059 -0.2684,0.8056 -0.6882,1.4686 -1.2588,1.9891 -0.7555,0.6879 -1.5611,1.2041 -2.4171,1.5482 -0.8561,0.3442 -1.9469,0.5162 -3.2729,0.5162 -1.3765,0 -2.5597,-0.1763 -3.5501,-0.5286 -0.9902,-0.3527 -1.8295,-0.8646 -2.5178,-1.5358 -0.5368,-0.5877 -0.9396,-1.3136 -1.2084,-2.1779 -0.2684,-0.8646 -0.4028,-1.7498 -0.4028,-2.6563 z m 19.1597,-10.7255 1.9134,0.1511 1.8884,-0.1511 v 7.9058 c 0.8895,-1.0281 1.9888,-2.3332 3.2981,-3.9152 0.3524,-0.4195 1.4267,-1.7498 3.2227,-3.9906 l 1.2841,0.1511 1.4349,-0.1511 v 0.2016 c -1.4267,1.5148 -2.4758,2.6226 -3.147,3.3275 -1.175,1.2462 -2.2912,2.4716 -3.3486,3.6842 l 6.7473,9.7311 v 0.4028 c -0.7049,-0.1176 -1.351,-0.1763 -1.9386,-0.1763 -0.5369,0 -1.1579,0.0504 -1.8629,0.1511 l -5.69,-8.0065 v 8.0317 l -1.838,-0.1763 -1.9638,0.1511 z"
         style="fill:#00436a;fill-rule:evenodd"
         id="path6" />
    </g>
    <path
       d="m 150.2105,103.2937 v 20.3453 c 0,5.6335 -2.3501,9.8968 -7.0411,12.779 -4.7021,2.8889 -10.9712,4.3284 -18.8163,4.3284 -4.0467,0 -7.6405,-0.4465 -10.7813,-1.3312 v -11.5509 c 1.6509,0.3007 3.0971,0.4552 4.3244,0.4552 2.0743,0 3.5762,-0.3729 4.4847,-1.1163 0.9175,-0.7509 1.3733,-2.1042 1.3733,-4.0709 v -19.604 c 3.399,2.9807 7.7321,5.1187 13.3885,5.0936 6.0354,-0.0268 10.4165,-2.8591 13.0678,-5.3282 z m 3.5182,-21.3791 c 0.0203,-0.011 -0.0462,0.0359 -0.0263,0.0247 z M 91.0635,58.922 91.0693,58.9036 c -1.3148,0.0957 -2.4596,0.1709 -3.7341,0.2919 0.1206,0.7494 0.1772,1.5213 0.1772,2.3058 0,8.859 -7.2255,16.0845 -16.0845,16.0845 -7.0814,0 -13.1192,-4.6172 -15.2569,-10.9948 l -0.0114,-0.0104 c -4.3799,2.2465 -6.8739,4.8232 -6.8739,7.5585 0,3.0295 3.059,5.8644 8.3514,8.2716 L 57.637,82.35 57.6412,75.4042 c 1.5207,1.0977 2.9411,2.3499 4.5621,3.2931 1.1815,0.6873 2.4804,1.1747 3.7898,1.5664 1.1234,0.3361 2.2987,0.4899 3.4655,0.6047 1.1883,0.117 2.3934,0.2134 3.5809,0.0896 1.392,-0.145 2.7613,-0.4939 4.1033,-0.8912 1.0809,-0.3199 2.1972,-0.6371 3.1412,-1.2534 l 3.4684,-2.2642 0.057,12.0932 -0.0527,0.054 c 2.3631,0.2787 4.8078,0.5133 7.3202,0.6993 l -0.0134,0.0154 z m 64.3222,29.6787 c 0.009,-0.0046 0.021,0.0134 0.0303,0.0086 6.6841,-3.5577 10.6388,-7.9322 10.6388,-12.549 0,-10.8371 -21.3612,-19.8991 -49.7214,-21.8768 l 0.006,0.0143 v -3.5587 l 0.7458,-2.2978 c 0.3481,-0.6963 1.2189,-1.3926 1.567,-2.0889 0.9748,-0.4874 1.5764,-1.2735 2.5512,-1.7609 0.6963,-0.4178 1.5419,-0.5369 2.2382,-0.9547 1.3926,-0.0696 2.7852,-0.1392 4.1778,-0.2089 1.1802,0.0335 1.6974,-0.04 3.4614,-0.0151 0.9748,0 2.2482,0.224 3.2231,0.224 1.4622,0.1393 2.9991,0.4278 4.4613,0.5671 1.3079,0.4128 3.0637,0.3776 4.5956,0.865 1.5318,0.2785 2.989,1.005 4.5209,1.2835 1.5318,0.4178 3.0637,0.8355 4.5955,1.2533 0.1393,-2.5763 0.2786,-5.1526 0.4178,-7.7289 -1.1837,-0.6267 -2.3674,-1.2533 -3.5511,-1.88 -1.2533,-0.4874 -2.5067,-0.9748 -3.76,-1.4622 -1.323,-0.4874 -2.646,-0.9748 -3.9689,-1.4622 -0.9052,-0.2089 -1.7357,-0.7165 -2.6409,-0.9253 -0.9748,-0.4178 -2.0243,-0.537 -2.9991,-0.9548 -0.8356,-0.2088 -1.6711,-0.4177 -2.5067,-0.6266 -0.9052,-0.2785 -1.8104,-0.5571 -2.7156,-0.8356 -0.9052,-0.2785 -1.8103,-0.4077 -2.7155,-0.6862 -1.1837,-0.1393 -2.3674,-0.4279 -3.5512,-0.5671 -1.1837,-0.1393 -2.3674,-0.2785 -3.5511,-0.4178 -1.2533,-0.0696 -2.5066,-0.2886 -3.76,-0.3582 -1.3229,-0.1393 -2.6459,-0.1292 -3.9689,-0.2685 -1.1837,0.0697 -2.3674,-0.01 -3.5511,0.0596 -0.9748,0.0696 -1.9496,0.2139 -2.9245,0.2836 -1.1837,0.1392 -2.3674,0.3531 -3.5511,0.4924 -0.9748,0.4178 -1.9496,0.8356 -2.9244,1.2533 -0.766,0.5571 -1.5319,1.1141 -2.2978,1.6711 -0.8356,0.6963 -1.6711,1.3926 -2.5067,2.0889 -0.557,0.766 -1.1141,1.5319 -1.6711,2.2978 -0.4874,1.0445 -1.2734,2.0889 -1.7608,3.1334 -0.4178,1.1837 -0.537,2.3674 -0.9548,3.5511 0,2.3674 0,4.7348 0,7.1022 l 0.0671,3.0351 0.0608,-2e-4 c -1.7472,0.1402 -3.4667,0.3072 -5.1544,0.4995 -2.5441,-5.532 -8.1413,-9.3833 -14.6091,-9.3833 -8.859,0 -16.0845,7.2255 -16.0845,16.0845 0,0.3874 0.0142,0.7719 0.0412,1.1528 l 0.011,0.0238 c -7.765,3.731 -12.3766,8.3679 -12.3766,13.3824 0,5.4869 5.5214,10.5219 14.6537,14.4124 l -0.0411,-0.1011 -0.0203,29.9472 26.1689,0.0281 0.0692,-23.3465 0.0514,0.0546 c 2.3197,0.3006 4.7035,0.5523 7.141,0.7514 l 0.0217,-0.0678 v 22.2517 l 25.2757,-0.1193 V 97.7053 l -0.0268,0.0024 4.013,-0.3117 c -0.0214,0.0373 -0.5725,-1.2898 -0.6745,-1.5059 -0.1715,-0.3638 -0.4251,-0.9479 -0.6221,-1.6922 -0.1798,-0.6799 -0.3919,-1.3905 -0.4544,-1.9785 l -0.1443,-1.3511 -0.1391,-1.6655 c -2.1196,0.286 0.1127,0.0071 -1.8794,0.2789 l -0.0724,-0.0039 V 58.6597 l -0.002,-0.0071 c 25.6945,1.425 44.9135,7.8408 44.9135,15.4865 0.005,2.8009 -2.3306,5.4676 -7.5243,7.8566 -0.0142,0.0066 0.0486,-0.0392 0.0344,-0.0325 l -1.7429,0.8268 -0.0127,0.0195 c -2.4279,-5.8033 -8.1687,-9.8988 -14.8353,-9.8988 -8.8513,0 -16.0707,7.2194 -16.0707,16.0707 0,8.8514 7.2194,16.0707 16.0707,16.0707 8.6105,0 15.6766,-6.8321 16.0547,-15.3522 l -0.006,0.011 c 0.7221,-0.3701 1.4415,-0.7466 2.1669,-1.1102 z"
       style="fill:#00436a;fill-rule:evenodd"
       id="path9" />
  </g>
</svg>
