<?xml version="1.0" encoding="UTF-8" standalone="no"?>
<!-- Created with Inkscape (http://www.inkscape.org/) -->

<svg
   version="1.1"
   id="svg2"
   width="340.15768"
   height="95.442657"
   viewBox="0 0 340.15768 95.442657"
   xmlns="http://www.w3.org/2000/svg"
   xmlns:svg="http://www.w3.org/2000/svg">
  <defs
     id="defs6">
    <clipPath
       clipPathUnits="userSpaceOnUse"
       id="clipPath20">
      <path
         d="M 0,595.276 H 841.89 V 0 H 0 Z"
         id="path18" />
    </clipPath>
  </defs>
  <g
     id="g10"
     transform="matrix(1.3333333,0,0,-1.3333333,-378.96854,467.87079)">
    <g
       id="g14">
      <g
         id="g16"
         clip-path="url(#clipPath20)">
        <g
           id="g22"
           transform="translate(340.7544,279.635)">
          <path
             d="m 0,0 h -53.621 c -1.175,0 -2.235,0.708 -2.685,1.794 -0.45,1.086 -0.201,2.336 0.63,3.167 l 42.504,42.504 -7.89,7.89 -30.504,-30.504 c -0.831,-0.831 -2.081,-1.08 -3.167,-0.63 -1.086,0.45 -1.795,1.51 -1.795,2.685 l 10e-4,20.524 c 0,1.606 1.301,2.906 2.906,2.906 1.605,0 2.906,-1.3 2.906,-2.906 V 33.923 l 27.598,27.598 c 1.135,1.134 2.975,1.134 4.11,0 l 12,-12 c 1.135,-1.136 1.135,-2.976 0,-4.111 L -46.604,5.812 h 43.698 v 12.001 h -17.996 c -1.606,0 -2.907,1.301 -2.907,2.906 0,1.605 1.301,2.906 2.907,2.906 H 0 c 1.605,0 2.906,-1.301 2.906,-2.906 V 2.906 C 2.906,1.301 1.605,0 0,0"
             style="fill:#ffffff;fill-opacity:1;fill-rule:nonzero;stroke:none"
             id="path24" />
        </g>
        <g
           id="g26"
           transform="translate(287.1333,333.4431)">
          <path
             d="m 0,0 c -1.605,0 -2.906,1.301 -2.906,2.906 v 11.648 c 0,1.605 1.301,2.906 2.906,2.906 1.605,0 2.906,-1.301 2.906,-2.906 V 2.906 C 2.906,1.301 1.605,0 0,0"
             style="fill:#86bc25;fill-opacity:1;fill-rule:nonzero;stroke:none"
             id="path28" />
        </g>
        <g
           id="g30"
           transform="translate(365.2324,301.7673)">
          <path
             d="m 0,0 v -8.219 l 4.268,1.738 V -9.958 C 3.382,-10.37 2.434,-10.686 0,-11.698 v -6.954 H 10.749 V -22.13 H -4.11 v 8.694 l -2.529,-0.948 v 3.477 l 2.529,0.949 V 0 Z"
             style="fill:#ffffff;fill-opacity:1;fill-rule:nonzero;stroke:none"
             id="path32" />
        </g>
        <g
           id="g34"
           transform="translate(393.5244,295.76)">
          <path
             d="m 0,0 v -16.123 h -2.687 l -0.474,1.897 h -0.316 c 0,0 -1.265,-2.212 -3.636,-2.212 h -2.845 c -2.687,0 -4.584,1.896 -4.584,4.267 V 0 h 3.952 v -11.539 c 0,-0.948 0.632,-1.58 1.738,-1.58 h 2.372 c 1.738,0 2.529,1.739 2.529,1.739 V 0 Z"
             style="fill:#ffffff;fill-opacity:1;fill-rule:nonzero;stroke:none"
             id="path36" />
        </g>
        <g
           id="g38"
           transform="translate(408.1597,295.76)">
          <path
             d="m 0,0 h 3.952 v -1.58 l -3.636,-6.165 3.952,-6.797 v -1.581 H 0.316 l -3.319,6.639 h -3.003 v -6.639 h -3.952 v 22.13 h 3.952 V -6.164 h 3.003 z"
             style="fill:#ffffff;fill-opacity:1;fill-rule:nonzero;stroke:none"
             id="path40" />
        </g>
        <g
           id="g42"
           transform="translate(425.4824,284.3801)">
          <path
             d="m 0,0 v 1.896 h -4.742 c -0.948,0 -1.58,-0.632 -1.58,-1.581 v -0.474 c 0,-0.948 0.632,-1.58 1.58,-1.58 h 2.214 C -0.79,-1.739 0,0 0,0 M 1.265,-4.743 0.791,-2.846 H 0.475 c 0,0 -1.265,-2.213 -3.636,-2.213 H -5.69 c -2.687,0 -4.584,1.897 -4.584,4.268 v 1.738 c 0,2.371 1.897,4.269 4.584,4.269 H 0 v 1.106 c 0,1.107 -0.632,1.739 -1.738,1.739 h -7.114 v 3.319 h 8.22 c 2.688,0 4.584,-1.897 4.584,-4.268 V -4.743 Z"
             style="fill:#ffffff;fill-opacity:1;fill-rule:nonzero;stroke:none"
             id="path44" />
        </g>
        <g
           id="g46"
           transform="translate(441.7627,285.802)">
          <path
             d="M 0,0 -4.427,0.791 C -6.323,1.106 -8.062,2.845 -8.062,5.059 V 5.69 c 0,2.372 1.897,4.268 4.584,4.268 H 4.584 V 7.587 L 3.635,6.639 h -6.164 c -0.949,0 -1.581,-0.632 -1.581,-1.265 0,-0.916 0.316,-1.422 1.264,-1.58 L 1.738,3.003 C 3.635,2.688 5.216,1.106 5.216,-1.106 v -0.79 c 0,-2.372 -1.897,-4.269 -4.584,-4.269 H -8.22 v 3.32 h 8.062 c 0.948,0 1.423,0.474 1.423,1.423 C 1.265,-0.632 0.79,-0.127 0,0"
             style="fill:#ffffff;fill-opacity:1;fill-rule:nonzero;stroke:none"
             id="path48" />
        </g>
        <path
           d="m 454.816,279.637 h -3.951 v 16.123 h 3.951 z m 0,18.178 h -3.951 v 4.426 h 3.951 z"
           style="fill:#ffffff;fill-opacity:1;fill-rule:nonzero;stroke:none"
           id="path50" />
        <g
           id="g52"
           transform="translate(463.0361,289.4377)">
          <path
             d="m 0,0 h 6.322 v 1.738 c 0,0.95 -0.633,1.581 -1.738,1.581 H 1.738 C 0.632,3.319 0,2.688 0,1.738 Z M 10.274,-3.319 H 0 V -4.9 c 0,-0.949 0.632,-1.58 1.738,-1.58 h 7.904 v -3.321 h -9.01 c -2.688,0 -4.584,1.898 -4.584,4.269 v 7.903 c 0,2.371 1.896,4.268 4.584,4.268 h 5.057 c 2.688,0 4.585,-1.897 4.585,-4.268 z"
             style="fill:#ffffff;fill-opacity:1;fill-rule:nonzero;stroke:none"
             id="path54" />
        </g>
        <g
           id="g56"
           transform="translate(487.0605,288.9641)">
          <path
             d="m 0,0 -2.846,-9.327 h -4.109 l -3.952,14.543 v 1.58 h 4.268 l 2.055,-11.223 h 0.316 l 2.529,9.011 H 2.055 L 4.584,-4.427 H 4.9 L 6.955,6.796 h 4.268 V 5.216 L 7.271,-9.327 H 3.161 L 0.316,0 Z"
             style="fill:#ffffff;fill-opacity:1;fill-rule:nonzero;stroke:none"
             id="path58" />
        </g>
        <path
           d="m 506.026,279.637 h -3.951 v 16.123 h 3.951 z m 0,18.178 h -3.951 v 4.426 h 3.951 z"
           style="fill:#ffffff;fill-opacity:1;fill-rule:nonzero;stroke:none"
           id="path60" />
        <g
           id="g62"
           transform="translate(514.0557,284.5373)">
          <path
             d="M 0,0 C 0,-0.948 0.632,-1.58 1.738,-1.58 H 9.01 V -4.9 H 0.632 c -2.687,0 -4.583,1.897 -4.583,4.268 v 7.587 c 0,2.371 1.896,4.268 4.583,4.268 H 9.01 V 8.852 L 8.062,7.903 H 1.738 C 0.632,7.903 0,7.271 0,6.323 Z"
             style="fill:#ffffff;fill-opacity:1;fill-rule:nonzero;stroke:none"
             id="path64" />
        </g>
        <g
           id="g66"
           transform="translate(539.3447,279.6369)">
          <path
             d="m 0,0 h -13.277 v 3.32 l 8.061,9.168 v 0.316 h -6.797 l -0.949,0.948 v 2.371 H 0 V 12.804 L -8.062,3.636 V 3.32 H 0 Z"
             style="fill:#ffffff;fill-opacity:1;fill-rule:nonzero;stroke:none"
             id="path68" />
        </g>
      </g>
    </g>
  </g>
</svg>
