<?xml version="1.0" encoding="UTF-8" standalone="no"?>
<svg
   version="1.1"
   width="517.95691pt"
   height="193.55695pt"
   id="svg284"
   viewBox="0 0 517.95691 193.55695"
   sodipodi:docname="solaris_poziome_biale_pl.cdr"
   xmlns:inkscape="http://www.inkscape.org/namespaces/inkscape"
   xmlns:sodipodi="http://sodipodi.sourceforge.net/DTD/sodipodi-0.dtd"
   xmlns="http://www.w3.org/2000/svg"
   xmlns:svg="http://www.w3.org/2000/svg">
  <defs
     id="defs288" />
  <sodipodi:namedview
     id="namedview286"
     pagecolor="#ffffff"
     bordercolor="#000000"
     borderopacity="0.25"
     inkscape:showpageshadow="2"
     inkscape:pageopacity="0.0"
     inkscape:pagecheckerboard="0"
     inkscape:deskcolor="#d1d1d1"
     showgrid="false"
     inkscape:document-units="pt" />
  <g
     id="Layer1000"
     transform="translate(-16.695699,-321.26549)">
    <g
       id="Layer1001">
      <g
         id="Layer1002">
        <g
           id="Layer1003">
          <path
             d="m 270.3257,389.9475 c 7.164,0 10.7501,-2.4531 10.7501,-7.3593 0,-1.5078 -0.3203,-2.797 -0.9533,-3.8594 -0.6366,-1.0624 -1.4998,-1.9766 -2.5937,-2.7499 -1.0859,-0.7812 -2.3241,-1.4533 -3.7188,-2.0157 -1.3867,-0.5624 -2.8553,-1.1291 -4.4061,-1.7031 -1.7929,-0.6134 -3.4923,-1.3048 -5.0939,-2.0781 -1.6052,-0.7812 -2.9959,-1.7033 -4.1717,-2.7657 -1.1798,-1.0624 -2.1096,-2.3202 -2.797,-3.7812 -0.6797,-1.457 -1.0156,-3.2227 -1.0156,-5.2971 0,-4.2888 1.457,-7.6405 4.375,-10.0468 2.9259,-2.406 6.957,-3.6093 12.0937,-3.6093 2.9687,0 5.6642,0.3203 8.0938,0.9532 2.4375,0.6367 4.2188,1.336 5.3438,2.0937 l -2.1875,5.578 c -0.9921,-0.6131 -2.465,-1.2109 -4.422,-1.7968 -1.9607,-0.5936 -4.2344,-0.8907 -6.8281,-0.8907 -1.3124,0 -2.539,0.1485 -3.6717,0.4377 -1.1367,0.2812 -2.1328,0.703 -2.9843,1.2656 -0.8439,0.5624 -1.5157,1.2813 -2.0158,2.1561 -0.492,0.875 -0.7344,1.9026 -0.7344,3.0781 0,1.3244 0.2579,2.4338 0.7812,3.3282 0.5196,0.8986 1.2501,1.6874 2.1875,2.3751 0.9454,0.6798 2.0469,1.2969 3.297,1.8593 1.2501,0.5626 2.6288,1.133 4.1406,1.703 2.1132,0.8439 4.0546,1.6954 5.828,2.547 1.7697,0.8438 3.3009,1.8555 4.5938,3.0313 1.3008,1.1798 2.3049,2.5858 3.0158,4.2188 0.707,1.6248 1.0624,3.5898 1.0624,5.8904 0,4.2931 -1.5704,7.594 -4.7032,9.9065 -3.1366,2.3125 -7.5586,3.4688 -13.2656,3.4688 -1.9375,0 -3.7188,-0.1329 -5.3436,-0.3909 -1.6251,-0.2616 -3.0744,-0.57 -4.3438,-0.9218 -1.2736,-0.3515 -2.3712,-0.7265 -3.297,-1.1248 -0.9178,-0.4065 -1.6367,-0.7501 -2.1563,-1.0313 l 2.0625,-5.6562 c 1.0823,0.6171 2.7266,1.3045 4.9377,2.0625 2.2186,0.7497 4.9297,1.1248 8.1405,1.1248 z"
             style="fill:#ffffff;fill-rule:evenodd"
             id="path2" />
        </g>
      </g>
    </g>
    <g
       id="Layer1004">
      <g
         id="Layer1005">
        <g
           id="Layer1006">
          <path
             d="m 295.6527,370.2756 c 0,-4.1873 0.6171,-7.8826 1.8592,-11.0937 1.2501,-3.2071 2.9455,-5.8827 5.0939,-8.0311 2.1444,-2.1447 4.6446,-3.7579 7.4999,-4.8438 2.8517,-1.082 5.8827,-1.6251 9.0938,-1.6251 3.1561,0 6.1328,0.5431 8.9374,1.6251 2.8125,1.0859 5.2736,2.6991 7.3908,4.8438 2.1248,2.1484 3.8126,4.824 5.0623,8.0311 1.2501,3.2111 1.8752,6.9064 1.8752,11.0937 0,4.1992 -0.6251,7.9024 -1.8752,11.1095 -1.2497,3.2108 -2.9375,5.8867 -5.0623,8.0312 -2.1172,2.1483 -4.5783,3.7618 -7.3908,4.8438 -2.8046,1.082 -5.7813,1.6251 -8.9374,1.6251 -3.2111,0 -6.2421,-0.5431 -9.0938,-1.6251 -2.8553,-1.082 -5.3555,-2.6955 -7.4999,-4.8438 -2.1484,-2.1445 -3.8438,-4.8204 -5.0939,-8.0312 -1.2421,-3.2071 -1.8592,-6.9103 -1.8592,-11.1095 z m 7.2031,0 c 0,2.9806 0.375,5.6837 1.1251,8.1093 0.7577,2.4299 1.832,4.4924 3.2187,6.1878 1.3944,1.6991 3.0938,3.0076 5.0936,3.9217 2.0078,0.9179 4.2656,1.3751 6.7657,1.3751 2.4883,0 4.7225,-0.4572 6.7031,-1.3751 1.9882,-0.9141 3.6757,-2.2226 5.0624,-3.9217 1.3947,-1.6954 2.469,-3.7579 3.2187,-6.1878 0.758,-2.4256 1.1407,-5.1287 1.1407,-8.1093 0,-2.9687 -0.3827,-5.6639 -1.1407,-8.0938 -0.7497,-2.4256 -1.824,-4.4881 -3.2187,-6.1874 -1.3867,-1.6952 -3.0742,-3.0039 -5.0624,-3.9218 -1.9806,-0.9141 -4.2148,-1.3751 -6.7031,-1.3751 -2.5001,0 -4.7579,0.461 -6.7657,1.3751 -1.9998,0.9179 -3.6992,2.2266 -5.0936,3.9218 -1.3867,1.6993 -2.461,3.7618 -3.2187,6.1874 -0.7501,2.4299 -1.1251,5.1251 -1.1251,8.0938 z"
             style="fill:#ffffff;fill-rule:evenodd"
             id="path7" />
        </g>
      </g>
    </g>
    <g
       id="Layer1007">
      <g
         id="Layer1008">
        <g
           id="Layer1009">
          <path
             d="m 383.2058,388.885 v 5.9375 H 353.706 v -49.0156 h 6.8592 v 43.0781 z"
             style="fill:#ffffff;fill-rule:evenodd"
             id="path12" />
        </g>
      </g>
    </g>
    <g
       id="Layer1010">
      <g
         id="Layer1011">
        <g
           id="Layer1012">
          <path
             d="m 424.2229,394.8225 c -0.8048,-2.1249 -1.5588,-4.2069 -2.2658,-6.2498 -0.7109,-2.0509 -1.4374,-4.1409 -2.1875,-6.2657 h -22.2188 l -4.4529,12.5155 h -7.1408 c 1.8828,-5.1874 3.6485,-9.9842 5.2969,-14.3907 1.6562,-4.4061 3.2694,-8.5858 4.8438,-12.5467 1.582,-3.9688 3.1484,-7.7539 4.703,-11.3595 1.5627,-3.6014 3.1915,-7.1756 4.8909,-10.7187 h 6.2966 c 1.6954,3.5431 3.3205,7.1173 4.875,10.7187 1.5508,3.6056 3.1172,7.3907 4.7032,11.3595 1.582,3.9609 3.1952,8.1406 4.8439,12.5467 1.6443,4.4065 3.414,9.2033 5.3124,14.3907 z m -6.4375,-18.1718 c -1.5117,-4.1014 -3.0118,-8.0782 -4.5,-11.9219 -1.4805,-3.8438 -3.0234,-7.5311 -4.625,-11.0625 -1.6487,3.5314 -3.2151,7.2187 -4.7033,11.0625 -1.4805,3.8437 -2.9531,7.8205 -4.4217,11.9219 z"
             style="fill:#ffffff;fill-rule:evenodd"
             id="path17" />
        </g>
      </g>
    </g>
    <g
       id="Layer1013">
      <g
         id="Layer1014">
        <g
           id="Layer1015">
          <path
             d="m 463.4084,374.307 c 0.7498,0.9491 1.7031,2.1875 2.8593,3.7188 1.1563,1.5313 2.3437,3.2304 3.5626,5.0936 1.2266,1.8672 2.4412,3.8126 3.6406,5.8439 1.207,2.0233 2.2342,3.9764 3.0781,5.8592 h -7.4843 c -0.9493,-1.789 -1.9806,-3.6014 -3.0937,-5.4374 -1.1056,-1.8437 -2.2267,-3.5978 -3.3597,-5.2657 -1.1247,-1.6758 -2.2459,-3.2422 -3.3593,-4.7032 -1.1055,-1.4686 -2.1053,-2.742 -2.9999,-3.8279 -0.6055,0.0428 -1.2305,0.0623 -1.8751,0.0623 -0.6367,0 -1.2813,0 -1.9375,0 h -6.1563 v 19.1719 h -6.8593 v -48.2967 c 1.9375,-0.4768 4.0938,-0.7971 6.4687,-0.9533 2.3828,-0.1641 4.5666,-0.25 6.5469,-0.25 6.8828,0 12.1289,1.2968 15.7345,3.8908 3.6015,2.5937 5.4063,6.4607 5.4063,11.5937 0,3.2499 -0.8595,6.0313 -2.5781,8.3438 -1.719,2.3125 -4.25,4.0312 -7.5938,5.1562 z m -10.4062,-22.9688 c -2.918,0 -5.1562,0.0703 -6.719,0.2032 v 18.453 h 4.8906 c 2.3516,0 4.4728,-0.1131 6.3596,-0.3438 1.8827,-0.2382 3.4727,-0.6875 4.7656,-1.3437 1.3008,-0.6641 2.3045,-1.5976 3.0155,-2.7969 0.7072,-1.1954 1.0627,-2.789 1.0627,-4.7812 0,-1.832 -0.3555,-3.3594 -1.0627,-4.5782 -0.711,-1.2266 -1.6679,-2.1952 -2.8749,-2.9061 -1.1994,-0.707 -2.6093,-1.2031 -4.2344,-1.4845 -1.6249,-0.2812 -3.3594,-0.4218 -5.203,-0.4218 z"
             style="fill:#ffffff;fill-rule:evenodd"
             id="path22" />
        </g>
      </g>
    </g>
    <g
       id="Layer1016">
      <g
         id="Layer1017">
        <g
           id="Layer1018">
          <path
             d="m 484.9705,345.8069 h 6.8595 v 49.0156 h -6.8595 z"
             style="fill:#ffffff;fill-rule:evenodd"
             id="path27" />
        </g>
      </g>
    </g>
    <g
       id="Layer1019">
      <g
         id="Layer1020">
        <g
           id="Layer1021">
          <path
             d="m 516.4469,389.9475 c 7.164,0 10.7499,-2.4531 10.7499,-7.3593 0,-1.5078 -0.3204,-2.797 -0.9531,-3.8594 -0.6366,-1.0624 -1.5,-1.9766 -2.5937,-2.7499 -1.0859,-0.7812 -2.3241,-1.4533 -3.7187,-2.0157 -1.3867,-0.5624 -2.8556,-1.1291 -4.4062,-1.7031 -1.7932,-0.6134 -3.4923,-1.3048 -5.0939,-2.0781 -1.6055,-0.7812 -2.9962,-1.7033 -4.1717,-2.7657 -1.1798,-1.0624 -2.1095,-2.3202 -2.7969,-3.7812 -0.6798,-1.457 -1.0157,-3.2227 -1.0157,-5.2971 0,-4.2888 1.457,-7.6405 4.375,-10.0468 2.9256,-2.406 6.9571,-3.6093 12.0937,-3.6093 2.9687,0 5.6642,0.3203 8.0938,0.9532 2.4375,0.6367 4.2188,1.336 5.3439,2.0937 l -2.1875,5.578 c -0.9924,-0.6131 -2.465,-1.2109 -4.4221,-1.7968 -1.961,-0.5936 -4.2344,-0.8907 -6.8281,-0.8907 -1.3124,0 -2.539,0.1485 -3.672,0.4377 -1.1367,0.2812 -2.1328,0.703 -2.9843,1.2656 -0.8436,0.5624 -1.5157,1.2813 -2.0154,2.1561 -0.4924,0.875 -0.7345,1.9026 -0.7345,3.0781 0,1.3244 0.2577,2.4338 0.7812,3.3282 0.5196,0.8986 1.2501,1.6874 2.1875,2.3751 0.9454,0.6798 2.0469,1.2969 3.297,1.8593 1.2498,0.5626 2.6289,1.133 4.1406,1.703 2.1132,0.8439 4.0547,1.6954 5.828,2.547 1.7697,0.8438 3.301,1.8555 4.5938,3.0313 1.3009,1.1798 2.3046,2.5858 3.0155,4.2188 0.7073,1.6248 1.0627,3.5898 1.0627,5.8904 0,4.2931 -1.5703,7.594 -4.7032,9.9065 -3.1368,2.3125 -7.5586,3.4688 -13.2656,3.4688 -1.9375,0 -3.7187,-0.1329 -5.3438,-0.3909 -1.6249,-0.2616 -3.0742,-0.57 -4.3439,-0.9218 -1.2733,-0.3515 -2.3709,-0.7265 -3.2966,-1.1248 -0.9182,-0.4065 -1.6368,-0.7501 -2.1564,-1.0313 l 2.0625,-5.6562 c 1.082,0.6171 2.7267,1.3045 4.9374,2.0625 2.219,0.7497 4.9297,1.1248 8.1408,1.1248 z"
             style="fill:#ffffff;fill-rule:evenodd"
             id="path32" />
        </g>
      </g>
    </g>
    <g
       id="Layer1022">
      <g
         id="Layer1023">
        <g
           id="Layer1024">
          <path
             d="m 267.2787,430.3349 c -0.375,-0.6327 -0.8084,-1.3436 -1.2968,-2.1251 -0.4921,-0.7889 -1.0157,-1.6092 -1.5781,-2.4531 -0.5624,-0.8515 -1.1522,-1.7187 -1.7657,-2.5937 -0.6054,-0.8751 -1.2109,-1.7187 -1.8124,-2.5313 -0.5936,-0.8201 -1.1795,-1.5937 -1.7499,-2.3123 -0.5626,-0.7188 -1.0859,-1.3478 -1.5627,-1.8907 v 13.9062 h -2.4375 v -17.8282 h 1.9689 c 0.8124,0.8674 1.6759,1.8712 2.5937,3.0158 0.9142,1.1367 1.8204,2.3085 2.7187,3.5155 0.9063,1.211 1.7538,2.3984 2.547,3.5626 0.8008,1.1563 1.4726,2.1951 2.0157,3.1093 v -13.2032 h 2.4531 v 17.8282 z"
             style="fill:#ffffff;fill-rule:evenodd"
             id="path37" />
        </g>
      </g>
    </g>
    <g
       id="Layer1025">
      <g
         id="Layer1026">
        <g
           id="Layer1027">
          <path
             d="m 286.1626,430.3349 c -0.2931,-0.7696 -0.5703,-1.5233 -0.8283,-2.2657 -0.2616,-0.7498 -0.5272,-1.5078 -0.7968,-2.281 h -8.0782 l -1.6251,4.5467 h -2.5937 c 0.6877,-1.8827 1.3283,-3.6289 1.9219,-5.2344 0.6015,-1.6016 1.1914,-3.1249 1.7657,-4.5624 0.5819,-1.4374 1.1562,-2.8125 1.7186,-4.125 0.5627,-1.3127 1.1486,-2.6132 1.7657,-3.9064 h 2.297 c 0.6131,1.2932 1.203,2.5937 1.7657,3.9064 0.5703,1.3125 1.1443,2.6876 1.7186,4.125 0.5703,1.4375 1.1563,2.9608 1.7501,4.5624 0.6015,1.6055 1.2498,3.3517 1.9375,5.2344 z m -2.344,-6.6092 c -0.5544,-1.4885 -1.1015,-2.9299 -1.6404,-4.3283 -0.5431,-1.4062 -1.1015,-2.7498 -1.6719,-4.0311 -0.6054,1.2813 -1.1797,2.6249 -1.7189,4.0311 -0.5428,1.3984 -1.078,2.8398 -1.6092,4.3283 z"
             style="fill:#ffffff;fill-rule:evenodd"
             id="path42" />
        </g>
      </g>
    </g>
    <g
       id="Layer1028">
      <g
         id="Layer1029">
        <g
           id="Layer1030">
          <path
             d="m 300.4843,422.8818 c 0.2693,0.3438 0.6132,0.7968 1.0313,1.3595 0.4258,0.5544 0.8592,1.1679 1.2968,1.8436 0.4454,0.6798 0.8907,1.3868 1.3281,2.1249 0.4374,0.7305 0.8124,1.4377 1.125,2.1251 h -2.7343 c -0.3438,-0.6562 -0.7188,-1.3164 -1.125,-1.9842 -0.3986,-0.6642 -0.8048,-1.3008 -1.2189,-1.9063 -0.4062,-0.6134 -0.8124,-1.1877 -1.2186,-1.719 -0.3986,-0.5312 -0.7617,-0.9921 -1.0939,-1.3903 -0.2186,0.0232 -0.449,0.0311 -0.6874,0.0311 -0.2305,0 -0.4649,0 -0.7033,0 h -2.2343 v 6.9687 h -2.4843 v -17.5626 c 0.6954,-0.1757 1.4766,-0.2888 2.3437,-0.3435 0.8632,-0.0627 1.6563,-0.0939 2.3749,-0.0939 2.5078,0 4.422,0.4765 5.7345,1.4219 1.3124,0.9374 1.9686,2.3397 1.9686,4.2032 0,1.1874 -0.3203,2.2031 -0.953,3.0467 -0.625,0.8359 -1.5429,1.461 -2.7499,1.8751 z m -3.7814,-8.3594 c -1.0624,0 -1.8827,0.0272 -2.4531,0.0783 v 6.703 h 1.7813 c 0.8515,0 1.6251,-0.0391 2.3125,-0.125 0.6874,-0.0822 1.2657,-0.2423 1.7343,-0.4844 0.4688,-0.2384 0.8322,-0.5783 1.0938,-1.0157 0.2577,-0.4373 0.3907,-1.0156 0.3907,-1.7342 0,-0.6758 -0.133,-1.2345 -0.3907,-1.6719 -0.2616,-0.4453 -0.6094,-0.8008 -1.0468,-1.0627 -0.4377,-0.2576 -0.9533,-0.4374 -1.5469,-0.5312 -0.5859,-0.1015 -1.2109,-0.1562 -1.8751,-0.1562 z"
             style="fill:#ffffff;fill-rule:evenodd"
             id="path47" />
        </g>
      </g>
    </g>
    <g
       id="Layer1031">
      <g
         id="Layer1032">
        <g
           id="Layer1033">
          <path
             d="m 307.6662,421.4132 c 0,-1.5313 0.2265,-2.8792 0.6874,-4.0471 0.4572,-1.1639 1.0704,-2.1327 1.8439,-2.9063 0.7813,-0.7812 1.6915,-1.3672 2.7343,-1.7654 1.0392,-0.3946 2.1445,-0.5939 3.3126,-0.5939 1.1444,0 2.2266,0.1993 3.2499,0.5939 1.0197,0.3982 1.914,0.9842 2.6876,1.7654 0.7696,0.7736 1.3787,1.7424 1.828,2.9063 0.457,1.1679 0.6874,2.5158 0.6874,4.0471 0,1.5233 -0.2304,2.8669 -0.6874,4.0311 -0.4493,1.1679 -1.0584,2.1407 -1.828,2.922 -0.7736,0.7812 -1.6679,1.3711 -2.6876,1.7654 -1.0233,0.3946 -2.1055,0.5938 -3.2499,0.5938 -1.1681,0 -2.2734,-0.1992 -3.3126,-0.5938 -1.0428,-0.3943 -1.953,-0.9842 -2.7343,-1.7654 -0.7735,-0.7813 -1.3867,-1.7541 -1.8439,-2.922 -0.4609,-1.1642 -0.6874,-2.5078 -0.6874,-4.0311 z m 2.6249,0 c 0,1.0859 0.1329,2.0701 0.4065,2.9531 0.2812,0.8748 0.6718,1.6248 1.1718,2.2499 0.5077,0.6171 1.1288,1.0899 1.8593,1.4218 0.7265,0.3359 1.5468,0.5 2.4531,0.5 0.9141,0 1.7345,-0.1641 2.4531,-0.5 0.7188,-0.3319 1.3283,-0.8047 1.8283,-1.4218 0.5077,-0.6251 0.8983,-1.3751 1.1719,-2.2499 0.2812,-0.883 0.4218,-1.8672 0.4218,-2.9531 0,-1.0823 -0.1406,-2.0625 -0.4218,-2.9376 -0.2736,-0.883 -0.6642,-1.6327 -1.1719,-2.2501 -0.5,-0.6251 -1.1095,-1.1016 -1.8283,-1.4375 -0.7186,-0.3319 -1.539,-0.5 -2.4531,-0.5 -0.9063,0 -1.7266,0.1681 -2.4531,0.5 -0.7305,0.3359 -1.3516,0.8124 -1.8593,1.4375 -0.5,0.6174 -0.8906,1.3671 -1.1718,2.2501 -0.2736,0.8751 -0.4065,1.8553 -0.4065,2.9376 z"
             style="fill:#ffffff;fill-rule:evenodd"
             id="path52" />
        </g>
      </g>
    </g>
    <g
       id="Layer1034">
      <g
         id="Layer1035">
        <g
           id="Layer1036">
          <path
             d="m 343.4916,421.4132 c 0,1.5429 -0.2421,2.8865 -0.7186,4.0311 -0.4805,1.1367 -1.1562,2.0781 -2.0313,2.8281 -0.8751,0.7422 -1.9219,1.2969 -3.1408,1.6719 -1.2186,0.3671 -2.5585,0.5468 -4.0155,0.5468 -0.7189,0 -1.5118,-0.0312 -2.3749,-0.0938 -0.8674,-0.0624 -1.6486,-0.1758 -2.344,-0.3436 v -17.2814 c 0.6954,-0.1757 1.4766,-0.2888 2.344,-0.3435 0.8631,-0.0627 1.656,-0.0939 2.3749,-0.0939 1.457,0 2.7969,0.1874 4.0155,0.5624 1.2189,0.3674 2.2657,0.9221 3.1408,1.6719 0.8751,0.7424 1.5508,1.6838 2.0313,2.8281 0.4765,1.1367 0.7186,2.4767 0.7186,4.0159 z m -9.6874,6.8904 c 2.3632,0 4.1289,-0.6015 5.2968,-1.8125 1.1642,-1.2069 1.7501,-2.8984 1.7501,-5.0779 0,-2.1759 -0.5859,-3.8673 -1.7501,-5.0783 -1.1679,-1.207 -2.9336,-1.8125 -5.2968,-1.8125 -0.7109,0 -1.258,0.0116 -1.6407,0.0312 -0.3866,0.0119 -0.6562,0.0275 -0.8124,0.0471 v 13.625 c 0.1562,0.0232 0.4258,0.0428 0.8124,0.0623 0.3827,0.0117 0.9298,0.0156 1.6407,0.0156 z"
             style="fill:#ffffff;fill-rule:evenodd"
             id="path57" />
        </g>
      </g>
    </g>
    <g
       id="Layer1037">
      <g
         id="Layer1038">
        <g
           id="Layer1039">
          <path
             d="m 346.9272,421.4132 c 0,-1.5313 0.2265,-2.8792 0.6874,-4.0471 0.4569,-1.1639 1.0703,-2.1327 1.8436,-2.9063 0.7813,-0.7812 1.6915,-1.3672 2.7346,-1.7654 1.0389,-0.3946 2.1444,-0.5939 3.3123,-0.5939 1.1446,0 2.2266,0.1993 3.2502,0.5939 1.0193,0.3982 1.914,0.9842 2.6873,1.7654 0.7696,0.7736 1.379,1.7424 1.8283,2.9063 0.4569,1.1679 0.6874,2.5158 0.6874,4.0471 0,1.5233 -0.2305,2.8669 -0.6874,4.0311 -0.4493,1.1679 -1.0587,2.1407 -1.8283,2.922 -0.7733,0.7812 -1.668,1.3711 -2.6873,1.7654 -1.0236,0.3946 -2.1056,0.5938 -3.2502,0.5938 -1.1679,0 -2.2734,-0.1992 -3.3123,-0.5938 -1.0431,-0.3943 -1.9533,-0.9842 -2.7346,-1.7654 -0.7733,-0.7813 -1.3867,-1.7541 -1.8436,-2.922 -0.4609,-1.1642 -0.6874,-2.5078 -0.6874,-4.0311 z m 2.6249,0 c 0,1.0859 0.1329,2.0701 0.4062,2.9531 0.2812,0.8748 0.6718,1.6248 1.1718,2.2499 0.508,0.6171 1.129,1.0899 1.8595,1.4218 0.7266,0.3359 1.5469,0.5 2.4531,0.5 0.9139,0 1.7343,-0.1641 2.4531,-0.5 0.7186,-0.3319 1.3281,-0.8047 1.8281,-1.4218 0.508,-0.6251 0.8986,-1.3751 1.1718,-2.2499 0.2812,-0.883 0.4221,-1.8672 0.4221,-2.9531 0,-1.0823 -0.1409,-2.0625 -0.4221,-2.9376 -0.2732,-0.883 -0.6638,-1.6327 -1.1718,-2.2501 -0.5,-0.6251 -1.1095,-1.1016 -1.8281,-1.4375 -0.7188,-0.3319 -1.5392,-0.5 -2.4531,-0.5 -0.9062,0 -1.7265,0.1681 -2.4531,0.5 -0.7305,0.3359 -1.3515,0.8124 -1.8595,1.4375 -0.5,0.6174 -0.8906,1.3671 -1.1718,2.2501 -0.2733,0.8751 -0.4062,1.8553 -0.4062,2.9376 z"
             style="fill:#ffffff;fill-rule:evenodd"
             id="path62" />
        </g>
      </g>
    </g>
    <g
       id="Layer1040">
      <g
         id="Layer1041">
        <g
           id="Layer1042">
          <path
             d="m 377.862,418.2412 c -0.7189,2.3046 -1.4494,4.4337 -2.1875,6.3907 -0.7305,1.9491 -1.465,3.8514 -2.2031,5.703 h -2.5002 c -0.9062,-2.6249 -1.711,-5.3906 -2.4063,-8.297 -0.6874,-2.914 -1.336,-6.0936 -1.9375,-9.5312 h 2.6252 c 0.2381,1.3439 0.4841,2.6836 0.7341,4.0159 0.258,1.3356 0.5236,2.6328 0.7971,3.8905 0.2812,1.2617 0.5545,2.4687 0.828,3.6249 0.2812,1.1484 0.5664,2.2111 0.8595,3.1876 0.6874,-1.8008 1.4139,-3.7735 2.1875,-5.9219 0.7693,-2.1563 1.4882,-4.3829 2.1563,-6.6874 h 2.156 c 0.6642,2.3045 1.3947,4.5311 2.1875,6.6874 0.7892,2.1484 1.5313,4.1211 2.219,5.9219 0.2693,-0.957 0.5389,-2.0078 0.8124,-3.1564 0.2812,-1.1562 0.5508,-2.3632 0.8124,-3.6249 0.2696,-1.2577 0.5312,-2.5625 0.7813,-3.9062 0.2579,-1.3439 0.5079,-2.6875 0.75,-4.0314 h 2.5469 c -0.6171,3.4376 -1.2733,6.6172 -1.9686,9.5312 -0.6993,2.9064 -1.4925,5.6721 -2.3752,8.297 h -2.4999 c -0.75,-1.8516 -1.4845,-3.7539 -2.203,-5.703 -0.7189,-1.957 -1.4454,-4.0861 -2.1719,-6.3907 z"
             style="fill:#ffffff;fill-rule:evenodd"
             id="path67" />
        </g>
      </g>
    </g>
    <g
       id="Layer1043">
      <g
         id="Layer1044">
        <g
           id="Layer1045">
          <path
             d="m 392.476,430.3349 v -17.8282 h 10.8748 v 2.1407 h -8.3905 v 5.2969 h 7.4687 v 2.078 h -7.4687 v 6.1719 h 9.0311 v 2.1407 z"
             style="fill:#ffffff;fill-rule:evenodd"
             id="path72" />
        </g>
      </g>
    </g>
    <g
       id="Layer1046">
      <g
         id="Layer1047">
        <g
           id="Layer1048">
          <path
             d="m 423.0955,430.7255 c -1.2501,0 -2.3907,-0.2032 -3.422,-0.6094 -1.0312,-0.4139 -1.9179,-1.0193 -2.6563,-1.8125 -0.7302,-0.7889 -1.2969,-1.7657 -1.7031,-2.9219 -0.4062,-1.1563 -0.6091,-2.4764 -0.6091,-3.9685 0,-1.4885 0.2265,-2.8126 0.6874,-3.9688 0.4569,-1.1642 1.0703,-2.1407 1.8436,-2.922 0.7696,-0.7891 1.6643,-1.3907 2.6876,-1.7969 1.0312,-0.4141 2.1288,-0.625 3.2969,-0.625 0.7382,0 1.4063,0.0547 1.9999,0.1562 0.5938,0.1054 1.1095,0.2268 1.5468,0.3594 0.4377,0.1367 0.7892,0.2736 1.0628,0.4062 0.2692,0.1369 0.4569,0.2424 0.5623,0.3127 l -0.7188,2.0625 c -0.1562,-0.1018 -0.3827,-0.2109 -0.6718,-0.3283 -0.2928,-0.125 -0.6251,-0.2421 -1.0001,-0.3594 -0.3671,-0.125 -0.7656,-0.2225 -1.203,-0.2968 -0.4297,-0.0819 -0.8671,-0.125 -1.3125,-0.125 -0.9493,0 -1.8048,0.1641 -2.5625,0.4844 -0.75,0.3243 -1.3907,0.7969 -1.9219,1.4219 -0.5312,0.6171 -0.9374,1.3671 -1.2189,2.2499 -0.2812,0.875 -0.4218,1.8671 -0.4218,2.969 0,1.0624 0.125,2.031 0.3751,2.906 0.25,0.8751 0.6171,1.6251 1.1094,2.2502 0.5001,0.625 1.1172,1.1092 1.8593,1.453 0.75,0.3439 1.6251,0.5156 2.6252,0.5156 1.1443,0 2.0936,-0.117 2.8437,-0.3594 0.7577,-0.2381 1.328,-0.453 1.703,-0.6406 l 0.6407,2.0469 c -0.1171,0.0859 -0.3283,0.1953 -0.6407,0.3282 -0.3047,0.125 -0.6874,0.25 -1.1562,0.3751 -0.4609,0.1131 -1.0001,0.2109 -1.6251,0.2967 -0.6171,0.0939 -1.2813,0.1406 -1.9999,0.1406 z"
             style="fill:#ffffff;fill-rule:evenodd"
             id="path77" />
        </g>
      </g>
    </g>
    <g
       id="Layer1049">
      <g
         id="Layer1050">
        <g
           id="Layer1051">
          <path
             d="m 431.843,430.3349 v -17.8282 h 10.8748 v 2.1407 h -8.3906 v 5.2969 h 7.4688 v 2.078 h -7.4688 v 6.1719 h 9.0312 v 2.1407 z"
             style="fill:#ffffff;fill-rule:evenodd"
             id="path82" />
        </g>
      </g>
    </g>
    <g
       id="Layer1052">
      <g
         id="Layer1053">
        <g
           id="Layer1054">
          <path
             d="m 459.1899,430.3349 c -0.375,-0.6327 -0.8087,-1.3436 -1.2968,-2.1251 -0.4921,-0.7889 -1.0157,-1.6092 -1.5781,-2.4531 -0.5627,-0.8515 -1.1525,-1.7187 -1.7657,-2.5937 -0.6055,-0.8751 -1.2109,-1.7187 -1.8124,-2.5313 -0.5939,-0.8201 -1.1798,-1.5937 -1.7502,-2.3123 -0.5624,-0.7188 -1.0859,-1.3478 -1.5624,-1.8907 v 13.9062 h -2.4375 v -17.8282 h 1.9686 c 0.8127,0.8674 1.6759,1.8712 2.594,3.0158 0.9139,1.1367 1.8201,2.3085 2.7187,3.5155 0.9063,1.211 1.7538,2.3984 2.547,3.5626 0.8005,1.1563 1.4726,2.1951 2.0154,3.1093 v -13.2032 h 2.4531 v 17.8282 z"
             style="fill:#ffffff;fill-rule:evenodd"
             id="path87" />
        </g>
      </g>
    </g>
    <g
       id="Layer1055">
      <g
         id="Layer1056">
        <g
           id="Layer1057">
          <path
             d="m 478.0735,412.5067 v 2.1719 h -5.6092 v 15.6563 h -2.5002 v -15.6563 h -5.6095 v -2.1719 z"
             style="fill:#ffffff;fill-rule:evenodd"
             id="path92" />
        </g>
      </g>
    </g>
    <g
       id="Layer1058">
      <g
         id="Layer1059">
        <g
           id="Layer1060">
          <path
             d="m 489.8755,422.8818 c 0.2696,0.3438 0.6134,0.7968 1.0313,1.3595 0.4257,0.5544 0.8594,1.1679 1.2971,1.8436 0.445,0.6798 0.8904,1.3868 1.328,2.1249 0.4374,0.7305 0.8124,1.4377 1.1251,2.1251 h -2.7346 c -0.3435,-0.6562 -0.7186,-1.3164 -1.1248,-1.9842 -0.3985,-0.6642 -0.8047,-1.3008 -1.2189,-1.9063 -0.4062,-0.6134 -0.8124,-1.1877 -1.2186,-1.719 -0.3985,-0.5312 -0.7619,-0.9921 -1.0939,-1.3903 -0.2188,0.0232 -0.4493,0.0311 -0.6874,0.0311 -0.2304,0 -0.4648,0 -0.7032,0 h -2.2343 v 6.9687 h -2.4843 v -17.5626 c 0.6953,-0.1757 1.4766,-0.2888 2.3437,-0.3435 0.8631,-0.0627 1.6563,-0.0939 2.3749,-0.0939 2.5078,0 4.422,0.4765 5.7344,1.4219 1.3125,0.9374 1.9687,2.3397 1.9687,4.2032 0,1.1874 -0.3203,2.2031 -0.953,3.0467 -0.625,0.8359 -1.5429,1.461 -2.7502,1.8751 z m -3.7811,-8.3594 c -1.0624,0 -1.8828,0.0272 -2.4531,0.0783 v 6.703 h 1.7813 c 0.8515,0 1.6248,-0.0391 2.3125,-0.125 0.6874,-0.0822 1.2657,-0.2423 1.7342,-0.4844 0.4689,-0.2384 0.832,-0.5783 1.0939,-1.0157 0.2577,-0.4373 0.3906,-1.0156 0.3906,-1.7342 0,-0.6758 -0.1329,-1.2345 -0.3906,-1.6719 -0.2619,-0.4453 -0.6094,-0.8008 -1.0468,-1.0627 -0.4377,-0.2576 -0.9533,-0.4374 -1.5469,-0.5312 -0.5859,-0.1015 -1.2109,-0.1562 -1.8751,-0.1562 z"
             style="fill:#ffffff;fill-rule:evenodd"
             id="path97" />
        </g>
      </g>
    </g>
    <g
       id="Layer1061">
      <g
         id="Layer1062">
        <g
           id="Layer1063">
          <path
             d="m 504.417,430.7255 c -1.1679,0 -2.1796,-0.1797 -3.0311,-0.5312 -0.8555,-0.3634 -1.5588,-0.8594 -2.1096,-1.4845 -0.5547,-0.6327 -0.9649,-1.3787 -1.2342,-2.2342 -0.2619,-0.8516 -0.3909,-1.7813 -0.3909,-2.7814 v -11.1875 h 2.5002 v 10.9063 c 0,1.7813 0.3906,3.0781 1.1718,3.8906 0.7892,0.8047 1.8205,1.2033 3.0938,1.2033 0.633,0 1.2109,-0.0978 1.7345,-0.2971 0.5312,-0.1953 0.9842,-0.4998 1.3592,-0.9062 0.375,-0.4139 0.6602,-0.9414 0.8595,-1.5781 0.2069,-0.6446 0.3124,-1.4139 0.3124,-2.3125 v -10.9063 h 2.5001 v 11.1875 c 0,1.0001 -0.1369,1.9298 -0.4062,2.7814 -0.2619,0.8555 -0.6721,1.6015 -1.2345,2.2342 -0.5547,0.6251 -1.2577,1.1211 -2.1092,1.4845 -0.8439,0.3515 -1.8516,0.5312 -3.0158,0.5312 z"
             style="fill:#ffffff;fill-rule:evenodd"
             id="path102" />
        </g>
      </g>
    </g>
    <g
       id="Layer1064">
      <g
         id="Layer1065">
        <g
           id="Layer1066">
          <path
             d="m 523.9284,427.8662 c -0.1681,-0.4141 -0.3906,-0.9377 -0.6718,-1.5624 -0.2812,-0.633 -0.5899,-1.3204 -0.9218,-2.0625 -0.3243,-0.7384 -0.6721,-1.5001 -1.0471,-2.2813 -0.3671,-0.7813 -0.711,-1.5157 -1.0313,-2.2031 -0.324,-0.6954 -0.6327,-1.3164 -0.9218,-1.8595 -0.2812,-0.5508 -0.5077,-0.9726 -0.6718,-1.2657 -0.1874,2.0236 -0.3439,4.2148 -0.4689,6.5783 -0.117,2.3554 -0.2146,4.7305 -0.2968,7.1249 h -2.4531 c 0.0703,-1.5392 0.1486,-3.0937 0.2345,-4.6562 0.0819,-1.5704 0.1797,-3.1172 0.2967,-4.6406 0.1134,-1.5196 0.2345,-3.0001 0.3595,-4.4376 0.125,-1.4374 0.2656,-2.8006 0.4218,-4.0938 h 2.1875 c 0.4688,0.7617 0.9689,1.6563 1.5001,2.6875 0.5312,1.0236 1.0624,2.0937 1.5936,3.2188 0.5312,1.125 1.0392,2.2501 1.5313,3.3749 0.5,1.1251 0.957,2.1487 1.3751,3.0626 0.4062,-0.9139 0.8594,-1.9375 1.3595,-3.0626 0.4997,-1.1248 1.0153,-2.2499 1.5468,-3.3749 0.5312,-1.1251 1.0625,-2.1952 1.5937,-3.2188 0.5312,-1.0312 1.0233,-1.9258 1.4842,-2.6875 h 2.1875 c 0.5822,5.7501 1.0196,11.6955 1.3127,17.8282 h -2.4375 c -0.0938,-2.3944 -0.2033,-4.7695 -0.3283,-7.1249 -0.117,-2.3635 -0.2656,-4.5547 -0.4529,-6.5783 -0.1681,0.2931 -0.3986,0.7149 -0.6877,1.2657 -0.2812,0.5431 -0.5859,1.1641 -0.9063,1.8595 -0.3242,0.6874 -0.6718,1.4218 -1.0468,2.2031 -0.3671,0.7812 -0.7109,1.5429 -1.0312,2.2813 -0.3243,0.7421 -0.6327,1.4295 -0.9219,2.0625 -0.2812,0.6247 -0.5079,1.1483 -0.6718,1.5624 z"
             style="fill:#ffffff;fill-rule:evenodd"
             id="path107" />
        </g>
      </g>
    </g>
    <g
       id="Layer1067">
      <g
         id="Layer1068">
        <g
           id="Layer1069">
          <path
             d="m 259.7944,443.0849 c 2.5078,0 4.4377,0.4805 5.7813,1.4374 1.3439,0.9494 2.0157,2.3672 2.0157,4.25 0,1.0236 -0.1877,1.8987 -0.5627,2.6252 -0.3671,0.7305 -0.8983,1.324 -1.5936,1.7813 -0.6874,0.449 -1.5313,0.7772 -2.5314,0.9842 -0.9921,0.2109 -2.1092,0.3126 -3.3593,0.3126 h -1.9842 v 6.6093 h -2.4846 v -17.5623 c 0.6953,-0.1761 1.4766,-0.2892 2.344,-0.3439 0.8631,-0.0626 1.6562,-0.0938 2.3748,-0.0938 z m 0.2189,2.1875 c -1.0625,0 -1.8828,0.0275 -2.4531,0.0782 v 6.9843 h 1.8748 c 0.8634,0 1.633,-0.0507 2.3125,-0.1562 0.6877,-0.1134 1.2657,-0.3007 1.7345,-0.5627 0.4765,-0.2693 0.8436,-0.6327 1.0936,-1.0936 0.258,-0.4688 0.3906,-1.0624 0.3906,-1.7813 0,-0.6874 -0.1366,-1.2537 -0.4062,-1.703 -0.2616,-0.4453 -0.621,-0.8008 -1.078,-1.0624 -0.4493,-0.2696 -0.9765,-0.4533 -1.578,-0.5471 -0.5939,-0.1015 -1.2266,-0.1562 -1.8907,-0.1562 z"
             style="fill:#ffffff;fill-rule:evenodd"
             id="path112" />
        </g>
      </g>
    </g>
    <g
       id="Layer1070">
      <g
         id="Layer1071">
        <g
           id="Layer1072">
          <path
             d="m 279.4266,453.6317 c 0.2696,0.3439 0.6134,0.7969 1.0313,1.3595 0.4257,0.5548 0.8594,1.1679 1.2971,1.8437 0.445,0.6797 0.8904,1.3867 1.328,2.1251 0.4374,0.7305 0.8124,1.4375 1.1251,2.1249 h -2.7346 c -0.3435,-0.6562 -0.7186,-1.3164 -1.1248,-1.9843 -0.3985,-0.6641 -0.8047,-1.3008 -1.2189,-1.9063 -0.4062,-0.6134 -0.8124,-1.1874 -1.2186,-1.7189 -0.3985,-0.5312 -0.7619,-0.9921 -1.0939,-1.3904 -0.2188,0.0233 -0.4493,0.0312 -0.6874,0.0312 -0.2304,0 -0.4649,0 -0.7033,0 h -2.2342 v 6.9687 h -2.4843 v -17.5623 c 0.695,-0.1761 1.4766,-0.2892 2.3437,-0.3439 0.8631,-0.0626 1.6563,-0.0938 2.3748,-0.0938 2.5079,0 4.4221,0.4765 5.7345,1.4218 1.3125,0.9375 1.9687,2.34 1.9687,4.2033 0,1.1874 -0.3203,2.203 -0.953,3.0469 -0.6251,0.836 -1.5429,1.4607 -2.7502,1.8748 z m -3.7811,-8.3593 c -1.0624,0 -1.8828,0.0275 -2.4531,0.0782 v 6.7031 h 1.7813 c 0.8515,0 1.6248,-0.0391 2.3125,-0.125 0.6874,-0.0819 1.2656,-0.2421 1.7342,-0.4844 0.4689,-0.2382 0.832,-0.578 1.0939,-1.0157 0.2577,-0.4374 0.3906,-1.0157 0.3906,-1.7342 0,-0.6758 -0.1329,-1.2345 -0.3906,-1.6719 -0.2619,-0.4453 -0.6094,-0.8008 -1.0468,-1.0627 -0.4377,-0.2577 -0.9533,-0.4374 -1.5469,-0.5312 -0.5859,-0.1015 -1.211,-0.1562 -1.8751,-0.1562 z"
             style="fill:#ffffff;fill-rule:evenodd"
             id="path117" />
        </g>
      </g>
    </g>
    <g
       id="Layer1073">
      <g
         id="Layer1074">
        <g
           id="Layer1075">
          <path
             d="m 286.1459,452.1631 c 0,-1.5313 0.2264,-2.8788 0.6874,-4.047 0.4569,-1.1639 1.0703,-2.1328 1.8436,-2.9061 0.7815,-0.7812 1.6914,-1.3671 2.7346,-1.7657 1.0389,-0.3946 2.1444,-0.5938 3.3123,-0.5938 1.1446,0 2.2266,0.1992 3.2502,0.5938 1.0193,0.3986 1.9139,0.9845 2.6875,1.7657 0.7693,0.7733 1.3788,1.7422 1.8281,2.9061 0.4569,1.1682 0.6874,2.5157 0.6874,4.047 0,1.5234 -0.2305,2.8673 -0.6874,4.0312 -0.4493,1.1678 -1.0588,2.1407 -1.8281,2.9219 -0.7736,0.7812 -1.6682,1.3711 -2.6875,1.7657 -1.0236,0.3943 -2.1056,0.5936 -3.2502,0.5936 -1.1679,0 -2.2734,-0.1993 -3.3123,-0.5936 -1.0432,-0.3946 -1.9531,-0.9845 -2.7346,-1.7657 -0.7733,-0.7812 -1.3867,-1.7541 -1.8436,-2.9219 -0.461,-1.1639 -0.6874,-2.5078 -0.6874,-4.0312 z m 2.6248,0 c 0,1.086 0.133,2.0702 0.4062,2.9532 0.2815,0.875 0.6721,1.6248 1.1719,2.2498 0.508,0.6171 1.129,1.0899 1.8595,1.4219 0.7265,0.3359 1.5469,0.5 2.4531,0.5 0.9142,0 1.7343,-0.1641 2.4531,-0.5 0.7189,-0.332 1.3281,-0.8048 1.8281,-1.4219 0.508,-0.625 0.8986,-1.3748 1.1718,-2.2498 0.2815,-0.883 0.4221,-1.8672 0.4221,-2.9532 0,-1.082 -0.1406,-2.0625 -0.4221,-2.9375 -0.2732,-0.8827 -0.6638,-1.6328 -1.1718,-2.2502 -0.5,-0.6247 -1.1092,-1.1015 -1.8281,-1.4374 -0.7188,-0.332 -1.5389,-0.5 -2.4531,-0.5 -0.9062,0 -1.7266,0.168 -2.4531,0.5 -0.7305,0.3359 -1.3515,0.8127 -1.8595,1.4374 -0.4998,0.6174 -0.8904,1.3675 -1.1719,2.2502 -0.2732,0.875 -0.4062,1.8555 -0.4062,2.9375 z"
             style="fill:#ffffff;fill-rule:evenodd"
             id="path122" />
        </g>
      </g>
    </g>
    <g
       id="Layer1076">
      <g
         id="Layer1077">
        <g
           id="Layer1078">
          <path
             d="m 314.8676,458.6162 c -0.1678,-0.4142 -0.3906,-0.9374 -0.6718,-1.5625 -0.2812,-0.6329 -0.5899,-1.3203 -0.9218,-2.0625 -0.3243,-0.7384 -0.6721,-1.5001 -1.0469,-2.2813 -0.3673,-0.7812 -0.7109,-1.5157 -1.0312,-2.2031 -0.3243,-0.6953 -0.633,-1.3164 -0.9221,-1.8595 -0.2812,-0.5508 -0.5077,-0.9726 -0.6718,-1.2654 -0.1874,2.0234 -0.3439,4.2149 -0.4689,6.5781 -0.117,2.3553 -0.2145,4.7305 -0.2968,7.1249 h -2.4531 c 0.0703,-1.5389 0.1486,-3.0938 0.2345,-4.6562 0.0819,-1.5704 0.1797,-3.1173 0.2968,-4.6406 0.1133,-1.5197 0.2344,-3.0002 0.3594,-4.4376 0.125,-1.4375 0.2656,-2.8007 0.4218,-4.0938 h 2.1875 c 0.4688,0.7619 0.9689,1.6562 1.5001,2.6875 0.5312,1.0236 1.0624,2.0939 1.5936,3.2187 0.5315,1.1251 1.0392,2.2502 1.5313,3.3752 0.5,1.1248 0.957,2.1484 1.3751,3.0623 0.4062,-0.9139 0.8594,-1.9375 1.3595,-3.0623 0.4997,-1.125 1.0153,-2.2501 1.5468,-3.3752 0.5313,-1.1248 1.0625,-2.1951 1.5937,-3.2187 0.5312,-1.0313 1.0233,-1.9256 1.4845,-2.6875 h 2.1875 c 0.5819,5.75 1.0193,11.6954 1.3124,17.8282 h -2.4375 c -0.0938,-2.3944 -0.2032,-4.7696 -0.3282,-7.1249 -0.1171,-2.3632 -0.2657,-4.5547 -0.453,-6.5781 -0.1681,0.2928 -0.3986,0.7146 -0.6877,1.2654 -0.2812,0.5431 -0.5859,1.1642 -0.9062,1.8595 -0.324,0.6874 -0.6719,1.4219 -1.0469,2.2031 -0.3671,0.7812 -0.7109,1.5429 -1.0312,2.2813 -0.3243,0.7422 -0.6327,1.4296 -0.9219,2.0625 -0.2811,0.6251 -0.5076,1.1483 -0.6718,1.5625 z"
             style="fill:#ffffff;fill-rule:evenodd"
             id="path127" />
        </g>
      </g>
    </g>
    <g
       id="Layer1079">
      <g
         id="Layer1080">
        <g
           id="Layer1081">
          <path
             d="m 329.2775,443.2567 h 2.4843 v 17.8282 h -2.4843 z"
             style="fill:#ffffff;fill-rule:evenodd"
             id="path132" />
        </g>
      </g>
    </g>
    <g
       id="Layer1082">
      <g
         id="Layer1083">
        <g
           id="Layer1084">
          <path
             d="m 336.1938,461.0849 v -17.8282 h 10.8748 v 2.1407 h -8.3905 v 5.2968 h 7.4687 v 2.0781 h -7.4687 v 6.1719 h 9.0312 v 2.1407 z"
             style="fill:#ffffff;fill-rule:evenodd"
             id="path137" />
        </g>
      </g>
    </g>
    <g
       id="Layer1085">
      <g
         id="Layer1086">
        <g
           id="Layer1087">
          <path
             d="m 363.0779,461.0849 c -0.3751,-0.6327 -0.8088,-1.3436 -1.2969,-2.1249 -0.4924,-0.7891 -1.0156,-1.6095 -1.578,-2.4531 -0.5627,-0.8518 -1.1526,-1.7189 -1.7657,-2.594 -0.6055,-0.8747 -1.211,-1.7186 -1.8125,-2.531 -0.5939,-0.8204 -1.1798,-1.5939 -1.7501,-2.3125 -0.5624,-0.7189 -1.086,-1.3479 -1.5625,-1.8907 v 13.9062 h -2.4375 v -17.8282 h 1.9687 c 0.8127,0.8674 1.6758,1.8711 2.5937,3.0157 0.9141,1.1367 1.8204,2.3086 2.719,3.5156 0.9062,1.2109 1.7538,2.3984 2.5466,3.5626 0.8008,1.1562 1.4729,2.1954 2.0157,3.1093 v -13.2032 h 2.4531 v 17.8282 z"
             style="fill:#ffffff;fill-rule:evenodd"
             id="path142" />
        </g>
      </g>
    </g>
    <g
       id="Layer1088">
      <g
         id="Layer1089">
        <g
           id="Layer1090">
          <path
             d="m 369.5922,443.2567 h 2.4845 v 17.8282 h -2.4845 z"
             style="fill:#ffffff;fill-rule:evenodd"
             id="path147" />
        </g>
      </g>
    </g>
    <g
       id="Layer1091">
      <g
         id="Layer1092">
        <g
           id="Layer1093">
          <path
             d="m 375.7742,452.1631 c 0,-1.5313 0.2265,-2.8788 0.6874,-4.047 0.457,-1.1639 1.0704,-2.1328 1.8437,-2.9061 0.7812,-0.7812 1.6914,-1.3671 2.7346,-1.7657 1.0389,-0.3946 2.1444,-0.5938 3.3123,-0.5938 1.1446,0 2.2266,0.1992 3.2502,0.5938 1.0193,0.3986 1.9139,0.9845 2.6875,1.7657 0.7693,0.7733 1.3788,1.7422 1.8281,2.9061 0.4569,1.1682 0.6874,2.5157 0.6874,4.047 0,1.5234 -0.2305,2.8673 -0.6874,4.0312 -0.4493,1.1678 -1.0588,2.1407 -1.8281,2.9219 -0.7736,0.7812 -1.6682,1.3711 -2.6875,1.7657 -1.0236,0.3943 -2.1056,0.5936 -3.2502,0.5936 -1.1679,0 -2.2734,-0.1993 -3.3123,-0.5936 -1.0432,-0.3946 -1.9534,-0.9845 -2.7346,-1.7657 -0.7733,-0.7812 -1.3867,-1.7541 -1.8437,-2.9219 -0.4609,-1.1639 -0.6874,-2.5078 -0.6874,-4.0312 z m 2.6249,0 c 0,1.086 0.133,2.0702 0.4062,2.9532 0.2812,0.875 0.6718,1.6248 1.1719,2.2498 0.5079,0.6171 1.129,1.0899 1.8595,1.4219 0.7265,0.3359 1.5469,0.5 2.4531,0.5 0.9142,0 1.7342,-0.1641 2.4531,-0.5 0.7189,-0.332 1.328,-0.8048 1.8281,-1.4219 0.5079,-0.625 0.8985,-1.3748 1.1718,-2.2498 0.2812,-0.883 0.4221,-1.8672 0.4221,-2.9532 0,-1.082 -0.1409,-2.0625 -0.4221,-2.9375 -0.2733,-0.8827 -0.6639,-1.6328 -1.1718,-2.2502 -0.5001,-0.6247 -1.1092,-1.1015 -1.8281,-1.4374 -0.7189,-0.332 -1.5389,-0.5 -2.4531,-0.5 -0.9062,0 -1.7266,0.168 -2.4531,0.5 -0.7305,0.3359 -1.3516,0.8127 -1.8595,1.4374 -0.5001,0.6174 -0.8907,1.3675 -1.1719,2.2502 -0.2732,0.875 -0.4062,1.8555 -0.4062,2.9375 z"
             style="fill:#ffffff;fill-rule:evenodd"
             id="path152" />
        </g>
      </g>
    </g>
    <g
       id="Layer1094">
      <g
         id="Layer1095">
        <g
           id="Layer1096">
          <path
             d="m 406.2461,448.9911 c -0.7189,2.3046 -1.4493,4.4337 -2.1875,6.3908 -0.7305,1.9491 -1.4649,3.8514 -2.2034,5.703 h -2.4998 c -0.9063,-2.6249 -1.711,-5.3907 -2.4064,-8.2967 -0.6874,-2.9143 -1.3359,-6.094 -1.9374,-9.5315 h 2.6251 c 0.2381,1.3439 0.4842,2.6838 0.7342,4.0158 0.258,1.336 0.5236,2.6328 0.7971,3.8906 0.2812,1.2617 0.5545,2.4686 0.828,3.6249 0.2812,1.1486 0.5664,2.211 0.8595,3.1876 0.6874,-1.8009 1.4139,-3.7735 2.1875,-5.9219 0.7693,-2.1563 1.4881,-4.3829 2.156,-6.6875 h 2.1563 c 0.6642,2.3046 1.3947,4.5312 2.1875,6.6875 0.7892,2.1484 1.5313,4.121 2.219,5.9219 0.2693,-0.957 0.5388,-2.0078 0.8124,-3.1564 0.2812,-1.1563 0.5507,-2.3633 0.8124,-3.625 0.2696,-1.2577 0.5312,-2.5625 0.7812,-3.9061 0.258,-1.3439 0.508,-2.6875 0.7501,-4.0314 h 2.5469 c -0.6171,3.4375 -1.2736,6.6172 -1.9687,9.5315 -0.6993,2.906 -1.4924,5.6718 -2.3751,8.2967 h -2.4999 c -0.75,-1.8516 -1.4845,-3.7539 -2.2031,-5.703 -0.7189,-1.9571 -1.4454,-4.0862 -2.1719,-6.3908 z"
             style="fill:#ffffff;fill-rule:evenodd"
             id="path157" />
        </g>
      </g>
    </g>
    <g
       id="Layer1097">
      <g
         id="Layer1098">
        <g
           id="Layer1099">
          <path
             d="m 432.3033,461.0849 c -0.2928,-0.7696 -0.5703,-1.5234 -0.828,-2.2658 -0.2619,-0.7497 -0.5275,-1.5077 -0.7968,-2.281 h -8.0782 l -1.6251,4.5468 h -2.5937 c 0.6874,-1.8828 1.328,-3.6289 1.9219,-5.2345 0.6015,-1.6015 1.1914,-3.1249 1.7657,-4.5623 0.582,-1.4375 1.1563,-2.8126 1.7186,-4.125 0.5624,-1.3125 1.1484,-2.6133 1.7657,-3.9064 h 2.297 c 0.6131,1.2931 1.203,2.5939 1.7654,3.9064 0.5703,1.3124 1.1446,2.6875 1.7189,4.125 0.5703,1.4374 1.1563,2.9608 1.7498,4.5623 0.6015,1.6056 1.2501,3.3517 1.9375,5.2345 z m -2.3437,-6.6093 c -0.5547,-1.4885 -1.1015,-2.9299 -1.6407,-4.3282 -0.5428,-1.4063 -1.1015,-2.7499 -1.6718,-4.0311 -0.6055,1.2812 -1.1798,2.6248 -1.7187,4.0311 -0.5431,1.3983 -1.0783,2.8397 -1.6095,4.3282 z"
             style="fill:#ffffff;fill-rule:evenodd"
             id="path162" />
        </g>
      </g>
    </g>
    <g
       id="Layer1100">
      <g
         id="Layer1101">
        <g
           id="Layer1102">
          <path
             d="m 449.6465,461.0849 c -0.375,-0.6327 -0.8084,-1.3436 -1.2968,-2.1249 -0.4921,-0.7891 -1.0157,-1.6095 -1.5781,-2.4531 -0.5627,-0.8518 -1.1523,-1.7189 -1.7657,-2.594 -0.6055,-0.8747 -1.2109,-1.7186 -1.8125,-2.531 -0.5938,-0.8204 -1.1797,-1.5939 -1.7501,-2.3125 -0.5624,-0.7189 -1.0859,-1.3479 -1.5624,-1.8907 v 13.9062 h -2.4375 v -17.8282 h 1.9689 c 0.8124,0.8674 1.6756,1.8711 2.5937,3.0157 0.9139,1.1367 1.8201,2.3086 2.7187,3.5156 0.9063,1.2109 1.7538,2.3984 2.547,3.5626 0.8007,1.1562 1.4726,2.1954 2.0154,3.1093 v -13.2032 h 2.4531 v 17.8282 z"
             style="fill:#ffffff;fill-rule:evenodd"
             id="path167" />
        </g>
      </g>
    </g>
    <g
       id="Layer1103">
      <g
         id="Layer1104">
        <g
           id="Layer1105">
          <path
             d="m 456.1611,443.2567 h 2.4843 v 17.8282 h -2.4843 z"
             style="fill:#ffffff;fill-rule:evenodd"
             id="path172" />
        </g>
      </g>
    </g>
    <g
       id="Layer1106">
      <g
         id="Layer1107">
        <g
           id="Layer1108">
          <path
             d="m 474.9834,461.0849 c -0.2928,-0.7696 -0.5703,-1.5234 -0.828,-2.2658 -0.2616,-0.7497 -0.5275,-1.5077 -0.7968,-2.281 h -8.0782 l -1.6251,4.5468 h -2.5937 c 0.6874,-1.8828 1.3281,-3.6289 1.9219,-5.2345 0.6015,-1.6015 1.1914,-3.1249 1.7657,-4.5623 0.582,-1.4375 1.1563,-2.8126 1.7187,-4.125 0.5624,-1.3125 1.1483,-2.6133 1.7657,-3.9064 h 2.2969 c 0.6131,1.2931 1.203,2.5939 1.7654,3.9064 0.5703,1.3124 1.1446,2.6875 1.7189,4.125 0.5704,1.4374 1.1563,2.9608 1.7499,4.5623 0.6015,1.6056 1.25,3.3517 1.9374,5.2345 z m -2.3437,-6.6093 c -0.5547,-1.4885 -1.1015,-2.9299 -1.6406,-4.3282 -0.5429,-1.4063 -1.1016,-2.7499 -1.6719,-4.0311 -0.6055,1.2812 -1.1795,2.6248 -1.7187,4.0311 -0.5431,1.3983 -1.0783,2.8397 -1.6095,4.3282 z"
             style="fill:#ffffff;fill-rule:evenodd"
             id="path177" />
        </g>
      </g>
    </g>
    <g
       id="Layer1109">
      <g
         id="Layer1110">
        <g
           id="Layer1111">
          <path
             d="m 259.2164,490.0535 c 2.6014,0 3.9062,-0.8906 3.9062,-2.6716 0,-0.5392 -0.1211,-1.004 -0.3595,-1.3907 -0.2304,-0.3829 -0.5428,-0.7189 -0.9374,-1.0001 -0.3866,-0.2891 -0.8359,-0.5351 -1.3436,-0.7344 -0.5119,-0.2069 -1.0471,-0.4139 -1.6095,-0.625 -0.6486,-0.2186 -1.2617,-0.4686 -1.8437,-0.7498 -0.5859,-0.2891 -1.0938,-0.629 -1.5312,-1.0157 -0.4298,-0.3829 -0.7657,-0.8438 -1.0157,-1.3751 -0.2423,-0.5312 -0.3594,-1.1718 -0.3594,-1.9218 0,-1.5625 0.5312,-2.7814 1.5936,-3.6562 1.0627,-0.875 2.5237,-1.3127 4.3909,-1.3127 1.082,0 2.0625,0.1174 2.9372,0.3439 0.883,0.2304 1.5353,0.4844 1.9534,0.7656 l -0.7971,2.0313 c -0.3671,-0.2265 -0.9023,-0.4453 -1.6092,-0.6562 -0.711,-0.2189 -1.5392,-0.3283 -2.4843,-0.3283 -0.4805,0 -0.9298,0.0547 -1.3439,0.1562 -0.4062,0.1057 -0.7657,0.2619 -1.078,0.4689 -0.3048,0.2109 -0.5468,0.4688 -0.7345,0.7812 -0.1797,0.3127 -0.2656,0.6877 -0.2656,1.1251 0,0.4804 0.0938,0.8827 0.2812,1.203 0.1877,0.3243 0.4533,0.6094 0.7968,0.8595 0.3439,0.25 0.7424,0.4804 1.2033,0.6874 0.457,0.1992 0.957,0.4025 1.4998,0.6094 0.7696,0.3124 1.4766,0.625 2.1252,0.9374 0.6446,0.3047 1.203,0.6681 1.6718,1.0939 0.4689,0.4297 0.832,0.9374 1.0937,1.5313 0.2579,0.5936 0.3906,1.3124 0.3906,2.1563 0,1.5545 -0.5741,2.7499 -1.7187,3.5935 -1.1367,0.8439 -2.7422,1.2656 -4.8124,1.2656 -0.7109,0 -1.3595,-0.0467 -1.9533,-0.1405 -0.5859,-0.0939 -1.1092,-0.203 -1.5781,-0.328 -0.4609,-0.133 -0.8591,-0.2736 -1.203,-0.4221 -0.3359,-0.1443 -0.5938,-0.2693 -0.7812,-0.375 l 0.75,-2.0625 c 0.3943,0.2304 0.9922,0.4805 1.7969,0.75 0.8124,0.2736 1.8006,0.4062 2.9687,0.4062 z"
             style="fill:#ffffff;fill-rule:evenodd"
             id="path182" />
        </g>
      </g>
    </g>
    <g
       id="Layer1112">
      <g
         id="Layer1113">
        <g
           id="Layer1114">
          <path
             d="m 272.9883,491.8348 v -7.156 c -1.1798,-1.8321 -2.293,-3.6408 -3.3438,-5.4221 -1.0428,-1.781 -2.0273,-3.5312 -2.9531,-5.2498 h 2.9375 c 0.6446,1.4063 1.3672,2.8358 2.172,4.2812 0.8124,1.449 1.6443,2.8437 2.4998,4.1873 0.8439,-1.3436 1.6642,-2.7383 2.469,-4.1873 0.8008,-1.4454 1.5389,-2.8749 2.2187,-4.2812 h 2.7655 c -0.9179,1.7186 -1.9024,3.4688 -2.9532,5.2498 -1.0428,1.7736 -2.1484,3.5625 -3.3123,5.375 v 7.2031 z"
             style="fill:#ffffff;fill-rule:evenodd"
             id="path187" />
        </g>
      </g>
    </g>
    <g
       id="Layer1115">
      <g
         id="Layer1116">
        <g
           id="Layer1117">
          <path
             d="m 296.3322,491.8348 c -0.3751,-0.6327 -0.8085,-1.3436 -1.2969,-2.1248 -0.4921,-0.7892 -1.0156,-1.6095 -1.578,-2.4531 -0.5627,-0.8515 -1.1523,-1.7189 -1.7657,-2.594 -0.6055,-0.8748 -1.211,-1.7186 -1.8125,-2.5311 -0.5939,-0.8203 -1.1798,-1.5939 -1.7501,-2.3125 -0.5624,-0.7188 -1.086,-1.3476 -1.5625,-1.8907 v 13.9062 h -2.4375 v -17.8279 h 1.969 c 0.8124,0.8671 1.6755,1.8709 2.5937,3.0155 0.9138,1.1367 1.8201,2.3085 2.7187,3.5155 0.9062,1.211 1.7538,2.3987 2.5469,3.5626 0.8008,1.1563 1.4726,2.1954 2.0154,3.1093 v -13.2029 h 2.4531 v 17.8279 z"
             style="fill:#ffffff;fill-rule:evenodd"
             id="path192" />
        </g>
      </g>
    </g>
    <g
       id="Layer1118">
      <g
         id="Layer1119">
        <g
           id="Layer1120">
          <path
             d="m 310.5028,492.2254 c -1.25,0 -2.3904,-0.2029 -3.4217,-0.6091 -1.0312,-0.4142 -1.9182,-1.0196 -2.6563,-1.8128 -0.7305,-0.7889 -1.2969,-1.7654 -1.7031,-2.9216 -0.4062,-1.1563 -0.6094,-2.4767 -0.6094,-3.9688 0,-1.4882 0.2265,-2.8126 0.6874,-3.9688 0.4572,-1.1642 1.0703,-2.1407 1.8439,-2.922 0.7693,-0.7889 1.664,-1.3906 2.6875,-1.7969 1.0313,-0.4138 2.1289,-0.625 3.2967,-0.625 0.7385,0 1.4063,0.0547 2.0002,0.1565 0.5935,0.1054 1.1092,0.2265 1.5468,0.3591 0.4374,0.1369 0.7889,0.2736 1.0625,0.4065 0.2695,0.1366 0.4569,0.2421 0.5624,0.3124 l -0.7186,2.0625 c -0.1562,-0.1015 -0.383,-0.2109 -0.6718,-0.328 -0.2931,-0.125 -0.6251,-0.2423 -1.0001,-0.3594 -0.3674,-0.125 -0.7656,-0.2228 -1.2033,-0.2971 -0.4295,-0.0819 -0.8671,-0.125 -1.3125,-0.125 -0.949,0 -1.8045,0.1641 -2.5625,0.4844 -0.75,0.3243 -1.3904,0.7969 -1.9219,1.4219 -0.5312,0.6174 -0.9374,1.3672 -1.2186,2.2501 -0.2812,0.8751 -0.4218,1.8672 -0.4218,2.9688 0,1.0624 0.125,2.0313 0.3751,2.906 0.2497,0.8751 0.6171,1.6252 1.1092,2.2502 0.5,0.625 1.1171,1.1095 1.8595,1.453 0.7497,0.3439 1.6248,0.5157 2.6249,0.5157 1.1446,0 2.0936,-0.1171 2.8437,-0.3592 0.758,-0.2384 1.328,-0.4533 1.703,-0.6406 l 0.6407,2.0466 c -0.1171,0.0862 -0.328,0.1953 -0.6407,0.3282 -0.3044,0.125 -0.6874,0.2501 -1.1562,0.3751 -0.4609,0.1133 -0.9998,0.2109 -1.6248,0.2968 -0.6174,0.0938 -1.2813,0.1405 -2.0002,0.1405 z"
             style="fill:#ffffff;fill-rule:evenodd"
             id="path197" />
        </g>
      </g>
    </g>
    <g
       id="Layer1121">
      <g
         id="Layer1122">
        <g
           id="Layer1123">
          <path
             d="m 329.9905,474.0069 h 2.5001 v 17.8279 h -2.5001 v -8.2343 h -8.7186 v 8.2343 h -2.4845 v -17.8279 h 2.4845 v 7.4373 h 8.7186 z"
             style="fill:#ffffff;fill-rule:evenodd"
             id="path202" />
        </g>
      </g>
    </g>
    <g
       id="Layer1124">
      <g
         id="Layer1125">
        <g
           id="Layer1126">
          <path
             d="m 345.6323,484.3817 c 0.2696,0.3438 0.6134,0.7971 1.0313,1.3595 0.4257,0.5547 0.8594,1.1679 1.2968,1.8437 0.4453,0.6797 0.8907,1.3867 1.3283,2.1251 0.4374,0.7305 0.8124,1.4374 1.1248,2.1248 h -2.7343 c -0.3435,-0.6562 -0.7186,-1.3164 -1.1251,-1.9842 -0.3982,-0.6642 -0.8044,-1.3008 -1.2186,-1.9063 -0.4062,-0.6134 -0.8124,-1.1874 -1.2189,-1.7187 -0.3982,-0.5312 -0.7616,-0.9924 -1.0936,-1.3906 -0.2188,0.0235 -0.4493,0.0311 -0.6874,0.0311 -0.2304,0 -0.4649,0 -0.7033,0 h -2.2342 v 6.9687 h -2.4846 v -17.5623 c 0.6954,-0.1757 1.4766,-0.2891 2.344,-0.3438 0.8631,-0.0624 1.6563,-0.0939 2.3748,-0.0939 2.5079,0 4.4221,0.4765 5.7345,1.4219 1.3125,0.9377 1.9687,2.34 1.9687,4.2032 0,1.1874 -0.3203,2.2031 -0.953,3.047 -0.6251,0.8359 -1.5432,1.4609 -2.7502,1.8748 z m -3.7811,-8.3594 c -1.0624,0 -1.8828,0.0275 -2.4531,0.0783 v 6.7031 h 1.7813 c 0.8515,0 1.6248,-0.0392 2.3125,-0.1251 0.6874,-0.0819 1.2654,-0.242 1.7342,-0.4844 0.4689,-0.2381 0.832,-0.578 1.0939,-1.0156 0.2577,-0.4374 0.3906,-1.0157 0.3906,-1.7343 0,-0.6758 -0.1329,-1.2345 -0.3906,-1.6719 -0.2619,-0.4453 -0.6094,-0.8007 -1.0471,-1.0624 -0.4374,-0.2579 -0.953,-0.4377 -1.5469,-0.5312 -0.5859,-0.1018 -1.2107,-0.1565 -1.8748,-0.1565 z"
             style="fill:#ffffff;fill-rule:evenodd"
             id="path207" />
        </g>
      </g>
    </g>
    <g
       id="Layer1127">
      <g
         id="Layer1128">
        <g
           id="Layer1129">
          <path
             d="m 352.3516,482.9131 c 0,-1.5313 0.2264,-2.8789 0.6874,-4.0471 0.4569,-1.1639 1.0703,-2.1327 1.8436,-2.906 0.7812,-0.7813 1.6914,-1.3672 2.7346,-1.7657 1.0389,-0.3946 2.1444,-0.5939 3.3123,-0.5939 1.1446,0 2.2266,0.1993 3.2502,0.5939 1.0193,0.3985 1.9139,0.9844 2.6875,1.7657 0.7693,0.7733 1.3788,1.7421 1.8281,2.906 0.4569,1.1682 0.6874,2.5158 0.6874,4.0471 0,1.5233 -0.2305,2.8672 -0.6874,4.0311 -0.4493,1.1682 -1.0588,2.1407 -1.8281,2.922 -0.7736,0.7812 -1.6682,1.3711 -2.6875,1.7657 -1.0236,0.3946 -2.1056,0.5935 -3.2502,0.5935 -1.1679,0 -2.2734,-0.1989 -3.3123,-0.5935 -1.0432,-0.3946 -1.9534,-0.9845 -2.7346,-1.7657 -0.7733,-0.7813 -1.3867,-1.7538 -1.8436,-2.922 -0.461,-1.1639 -0.6874,-2.5078 -0.6874,-4.0311 z m 2.6248,0 c 0,1.0859 0.133,2.0701 0.4062,2.9531 0.2812,0.8751 0.6719,1.6248 1.1719,2.2499 0.508,0.6173 1.129,1.0899 1.8595,1.4218 0.7265,0.3362 1.5469,0.5001 2.4531,0.5001 0.9139,0 1.7343,-0.1639 2.4531,-0.5001 0.7189,-0.3319 1.3281,-0.8045 1.8281,-1.4218 0.508,-0.6251 0.8986,-1.3748 1.1718,-2.2499 0.2812,-0.883 0.4221,-1.8672 0.4221,-2.9531 0,-1.082 -0.1409,-2.0625 -0.4221,-2.9376 -0.2732,-0.8827 -0.6638,-1.6327 -1.1718,-2.2498 -0.5,-0.6251 -1.1092,-1.1019 -1.8281,-1.4378 -0.7188,-0.3319 -1.5392,-0.5 -2.4531,-0.5 -0.9062,0 -1.7266,0.1681 -2.4531,0.5 -0.7305,0.3359 -1.3515,0.8127 -1.8595,1.4378 -0.5,0.6171 -0.8907,1.3671 -1.1719,2.2498 -0.2732,0.8751 -0.4062,1.8556 -0.4062,2.9376 z"
             style="fill:#ffffff;fill-rule:evenodd"
             id="path212" />
        </g>
      </g>
    </g>
    <g
       id="Layer1130">
      <g
         id="Layer1131">
        <g
           id="Layer1132">
          <path
             d="m 384.9951,474.0069 v 2.1719 h -5.6092 v 15.656 h -2.5002 v -15.656 h -5.6092 v -2.1719 z"
             style="fill:#ffffff;fill-rule:evenodd"
             id="path217" />
        </g>
      </g>
    </g>
    <g
       id="Layer1133">
      <g
         id="Layer1134">
        <g
           id="Layer1135">
          <path
             d="m 396.3345,484.3817 c 0.2693,0.3438 0.6131,0.7971 1.0312,1.3595 0.4258,0.5547 0.8592,1.1679 1.2969,1.8437 0.4453,0.6797 0.8906,1.3867 1.328,2.1251 0.4374,0.7305 0.8124,1.4374 1.1251,2.1248 h -2.7343 c -0.3439,-0.6562 -0.7189,-1.3164 -1.1251,-1.9842 -0.3985,-0.6642 -0.8047,-1.3008 -1.2189,-1.9063 -0.4062,-0.6134 -0.8124,-1.1874 -1.2186,-1.7187 -0.3985,-0.5312 -0.7617,-0.9924 -1.0939,-1.3906 -0.2185,0.0235 -0.449,0.0311 -0.6874,0.0311 -0.2304,0 -0.4649,0 -0.7033,0 H 390.1 v 6.9687 h -2.4843 v -17.5623 c 0.6953,-0.1757 1.4766,-0.2891 2.3437,-0.3438 0.8631,-0.0624 1.6563,-0.0939 2.3748,-0.0939 2.5078,0 4.4221,0.4765 5.7345,1.4219 1.3125,0.9377 1.9687,2.34 1.9687,4.2032 0,1.1874 -0.3203,2.2031 -0.953,3.047 -0.6251,0.8359 -1.5429,1.4609 -2.7499,1.8748 z m -3.7814,-8.3594 c -1.0625,0 -1.8828,0.0275 -2.4531,0.0783 v 6.7031 h 1.7813 c 0.8515,0 1.6251,-0.0392 2.3125,-0.1251 0.6874,-0.0819 1.2656,-0.242 1.7342,-0.4844 0.4689,-0.2381 0.8323,-0.578 1.0939,-1.0156 0.2577,-0.4374 0.3906,-1.0157 0.3906,-1.7343 0,-0.6758 -0.1329,-1.2345 -0.3906,-1.6719 -0.2616,-0.4453 -0.6095,-0.8007 -1.0468,-1.0624 -0.4377,-0.2579 -0.9533,-0.4377 -1.5469,-0.5312 -0.5859,-0.1018 -1.211,-0.1565 -1.8751,-0.1565 z"
             style="fill:#ffffff;fill-rule:evenodd"
             id="path222" />
        </g>
      </g>
    </g>
    <g
       id="Layer1136">
      <g
         id="Layer1137">
        <g
           id="Layer1138">
          <path
             d="m 403.0534,482.9131 c 0,-1.5313 0.2265,-2.8789 0.6875,-4.0471 0.4572,-1.1639 1.0703,-2.1327 1.8439,-2.906 0.7812,-0.7813 1.6914,-1.3672 2.7343,-1.7657 1.0389,-0.3946 2.1444,-0.5939 3.3126,-0.5939 1.1443,0 2.2263,0.1993 3.2499,0.5939 1.0196,0.3985 1.9139,0.9844 2.6875,1.7657 0.7696,0.7733 1.3788,1.7421 1.8281,2.906 0.4569,1.1682 0.6874,2.5158 0.6874,4.0471 0,1.5233 -0.2305,2.8672 -0.6874,4.0311 -0.4493,1.1682 -1.0585,2.1407 -1.8281,2.922 -0.7736,0.7812 -1.6679,1.3711 -2.6875,1.7657 -1.0236,0.3946 -2.1056,0.5935 -3.2499,0.5935 -1.1682,0 -2.2737,-0.1989 -3.3126,-0.5935 -1.0429,-0.3946 -1.9531,-0.9845 -2.7343,-1.7657 -0.7736,-0.7813 -1.3867,-1.7538 -1.8439,-2.922 -0.461,-1.1639 -0.6875,-2.5078 -0.6875,-4.0311 z m 2.6249,0 c 0,1.0859 0.133,2.0701 0.4065,2.9531 0.2812,0.8751 0.6718,1.6248 1.1719,2.2499 0.5076,0.6173 1.1287,1.0899 1.8592,1.4218 0.7265,0.3362 1.5469,0.5001 2.4531,0.5001 0.9142,0 1.7345,-0.1639 2.4531,-0.5001 0.7189,-0.3319 1.3283,-0.8045 1.8281,-1.4218 0.5079,-0.6251 0.8986,-1.3748 1.1721,-2.2499 0.2812,-0.883 0.4218,-1.8672 0.4218,-2.9531 0,-1.082 -0.1406,-2.0625 -0.4218,-2.9376 -0.2735,-0.8827 -0.6642,-1.6327 -1.1721,-2.2498 -0.4998,-0.6251 -1.1092,-1.1019 -1.8281,-1.4378 -0.7186,-0.3319 -1.5389,-0.5 -2.4531,-0.5 -0.9062,0 -1.7266,0.1681 -2.4531,0.5 -0.7305,0.3359 -1.3516,0.8127 -1.8592,1.4378 -0.5001,0.6171 -0.8907,1.3671 -1.1719,2.2498 -0.2735,0.8751 -0.4065,1.8556 -0.4065,2.9376 z"
             style="fill:#ffffff;fill-rule:evenodd"
             id="path227" />
        </g>
      </g>
    </g>
    <g
       id="Layer1139">
      <g
         id="Layer1140">
        <g
           id="Layer1141">
          <path
             d="m 435.994,491.8348 c -0.375,-0.6327 -0.8084,-1.3436 -1.2968,-2.1248 -0.4921,-0.7892 -1.0157,-1.6095 -1.5781,-2.4531 -0.5627,-0.8515 -1.1523,-1.7189 -1.7657,-2.594 -0.6055,-0.8748 -1.2109,-1.7186 -1.8125,-2.5311 -0.5938,-0.8203 -1.1797,-1.5939 -1.7501,-2.3125 -0.5624,-0.7188 -1.0859,-1.3476 -1.5624,-1.8907 v 13.9062 h -2.4375 v -17.8279 h 1.9689 c 0.8124,0.8671 1.6756,1.8709 2.5937,3.0155 0.9139,1.1367 1.8201,2.3085 2.7187,3.5155 0.9063,1.211 1.7538,2.3987 2.5469,3.5626 0.8008,1.1563 1.4726,2.1954 2.0155,3.1093 v -13.2029 h 2.4531 v 17.8279 z"
             style="fill:#ffffff;fill-rule:evenodd"
             id="path232" />
        </g>
      </g>
    </g>
    <g
       id="Layer1142">
      <g
         id="Layer1143">
        <g
           id="Layer1144">
          <path
             d="m 441.7741,482.9131 c 0,-1.5313 0.2265,-2.8789 0.6874,-4.0471 0.4573,-1.1639 1.0704,-2.1327 1.844,-2.906 0.7812,-0.7813 1.6911,-1.3672 2.7343,-1.7657 1.0389,-0.3946 2.1444,-0.5939 3.3125,-0.5939 1.1444,0 2.2264,0.1993 3.25,0.5939 1.0196,0.3985 1.9139,0.9844 2.6875,1.7657 0.7696,0.7733 1.3788,1.7421 1.8281,2.906 0.4569,1.1682 0.6874,2.5158 0.6874,4.0471 0,1.5233 -0.2305,2.8672 -0.6874,4.0311 -0.4493,1.1682 -1.0585,2.1407 -1.8281,2.922 -0.7736,0.7812 -1.6679,1.3711 -2.6875,1.7657 -1.0236,0.3946 -2.1056,0.5935 -3.25,0.5935 -1.1681,0 -2.2736,-0.1989 -3.3125,-0.5935 -1.0432,-0.3946 -1.9531,-0.9845 -2.7343,-1.7657 -0.7736,-0.7813 -1.3867,-1.7538 -1.844,-2.922 -0.4609,-1.1639 -0.6874,-2.5078 -0.6874,-4.0311 z m 2.6249,0 c 0,1.0859 0.133,2.0701 0.4062,2.9531 0.2815,0.8751 0.6721,1.6248 1.1722,2.2499 0.5076,0.6173 1.1287,1.0899 1.8592,1.4218 0.7265,0.3362 1.5469,0.5001 2.4531,0.5001 0.9142,0 1.7345,-0.1639 2.4531,-0.5001 0.7189,-0.3319 1.3283,-0.8045 1.8281,-1.4218 0.5079,-0.6251 0.8985,-1.3748 1.1721,-2.2499 0.2812,-0.883 0.4218,-1.8672 0.4218,-2.9531 0,-1.082 -0.1406,-2.0625 -0.4218,-2.9376 -0.2736,-0.8827 -0.6642,-1.6327 -1.1721,-2.2498 -0.4998,-0.6251 -1.1092,-1.1019 -1.8281,-1.4378 -0.7186,-0.3319 -1.5389,-0.5 -2.4531,-0.5 -0.9062,0 -1.7266,0.1681 -2.4531,0.5 -0.7305,0.3359 -1.3516,0.8127 -1.8592,1.4378 -0.5001,0.6171 -0.8907,1.3671 -1.1722,2.2498 -0.2732,0.8751 -0.4062,1.8556 -0.4062,2.9376 z"
             style="fill:#ffffff;fill-rule:evenodd"
             id="path237" />
        </g>
      </g>
    </g>
    <g
       id="Layer1145">
      <g
         id="Layer1146">
        <g
           id="Layer1147">
          <path
             d="m 472.246,479.7411 c -0.7189,2.3049 -1.4493,4.4337 -2.1875,6.3907 -0.7305,1.9491 -1.4649,3.8514 -2.2031,5.703 h -2.5001 c -0.9063,-2.6248 -1.711,-5.3906 -2.4061,-8.2967 -0.6877,-2.914 -1.3359,-6.0939 -1.9377,-9.5312 h 2.6251 c 0.2381,1.3436 0.4845,2.6836 0.7345,4.0156 0.2577,1.3359 0.5233,2.6328 0.7968,3.8905 0.2812,1.2617 0.5547,2.4687 0.828,3.625 0.2812,1.1486 0.5664,2.211 0.8595,3.1875 0.6874,-1.8008 1.4139,-3.7735 2.1875,-5.9218 0.7696,-2.1564 1.4882,-4.383 2.1563,-6.6875 h 2.156 c 0.6642,2.3045 1.3947,4.5311 2.1875,6.6875 0.7892,2.1483 1.5313,4.121 2.219,5.9218 0.2695,-0.957 0.5388,-2.0078 0.8124,-3.1561 0.2812,-1.1562 0.5508,-2.3635 0.8124,-3.6252 0.2696,-1.2577 0.5312,-2.5625 0.7812,-3.9062 0.258,-1.3436 0.508,-2.6875 0.7501,-4.0311 h 2.5469 c -0.6171,3.4373 -1.2733,6.6172 -1.9687,9.5312 -0.6993,2.9061 -1.4921,5.6719 -2.3751,8.2967 h -2.4999 c -0.75,-1.8516 -1.4845,-3.7539 -2.2031,-5.703 -0.7188,-1.957 -1.4454,-4.0858 -2.1719,-6.3907 z"
             style="fill:#ffffff;fill-rule:evenodd"
             id="path242" />
        </g>
      </g>
    </g>
    <g
       id="Layer1148">
      <g
         id="Layer1149">
        <g
           id="Layer1150">
          <path
             d="m 486.3971,491.8348 v -17.8279 h 10.8749 v 2.1404 h -8.3906 v 5.2969 h 7.4687 v 2.0783 h -7.4687 v 6.1719 h 9.0312 v 2.1404 z"
             style="fill:#ffffff;fill-rule:evenodd"
             id="path247" />
        </g>
      </g>
    </g>
    <g
       id="Layer1151">
      <g
         id="Layer1152">
        <g
           id="Layer1153">
          <path
             d="m 511.9529,483.0693 h 2.4845 v 8.3281 c -0.1992,0.0743 -0.4923,0.1523 -0.875,0.2345 -0.3867,0.0859 -0.8359,0.1678 -1.3439,0.25 -0.4998,0.0935 -1.0545,0.1638 -1.656,0.2185 -0.6055,0.0627 -1.2149,0.0939 -1.8284,0.0939 -1.2498,0 -2.3904,-0.2033 -3.4217,-0.6095 -1.0312,-0.4138 -1.9179,-1.0156 -2.6563,-1.7969 -0.7305,-0.7888 -1.2969,-1.7577 -1.7031,-2.906 -0.4062,-1.1563 -0.6094,-2.4767 -0.6094,-3.9688 0,-1.4882 0.2265,-2.8126 0.6874,-3.9688 0.4572,-1.1642 1.0704,-2.1407 1.8439,-2.922 0.7696,-0.7889 1.6719,-1.3906 2.7031,-1.7969 1.0389,-0.4138 2.1564,-0.625 3.3438,-0.625 0.8008,0 1.5157,0.0547 2.1404,0.1565 0.6251,0.1054 1.1603,0.2265 1.6095,0.3591 0.4454,0.1369 0.8125,0.2736 1.0937,0.4065 0.2814,0.1366 0.4728,0.2421 0.5782,0.3124 l -0.7968,2.0781 c -0.5,-0.3203 -1.1642,-0.5859 -1.9845,-0.7968 -0.8241,-0.2189 -1.664,-0.3283 -2.5155,-0.3283 -0.9062,0 -1.7345,0.1641 -2.4846,0.4844 -0.7497,0.3243 -1.3867,0.7969 -1.906,1.4219 -0.5235,0.6174 -0.9297,1.3672 -1.2189,2.2501 -0.2928,0.8751 -0.4374,1.8672 -0.4374,2.9688 0,1.0624 0.125,2.0313 0.3751,2.906 0.25,0.8751 0.625,1.6252 1.1247,2.2502 0.508,0.625 1.1331,1.1095 1.8752,1.453 0.75,0.3439 1.6288,0.5157 2.6407,0.5157 0.7186,0 1.3281,-0.0352 1.8281,-0.1095 0.5077,-0.0819 0.8787,-0.1601 1.1092,-0.2341 z"
             style="fill:#ffffff;fill-rule:evenodd"
             id="path252" />
        </g>
      </g>
    </g>
    <g
       id="Layer1154">
      <g
         id="Layer1155">
        <g
           id="Layer1156">
          <path
             d="m 517.6213,482.9131 c 0,-1.5313 0.2265,-2.8789 0.6874,-4.0471 0.4573,-1.1639 1.0704,-2.1327 1.844,-2.906 0.7812,-0.7813 1.6914,-1.3672 2.7343,-1.7657 1.0391,-0.3946 2.1447,-0.5939 3.3125,-0.5939 1.1444,0 2.2266,0.1993 3.2499,0.5939 1.0197,0.3985 1.9143,0.9844 2.6876,1.7657 0.7696,0.7733 1.3787,1.7421 1.828,2.906 0.4573,1.1682 0.6877,2.5158 0.6877,4.0471 0,1.5233 -0.2304,2.8672 -0.6877,4.0311 -0.4493,1.1682 -1.0584,2.1407 -1.828,2.922 -0.7733,0.7812 -1.6679,1.3711 -2.6876,1.7657 -1.0233,0.3946 -2.1055,0.5935 -3.2499,0.5935 -1.1678,0 -2.2734,-0.1989 -3.3125,-0.5935 -1.0429,-0.3946 -1.9531,-0.9845 -2.7343,-1.7657 -0.7736,-0.7813 -1.3867,-1.7538 -1.844,-2.922 -0.4609,-1.1639 -0.6874,-2.5078 -0.6874,-4.0311 z m 2.6252,0 c 0,1.0859 0.1326,2.0701 0.4062,2.9531 0.2812,0.8751 0.6718,1.6248 1.1718,2.2499 0.5077,0.6173 1.1288,1.0899 1.8593,1.4218 0.7265,0.3362 1.5468,0.5001 2.4531,0.5001 0.9142,0 1.7345,-0.1639 2.4531,-0.5001 0.7189,-0.3319 1.3283,-0.8045 1.8283,-1.4218 0.5077,-0.6251 0.8983,-1.3748 1.1719,-2.2499 0.2812,-0.883 0.4218,-1.8672 0.4218,-2.9531 0,-1.082 -0.1406,-2.0625 -0.4218,-2.9376 -0.2736,-0.8827 -0.6642,-1.6327 -1.1719,-2.2498 -0.5,-0.6251 -1.1094,-1.1019 -1.8283,-1.4378 -0.7186,-0.3319 -1.5389,-0.5 -2.4531,-0.5 -0.9063,0 -1.7266,0.1681 -2.4531,0.5 -0.7305,0.3359 -1.3516,0.8127 -1.8593,1.4378 -0.5,0.6171 -0.8906,1.3671 -1.1718,2.2498 -0.2736,0.8751 -0.4062,1.8556 -0.4062,2.9376 z"
             style="fill:#ffffff;fill-rule:evenodd"
             id="path257" />
        </g>
      </g>
    </g>
  </g>
  <g
     id="Layer1157"
     transform="translate(-16.695699,-321.26549)">
    <path
       d="m 85.0643,471.3574 c -0.2138,-0.2334 -0.4253,-0.4681 -0.6332,-0.7047 -2.1084,-2.3992 -4.1101,-4.8909 -5.9812,-7.4693 37.8899,5.135 70.0982,14.3318 93.2069,31.5311 -7.6201,5.871 -16.14,10.6388 -25.3175,14.063 -5.3979,-18.4583 -29.2816,-31.7748 -61.275,-37.4201 z"
       style="fill:#ffffff;fill-rule:evenodd"
       id="path263" />
    <path
       d="m 72.6294,454.133 c -2.2137,-3.9411 -4.0788,-8.0507 -5.5726,-12.3175 44.532,0.4949 89.224,5.8365 134.2004,15.2145 -3.268,7.3994 -7.4388,14.3144 -12.3729,20.6063 C 157.1835,465.6381 118.7511,457.7 72.6294,454.133 Z"
       style="fill:#ffffff;fill-rule:evenodd"
       id="path265" />
    <path
       d="m 72.296,385.2061 c -1.5525,2.8048 -2.9545,5.8159 -4.1697,8.9336"
       style="fill:#ffffff;fill-rule:evenodd"
       id="path267" />
    <path
       d="m 78.5393,376.0992 c 28.3029,-6.2557 54.6787,-17.1483 71.2167,-47.3686 8.4495,3.5235 16.2936,8.2027 23.3333,13.8389 -17.9515,18.9437 -49.3979,33.1768 -100.7933,42.6366 1.8805,-3.3971 3.9827,-6.4921 6.2433,-9.1069 z"
       style="fill:#ffffff;fill-rule:evenodd"
       id="path269" />
    <path
       d="m 116.8826,321.372 c -1.5232,-0.0707 -3.0556,-0.1065 -4.5962,-0.1065 -11.5837,0 -22.6946,2.0212 -32.9969,5.7288 10.9911,14.4771 18.1521,28.3702 8.9934,39.7845 -1.4197,1.7694 -3.1136,3.2371 -4.8236,4.6936 28.2857,-10.7593 39.9886,-27.2772 33.4233,-50.1004 z"
       style="fill:#ffffff;fill-rule:evenodd"
       id="path271" />
    <path
       d="m 19.2405,390.1317 c 4.4945,-14.8731 12.4833,-28.2396 23.0147,-39.151 19.1484,9.5247 32.3469,19.6261 32.4483,30.2302 -5.2408,8.2048 -8.6114,17.0332 -10.4876,26.3601 -1.6443,-6.8588 -20.5286,-12.3863 -44.9754,-17.4393 z"
       style="fill:#ffffff;fill-rule:evenodd"
       id="path273" />
    <path
       d="m 108.5295,514.8224 c 17.6798,-10.7958 10.2752,-28.307 -21.3468,-41.1904 1.3929,1.5201 2.706,3.1025 3.5991,4.9801 4.7812,10.0502 -5.2153,20.1153 -19.0149,27.4824 11.261,5.1573 23.681,8.232 36.7626,8.7279 z"
       style="fill:#ffffff;fill-rule:evenodd"
       id="path275" />
    <path
       d="m 68.1263,394.1397 c 45.1921,-4.5127 86.7299,-14.5713 122.5653,-33.2379 5.1323,6.9752 9.3497,14.6605 12.4763,22.8799 -36.0545,11.3972 -79.4745,19.7032 -138.4996,21.6412 0.8565,-3.8003 2.0283,-7.6157 3.458,-11.2832 z"
       style="fill:#ffffff;fill-rule:evenodd"
       id="path277" />
    <path
       d="m 63.1237,417.3655 c 48.3626,-0.3404 96.9434,-3.7124 145.7503,-9.8271 0.3764,3.4624 0.5698,6.9793 0.5698,10.5411 0,4.957 -0.3741,9.8271 -1.0957,14.584 L 64.1685,430.9993 c -0.8334,-4.5503 -1.1885,-9.095 -1.0448,-13.6338 z"
       style="fill:#ffffff;fill-rule:evenodd"
       id="path279" />
    <path
       d="m 74.5665,457.4073 c -4.9729,-7.9868 -8.6025,-16.7611 -10.4287,-26.5835 -1.4389,3.7293 -24.2953,3.862 -47.4421,4.6602 2.9136,15.9886 9.7701,30.6105 19.5284,42.829 21.9481,-5.664 37.2405,-12.0762 38.3424,-20.9057 z"
       style="fill:#ffffff;fill-rule:evenodd"
       id="path281" />
  </g>
</svg>
