<?xml version="1.0" encoding="UTF-8"?>
<svg id="Warstwa_2" data-name="Warstwa 2" xmlns="http://www.w3.org/2000/svg" viewBox="0 0 716.57 302.89">
  <defs>
    <style>
      .cls-1 {
        fill: #ffffff;
      }
    </style>
  </defs>
  <g id="Warstwa_1-2" data-name="Warstwa 1">
    <g>
      <g>
        <g>
          <g>
            <path class="cls-1" d="M124.37,237.26l13.39,17.18s-9.39,7.36-9.4,7.35l-13.45-17.15,9.47-7.37Z"/>
            <path class="cls-1" d="M44.85,158.18c-2.65-.89-6.2-.56-8.8,1.28-.34.25-.98.2-1.21,0-.1-.08-5.41-4.35-5.41-4.35l28.95-22.65,2.91,6.3c.15.31.05.91-.27,1.2-1.92,1.74-3.28,4.16-3.33,8.12-.02,4.17,2.69,6.96,3.66,8.26-1.74,1.36-7.68,6.02-9.43,7.4-2.29-3.31-4.12-4.82-7.08-5.56Z"/>
            <path class="cls-1" d="M129.95,271.09c1.62,1.93,4.5,2.2,6.2.9l9.44-7.37c1.68-1.32,2.29-4.07.68-6.13l-1.36-1.75c-1.64-2.1-4.42-2.13-6.11-.77l-9.43,7.35c-1.71,1.36-2.12,4.24-.81,5.98l1.4,1.8Z"/>
            <path class="cls-1" d="M102.11,208.91l15.46,19.67-9.38,7.33-13.65-17.32,7.57-9.68ZM67.61,164.58l24.63,31.55-7.57,9.7-26.5-33.88,9.44-7.37Z"/>
            <path class="cls-1" d="M119.82,229.7l-11.15,8.71c-2.59,1.99,1.33,7.22,4.03,5.15l11.17-8.69c2.58-2.01-1.49-7.17-4.05-5.18Z"/>
            <path class="cls-1" d="M63.26,157.26l-11.15,8.71c-2.6,1.99,1.33,7.22,4.03,5.15l11.17-8.69c2.58-2.01-1.49-7.17-4.05-5.18Z"/>
            <path class="cls-1" d="M27.76,153.66l-14.44-11.17c-.22-.17-.16-1.04.65-.88.13.02,9.03.84,9.03.84l-.06-6.43c-.03-.41.59-.97,1.02-.83.06.01,6.2,1.71,6.2,1.71l-3.01-13.69c-.14-.53.58-1.11,1.09-.87,0,0,12.5,6.29,12.5,6.29l-.09-6.39c-.04-.43.54-1.02,1.1-.86.08.01,6.12,1.68,6.12,1.68l1.39-9.02c.04-.74.71-.69.83-.56.02.05,7.52,16.74,7.52,16.74l-29.85,23.44Z"/>
          </g>
          <g>
            <path class="cls-1" d="M62.89,236.74l-13.39,17.18s9.39,7.36,9.4,7.35l13.45-17.15-9.47-7.37Z"/>
            <path class="cls-1" d="M142,158.18c2.65-.89,6.2-.56,8.8,1.28.34.25.98.2,1.21,0,.1-.08,5.21-4.17,5.21-4.17l-28.89-22.79-2.77,6.26c-.15.31-.05.91.27,1.2,1.92,1.74,3.28,4.16,3.33,8.12.02,4.17-2.69,6.96-3.66,8.26,1.74,1.36,7.68,6.02,9.43,7.4,2.29-3.31,4.12-4.82,7.08-5.56Z"/>
            <path class="cls-1" d="M57.31,270.57c-1.62,1.93-4.5,2.2-6.2.9l-9.44-7.37c-1.68-1.32-2.29-4.07-.68-6.13l1.36-1.75c1.64-2.1,4.42-2.13,6.11-.77l9.43,7.35c1.71,1.36,2.13,4.24.82,5.98l-1.4,1.8Z"/>
            <polygon class="cls-1" points="119.24 164.58 69.28 228.58 78.66 235.91 128.68 171.95 119.24 164.58"/>
            <path class="cls-1" d="M67.27,229.38l11.15,8.71c2.59,1.99-1.33,7.22-4.03,5.15l-11.17-8.69c-2.58-2.01,1.49-7.17,4.05-5.18Z"/>
            <path class="cls-1" d="M123.59,157.26l11.15,8.71c2.59,1.99-1.33,7.22-4.03,5.15l-11.17-8.69c-2.58-2.01,1.49-7.17,4.05-5.18Z"/>
            <path class="cls-1" d="M158.84,153.91l14.69-11.43c.22-.17.16-1.04-.65-.88-.13.02-9.03.84-9.03.84l.06-6.43c.03-.41-.59-.97-1.02-.83-.06.01-6.2,1.71-6.2,1.71l3.01-13.69c.14-.53-.58-1.11-1.09-.87,0,0-12.5,6.29-12.5,6.29l.09-6.39c.04-.43-.54-1.02-1.1-.86-.08.01-6.12,1.68-6.12,1.68l-1.39-9.02c-.04-.74-.71-.69-.83-.56-.02.05-7.59,17.21-7.59,17.21l29.67,23.23Z"/>
          </g>
        </g>
        <path class="cls-1" d="M92.96,302.89C41.61,302.89,0,261.28,0,209.94v-110.43s2.48,0,2.48,0h180.96s2.47,0,2.47,0v110.44c0,51.34-41.62,92.95-92.96,92.95ZM92.96,297.95c48.61,0,88.02-39.41,88.02-88.01v-105.5s-176.02,0-176.02,0v105.5c-.01,48.61,39.39,88.01,88,88Z"/>
        <path class="cls-1" d="M39.7,89.43S13.36,18.33,13.32,18.26c-.14-1.68.78-1.43,1.72-1.08l1.05.52c3.18,1.61,6.4,2.67,9.76,3.57,3.55.8,6.4,1.24,8.53,4.62,1.06,2.05.97,3.62.4,5.95-.16.69.52.19.83-.53,2.6-4.06,4.53-5.75,10.05-6.08,4.66-.28,8.51,1.31,10.54,6.19,1.44,4.06-.1,7.84-3.75,10.96-.63.93-.75,1.27-.58,2.41.07.8,2.05,1.75,2.79,1.81.66.06-4.99,7.27-10.5,2.23-.96-2.38-1.06-3.52-.66-6.5.21-2.03-3.54-2.99-4.43,1.12-1.22,6.98,2.22,13.04,6.64,16.12,3.95,2.01,9.23,1.74,12.35-.77,1.69-1.46,2.46-2.07,2.74-5.41-1.66-.9-2.82-1.74-3.35-3.71-1.02-3.81.63-7.11,4.44-8.13,3.81-1.02,7.39,1.9,7.39,5.85,0,1.83-1.1,3.78-2.23,5.05,1.66,4.84,4.88,4.72,8.38,4.86,4.68.26,11.8-2.82,11.96-14.26-.11-2.06-1.76-9.31-4.72-9.47-1.91.01-2.42,1.53-1.66,2.96.59.97,1.12,1.32,1.09,3.62-1.11,5.37-9.17,4.89-9.24,4.67,4.57-6.79-8.03-8.08-7.56-16.15.34-5.78,3.88-7.86,6.9-8.82,3.25-.81,6.11-.51,8.85.96.84.43,1.3.85,2.36,1.9.11.15.57.29.34-.23-.08-.21-.25-.56-.57-1.28-1.13-2.58-.65-5.95,1.03-8.34,2.02-2.7,4.94-5.57,6.33-8.66.37-.83,1.23-3.19,1.76-3.86.2-.18.42-.3.64-.35.24.05.48.19.7.41.52.67,1.39,2.98,1.81,3.93,1.4,3.09,4.23,5.84,6.25,8.54,1.68,2.39,2.16,5.75,1.03,8.34-.21.53-.59.99-.67,1.2-.15.35.15.33.28.17,1.48-1.23,1.39-1.12,2.52-1.76,2.75-1.47,5.6-1.77,8.85-.96,3.02.96,6.56,3.04,6.9,8.82.47,8.07-12.13,9.36-7.56,16.15-.07.22-8.13.7-9.24-4.67-.03-2.31.51-2.66,1.09-3.62.76-1.42.25-2.94-1.66-2.96-2.95.16-4.61,7.41-4.72,9.47.16,11.44,7.28,14.52,11.96,14.26,3.5-.14,6.72-.01,8.38-4.86-1.13-1.27-2.24-3.22-2.24-5.05,0-3.95,3.58-6.87,7.39-5.85,3.81,1.02,5.47,4.31,4.44,8.13-.53,1.97-1.69,2.8-3.35,3.71.29,3.34,1.06,3.95,2.75,5.41,3.12,2.51,8.41,2.78,12.35.77,4.43-3.08,7.86-9.13,6.64-16.12-.9-4.11-4.65-3.15-4.43-1.12.4,2.98.3,4.12-.66,6.5-5.52,5.05-11.16-2.17-10.5-2.23.74-.07,2.72-1.01,2.79-1.81.18-1.14.05-1.48-.58-2.41-3.65-3.12-5.19-6.9-3.75-10.96,2.02-4.88,5.88-6.46,10.54-6.19,5.52.33,7.45,2.02,10.05,6.08.19.3.84,1.95,1.26,1.15-.34-2.5-1.31-4.94.3-7.4,2.13-3.38,4.65-2.98,8.2-3.78,3.36-.91,6.29-1.84,9.47-3.45l1.35-.59c1.1-.76,2.16-.76,1.7,1.02-.05.07-26.38,71.17-26.38,71.17H39.7Z"/>
      </g>
      <g>
        <g>
          <path class="cls-1" d="M239.66,281.73c.44,1.42.71,2.01,1.25,2.01.65,0,.93-.65,1.96-2.89,2.34-5.01,9.58-24.28,10.62-27.06h.11l11.32,27.28c.82,2.01,1.14,2.67,1.69,2.67.71,0,.98-.65,1.58-2.56,2.67-8.17,8.38-25.48,10.89-32.34,1.14-3.1,1.74-5.28,3.05-5.77.6-.22,1.36-.27,1.91-.27.49,0,.76-.16.76-.54,0-.33-.38-.44-.98-.44-1.8,0-4.14.16-4.52.16-.49,0-2.78-.16-5.66-.16-.82,0-1.25.11-1.25.49,0,.33.38.49.93.49,2.12,0,2.61.76,2.61,1.63,0,.76-.16,1.91-.54,3.16-1.91,6.37-6.26,20.74-7.24,24.39h-.16l-11.32-27.38c-.71-1.74-.98-2.56-1.58-2.56-.44,0-.76.44-1.36,1.96l-10.56,28.36h-.16c-.98-3.05-6.04-19.55-6.97-23.14-.65-2.45-1.2-4.3-1.2-5.01,0-.6.11-.98.6-1.2.38-.22.93-.22,1.36-.22.54,0,.98-.05.98-.49,0-.33-.38-.49-1.14-.49-3.16,0-5.55.16-6.04.16s-3.48-.16-6.32-.16c-.76,0-1.2.11-1.2.49,0,.44.33.49.87.49.49,0,1.58.11,2.18.49.76.54,1.36,1.85,2.01,3.87l11.54,34.57Z"/>
          <path class="cls-1" d="M333.82,257.62c0-8.28,0-9.8.11-11.54.11-1.91.54-2.83,2.01-3.1.65-.11.98-.16,1.52-.16.44,0,.76-.11.76-.49s-.38-.49-1.14-.49c-1.85,0-5.28.16-6.59.16s-4.74-.16-7.62-.16c-.82,0-1.2.11-1.2.49s.33.49.93.49c.76,0,1.69.05,2.12.16,1.8.38,2.23,1.25,2.34,3.1.11,1.74.11,3.27.11,11.54v9.58c0,5.01,0,9.31-.27,11.6-.22,1.58-.49,2.78-1.58,2.99-.49.11-1.14.22-1.96.22-.65,0-.87.16-.87.44,0,.38.38.54,1.09.54,2.18,0,5.61-.16,6.86-.16,1.36,0,4.79.16,7.84.16.6,0,1.03-.16,1.03-.54,0-.27-.27-.44-.71-.44-.71,0-1.91-.11-2.67-.22-1.36-.22-1.85-1.42-1.96-2.94-.16-2.34-.16-6.64-.16-11.65v-4.95h.27l.6.82c1.14,1.58,11.87,14.16,14.26,16.28,2.34,2.07,3.81,3.27,6.75,3.54,1.14.11,2.12.11,3.76.11h4.74c1.03,0,1.31-.16,1.31-.54,0-.33-.33-.44-.71-.44-.65,0-1.74-.16-3.38-.82-2.94-1.14-5.39-3.59-7.79-5.88-2.12-2.01-12.79-13.5-14.75-16.06,1.85-1.96,10.07-10.13,11.76-11.76,2.34-2.29,4.19-3.43,5.88-4.08,1.03-.38,2.4-.6,3.16-.6.54,0,.82-.11.82-.49s-.38-.49-.93-.49c-1.69,0-4.68.16-6.37.16-1.47,0-4.46-.16-5.61-.16-.6,0-.87.11-.87.49,0,.33.22.44.71.54.54.11.76.49.76,1.09,0,.93-1.2,2.29-2.72,4.08-1.58,1.85-9.53,9.96-11.38,11.98h-.27v-2.4Z"/>
          <path class="cls-1" d="M380.16,267.2c0,5.01,0,9.31-.27,11.6-.22,1.58-.49,2.78-1.58,2.99-.49.11-1.14.22-1.96.22-.65,0-.87.16-.87.44,0,.38.38.54,1.09.54,2.18,0,5.61-.16,6.64-.16.82,0,4.85.16,8,.16.71,0,1.09-.16,1.09-.54,0-.27-.22-.44-.65-.44-.65,0-1.85-.11-2.67-.22-1.63-.22-1.96-1.42-2.12-2.99-.27-2.29-.27-6.59-.27-11.65v-.76c0-.33.16-.44.44-.44l4.74.11c.38,0,.71.05.98.38.71.82,3.21,4.52,5.39,7.51,3.05,4.19,5.12,6.75,7.46,8,1.42.76,2.78,1.03,5.83,1.03h5.17c.65,0,1.03-.11,1.03-.54,0-.27-.22-.44-.65-.44s-.93-.05-1.52-.16c-.82-.16-3.05-.54-6.1-3.7-3.21-3.38-6.97-8.22-11.81-14.32,5.5-4.46,7.19-8.17,7.19-12.2,0-3.65-2.18-6.42-3.7-7.46-2.94-2.01-6.59-2.34-10.02-2.34-1.69,0-5.83.16-7.68.16-1.14,0-4.57-.16-7.46-.16-.82,0-1.2.11-1.2.49s.33.49.93.49c.76,0,1.69.05,2.12.16,1.8.38,2.23,1.25,2.34,3.1.11,1.74.11,3.27.11,11.54v9.58ZM386.58,245.37c0-.44.11-.65.49-.76.54-.16,1.52-.22,2.89-.22,3.21,0,8.33,2.23,8.33,9.96,0,4.46-1.58,6.97-3.21,8.17-.98.71-1.69.93-3.87.93-1.36,0-2.99-.16-4.14-.54-.38-.16-.49-.38-.49-.98v-16.55Z"/>
          <path class="cls-1" d="M446.76,268.78c.27,0,.44.11.54.38l4.36,11.54c.27.65-.11,1.14-.49,1.25-.54.05-.76.16-.76.49,0,.38.65.38,1.63.44,4.36.11,8.33.11,10.29.11s2.5-.11,2.5-.54c0-.38-.27-.44-.71-.44-.65,0-1.47-.05-2.29-.22-1.14-.27-2.72-1.03-4.79-5.93-3.48-8.28-12.2-30.49-13.5-33.48-.54-1.25-.87-1.74-1.36-1.74-.54,0-.87.6-1.52,2.18l-13.67,34.19c-1.09,2.72-2.12,4.57-4.63,4.9-.44.05-1.2.11-1.69.11-.44,0-.65.11-.65.44,0,.44.33.54,1.03.54,2.83,0,5.83-.16,6.42-.16,1.69,0,4.03.16,5.77.16.6,0,.93-.11.93-.54,0-.33-.16-.44-.82-.44h-.82c-1.69,0-2.18-.71-2.18-1.69,0-.65.27-1.96.82-3.32l2.94-7.79c.11-.33.22-.44.49-.44h12.14ZM435.71,266.05c-.22,0-.27-.16-.22-.38l5.01-13.39c.05-.22.16-.49.33-.49s.22.27.27.49l4.9,13.45c.05.16,0,.33-.27.33h-10.02Z"/>
          <path class="cls-1" d="M486.19,257.62c0-8.28,0-9.8.11-11.54.11-1.91.54-2.83,2.01-3.1.65-.11.98-.16,1.52-.16.44,0,.76-.11.76-.49s-.38-.49-1.14-.49c-1.85,0-5.28.16-6.59.16s-4.74-.16-7.62-.16c-.82,0-1.2.11-1.2.49s.33.49.93.49c.76,0,1.69.05,2.12.16,1.8.38,2.23,1.25,2.34,3.1.11,1.74.11,3.27.11,11.54v9.58c0,5.01,0,9.31-.27,11.6-.22,1.58-.49,2.78-1.58,2.99-.49.11-1.14.22-1.96.22-.65,0-.87.16-.87.44,0,.38.38.54,1.09.54,2.18,0,5.61-.16,6.86-.16,1.36,0,4.79.16,7.84.16.6,0,1.03-.16,1.03-.54,0-.27-.27-.44-.71-.44-.71,0-1.91-.11-2.67-.22-1.36-.22-1.85-1.42-1.96-2.94-.16-2.34-.16-6.64-.16-11.65v-4.95h.27l.6.82c1.14,1.58,11.87,14.16,14.26,16.28,2.34,2.07,3.81,3.27,6.75,3.54,1.14.11,2.12.11,3.76.11h4.74c1.03,0,1.31-.16,1.31-.54,0-.33-.33-.44-.71-.44-.65,0-1.74-.16-3.38-.82-2.94-1.14-5.39-3.59-7.79-5.88-2.12-2.01-12.79-13.5-14.75-16.06,1.85-1.96,10.07-10.13,11.76-11.76,2.34-2.29,4.19-3.43,5.88-4.08,1.03-.38,2.4-.6,3.16-.6.54,0,.82-.11.82-.49s-.38-.49-.93-.49c-1.69,0-4.68.16-6.37.16-1.47,0-4.46-.16-5.61-.16-.6,0-.87.11-.87.49,0,.33.22.44.71.54.54.11.76.49.76,1.09,0,.93-1.2,2.29-2.72,4.08-1.58,1.85-9.53,9.96-11.38,11.98h-.27v-2.4Z"/>
          <path class="cls-1" d="M546.36,283.75c13.83,0,22.54-9.85,22.54-22.32s-8.44-20.36-22-20.36c-16.33,0-22.49,12.03-22.49,21.34s6.32,21.34,21.94,21.34ZM548.64,281.03c-10.45,0-16.71-8.98-16.71-20.31,0-13.56,7.13-17.04,13.39-17.04,8.93,0,15.95,7.57,15.95,19.76,0,15.73-8.82,17.59-12.63,17.59Z"/>
          <path class="cls-1" d="M596.51,281.73c.44,1.42.71,2.01,1.25,2.01.65,0,.93-.65,1.96-2.89,2.34-5.01,9.58-24.28,10.62-27.06h.11l11.32,27.28c.82,2.01,1.14,2.67,1.69,2.67.71,0,.98-.65,1.58-2.56,2.67-8.17,8.38-25.48,10.89-32.34,1.14-3.1,1.74-5.28,3.05-5.77.6-.22,1.36-.27,1.91-.27.49,0,.76-.16.76-.54,0-.33-.38-.44-.98-.44-1.8,0-4.14.16-4.52.16-.49,0-2.78-.16-5.66-.16-.82,0-1.25.11-1.25.49,0,.33.38.49.93.49,2.12,0,2.61.76,2.61,1.63,0,.76-.16,1.91-.54,3.16-1.91,6.37-6.26,20.74-7.24,24.39h-.16l-11.32-27.38c-.71-1.74-.98-2.56-1.58-2.56-.44,0-.76.44-1.36,1.96l-10.56,28.36h-.16c-.98-3.05-6.04-19.55-6.97-23.14-.65-2.45-1.2-4.3-1.2-5.01,0-.6.11-.98.6-1.2.38-.22.93-.22,1.36-.22.54,0,.98-.05.98-.49,0-.33-.38-.49-1.14-.49-3.16,0-5.55.16-6.04.16s-3.48-.16-6.32-.16c-.76,0-1.2.11-1.2.49,0,.44.33.49.87.49.49,0,1.58.11,2.18.49.76.54,1.36,1.85,2.01,3.87l11.54,34.57Z"/>
          <path class="cls-1" d="M657.9,267.2c0,5.28,0,9.58-.27,11.87-.16,1.58-.49,2.5-1.58,2.72-.49.11-1.14.22-1.96.22-.65,0-.87.16-.87.44,0,.38.38.54,1.09.54,2.18,0,5.61-.16,6.86-.16,1.47,0,4.9.16,8.49.16.6,0,1.03-.16,1.03-.54,0-.27-.27-.44-.87-.44-.82,0-2.01-.11-2.78-.22-1.63-.22-2.01-1.2-2.18-2.67-.22-2.34-.22-6.64-.22-11.92v-9.58c0-8.28,0-9.8.11-11.54.11-1.91.54-2.83,2.01-3.1.65-.11,1.09-.16,1.63-.16s.87-.11.87-.54c0-.33-.44-.44-1.14-.44-2.07,0-5.28.16-6.64.16-1.58,0-5.01-.16-7.08-.16-.87,0-1.31.11-1.31.44,0,.44.33.54.87.54.65,0,1.36.05,1.96.22,1.2.27,1.74,1.2,1.85,3.05.11,1.74.11,3.27.11,11.54v9.58Z"/>
          <path class="cls-1" d="M691.5,267.2c0,5.01,0,9.31-.27,11.6-.22,1.58-.49,2.78-1.58,2.99-.49.11-1.14.22-1.96.22-.65,0-.87.16-.87.44,0,.38.38.54,1.09.54,2.18,0,5.61-.16,6.86-.16,3.21,0,6.86.33,15.08.33,2.07,0,2.56,0,2.94-1.42.27-1.09.71-4.79.71-6.04,0-.54,0-.98-.44-.98-.38,0-.49.22-.6.82-.38,2.23-1.03,3.38-2.45,4.03-1.42.65-3.7.65-5.12.65-5.55,0-6.42-.82-6.53-4.57-.05-1.58,0-6.59,0-8.44v-4.3c0-.33.05-.54.33-.54,1.31,0,6.7.05,7.73.16,2.01.22,2.78,1.03,3.05,2.12.16.71.16,1.42.22,1.96,0,.27.11.49.49.49.49,0,.49-.6.49-1.03,0-.38.11-2.56.22-3.65.16-2.78.44-3.65.44-3.97s-.16-.44-.38-.44c-.27,0-.49.27-.87.71-.49.54-1.31.71-2.61.82-1.25.11-7.51.11-8.71.11-.33,0-.38-.22-.38-.6v-13.77c0-.38.11-.54.38-.54,1.09,0,6.81.11,7.73.22,2.72.33,3.27.98,3.65,1.96.27.65.33,1.58.33,1.96,0,.49.11.76.49.76s.49-.33.54-.6c.11-.65.22-3.05.27-3.59.16-2.5.44-3.16.44-3.54,0-.27-.05-.49-.33-.49s-.6.16-.87.22c-.44.11-1.31.22-2.34.33-1.03.05-11.87.05-13.61.05-1.52,0-4.95-.16-7.84-.16-.82,0-1.2.11-1.2.49s.33.49.93.49c.76,0,1.69.05,2.12.16,1.8.38,2.23,1.25,2.34,3.1.11,1.74.11,3.27.11,11.54v9.58Z"/>
        </g>
        <g>
          <path class="cls-1" d="M230.92,201.82c0,10.67.05,16.12-4.08,20.31-1.09,1.09-1.91,1.69-2.61,2.07-.93.49-1.2.71-1.2.98s.22.44.44.44c.27,0,.71-.11,1.09-.33,1.14-.54,2.01-.98,2.72-1.42,5.23-3.21,8.11-6.97,9.26-10.29,1.09-3.05,1.31-6.53,1.31-9.64,0-2.72-.16-5.34-.16-7.68v-10.07c0-8.28,0-9.8.11-11.54.11-1.91.54-2.83,2.01-3.1.65-.11.98-.16,1.58-.16.65,0,.98-.11.98-.49s-.38-.49-1.14-.49c-2.12,0-5.55.16-6.86.16-1.42,0-4.85-.16-7.73-.16-.82,0-1.2.11-1.2.49s.33.49.93.49c.76,0,1.69.05,2.12.16,1.8.38,2.23,1.25,2.34,3.1.11,1.74.11,3.27.11,11.54v15.63Z"/>
          <path class="cls-1" d="M273.6,197.35c.27,0,.44.11.54.38l4.36,11.54c.27.65-.11,1.14-.49,1.25-.54.05-.76.16-.76.49,0,.38.65.38,1.63.44,4.36.11,8.33.11,10.29.11s2.5-.11,2.5-.54c0-.38-.27-.44-.71-.44-.65,0-1.47-.05-2.29-.22-1.14-.27-2.72-1.03-4.79-5.93-3.48-8.28-12.2-30.49-13.5-33.48-.54-1.25-.87-1.74-1.36-1.74-.54,0-.87.6-1.52,2.18l-13.67,34.19c-1.09,2.72-2.12,4.57-4.63,4.9-.44.05-1.2.11-1.69.11-.44,0-.65.11-.65.44,0,.44.33.54,1.03.54,2.83,0,5.83-.16,6.42-.16,1.69,0,4.03.16,5.77.16.6,0,.93-.11.93-.54,0-.33-.16-.44-.82-.44h-.82c-1.69,0-2.18-.71-2.18-1.69,0-.65.27-1.96.82-3.32l2.94-7.79c.11-.33.22-.44.49-.44h12.14ZM262.55,194.63c-.22,0-.27-.16-.22-.38l5.01-13.39c.05-.22.16-.49.33-.49s.22.27.27.49l4.9,13.45c.05.16,0,.33-.27.33h-10.02Z"/>
          <path class="cls-1" d="M336.17,201.93c0-2.72,0-4.9.05-6.53.05-1.91.6-2.83,2.07-3.1.65-.11,1.03-.16,1.47-.16.38,0,.71-.11.71-.44,0-.44-.38-.54-1.09-.54-1.8,0-4.68.16-6.37.16s-5.06-.16-7.89-.16c-.76,0-1.14.11-1.14.54,0,.33.33.44.82.44.76,0,1.69.05,2.12.16,1.8.38,2.29,1.25,2.34,3.1.05,1.63.05,3.7.05,6.42v5.12c0,.93-.22,1.63-1.03,2.01-1.31.6-3.21.6-4.63.6-11.49,0-18.95-8.77-18.95-20.47,0-6.7,1.96-10.78,5.01-13.34,3.81-3.16,7.79-3.38,10.78-3.38,6.15,0,10.51,2.5,12.14,4.25,1.42,1.52,1.69,3.27,1.85,4.52.05.44.16.71.54.71.44,0,.6-.27.6-1.14,0-6.81.38-8.33.38-8.93,0-.38-.11-.6-.76-.65-1.25-.05-3.16-.38-4.3-.6-1.09-.22-5.88-.87-9.64-.87-4.57,0-9.42.38-14.65,3.54-4.95,2.99-9.47,9.09-9.47,17.8,0,15.03,11.81,21.34,25.15,21.34,4.25,0,9.58-.6,13.12-2.45.65-.38.71-.49.71-1.96v-5.99Z"/>
          <path class="cls-1" d="M357.1,195.77c0,5.28,0,9.58-.27,11.87-.16,1.58-.49,2.5-1.58,2.72-.49.11-1.14.22-1.96.22-.65,0-.87.16-.87.44,0,.38.38.54,1.09.54,2.18,0,5.61-.16,6.86-.16,1.47,0,4.9.16,8.49.16.6,0,1.03-.16,1.03-.54,0-.27-.27-.44-.87-.44-.82,0-2.01-.11-2.78-.22-1.63-.22-2.01-1.2-2.18-2.67-.22-2.34-.22-6.64-.22-11.92v-9.58c0-8.28,0-9.8.11-11.54.11-1.91.54-2.83,2.01-3.1.65-.11,1.09-.16,1.63-.16s.87-.11.87-.54c0-.33-.44-.44-1.14-.44-2.07,0-5.28.16-6.64.16-1.58,0-5.01-.16-7.08-.16-.87,0-1.31.11-1.31.44,0,.44.33.54.87.54.65,0,1.36.05,1.96.22,1.2.27,1.74,1.2,1.85,3.05.11,1.74.11,3.27.11,11.54v9.58Z"/>
          <path class="cls-1" d="M387.43,195.77c0,5.01,0,9.31-.27,11.6-.22,1.58-.49,2.78-1.58,2.99-.49.11-1.14.22-1.96.22-.65,0-.87.16-.87.44,0,.38.38.54,1.09.54,2.18,0,5.61-.16,6.86-.16,3.21,0,6.86.33,15.08.33,2.07,0,2.56,0,2.94-1.42.27-1.09.71-4.79.71-6.04,0-.54,0-.98-.44-.98-.38,0-.49.22-.6.82-.38,2.23-1.03,3.38-2.45,4.03-1.42.65-3.7.65-5.12.65-5.55,0-6.42-.82-6.53-4.57-.05-1.58,0-6.59,0-8.44v-4.3c0-.33.05-.54.33-.54,1.31,0,6.7.05,7.73.16,2.01.22,2.78,1.03,3.05,2.12.16.71.16,1.42.22,1.96,0,.27.11.49.49.49.49,0,.49-.6.49-1.03,0-.38.11-2.56.22-3.65.16-2.78.44-3.65.44-3.97s-.16-.44-.38-.44c-.27,0-.49.27-.87.71-.49.54-1.31.71-2.61.82-1.25.11-7.51.11-8.71.11-.33,0-.38-.22-.38-.6v-13.77c0-.38.11-.54.38-.54,1.09,0,6.81.11,7.73.22,2.72.33,3.27.98,3.65,1.96.27.65.33,1.58.33,1.96,0,.49.11.76.49.76s.49-.33.54-.6c.11-.65.22-3.05.27-3.59.16-2.5.44-3.16.44-3.54,0-.27-.05-.49-.33-.49s-.6.16-.87.22c-.44.11-1.31.22-2.34.33-1.03.05-11.87.05-13.61.05-1.52,0-4.95-.16-7.84-.16-.82,0-1.2.11-1.2.49s.33.49.93.49c.76,0,1.69.05,2.12.16,1.8.38,2.23,1.25,2.34,3.1.11,1.74.11,3.27.11,11.54v9.58Z"/>
          <path class="cls-1" d="M434.37,186.19c0-8.28,0-9.8.11-11.54.11-1.91.54-2.83,2.01-3.1.65-.11,1.52-.16,2.12-.16.65,0,.98-.11.98-.49s-.38-.49-1.14-.49c-2.12,0-6.1.16-7.4.16-1.47,0-4.9-.16-7.46-.16-.82,0-1.2.11-1.2.49s.33.49.93.49c.71,0,1.36.05,1.8.16,1.8.38,2.23,1.25,2.34,3.1.11,1.74.11,3.27.11,11.54v9.58c0,5.01,0,9.31-.27,11.6-.22,1.58-.49,2.78-1.58,2.99-.49.11-1.14.22-1.96.22-.65,0-.87.16-.87.44,0,.38.38.54,1.09.54,2.18,0,5.61-.16,6.86-.16,4.41,0,8,.33,15.84.33,2.83,0,3.1-.27,3.43-1.47.44-1.58.82-5.66.82-6.26,0-.65-.05-.93-.44-.93-.44,0-.54.33-.6.82-.11,1.03-.76,2.56-1.42,3.27-1.36,1.47-3.48,1.52-6.37,1.52-4.25,0-5.66-.38-6.59-1.2-1.14-.98-1.14-4.74-1.14-11.71v-9.58Z"/>
          <path class="cls-1" d="M473.04,186.19c0-8.28,0-9.8.11-11.54.11-1.91.54-2.83,2.01-3.1.65-.11,1.52-.16,2.12-.16.65,0,.98-.11.98-.49s-.38-.49-1.14-.49c-2.12,0-6.1.16-7.4.16-1.47,0-4.9-.16-7.46-.16-.82,0-1.2.11-1.2.49s.33.49.93.49c.71,0,1.36.05,1.8.16,1.8.38,2.23,1.25,2.34,3.1.11,1.74.11,3.27.11,11.54v9.58c0,5.01,0,9.31-.27,11.6-.22,1.58-.49,2.78-1.58,2.99-.49.11-1.14.22-1.96.22-.65,0-.87.16-.87.44,0,.38.38.54,1.09.54,2.18,0,5.61-.16,6.86-.16,4.41,0,8,.33,15.84.33,2.83,0,3.1-.27,3.43-1.47.44-1.58.82-5.66.82-6.26,0-.65-.05-.93-.44-.93-.44,0-.54.33-.6.82-.11,1.03-.76,2.56-1.42,3.27-1.36,1.47-3.48,1.52-6.37,1.52-4.25,0-5.66-.38-6.59-1.2-1.14-.98-1.14-4.74-1.14-11.71v-9.58Z"/>
          <path class="cls-1" d="M520.91,212.33c13.83,0,22.54-9.85,22.54-22.32s-8.44-20.36-22-20.36c-16.33,0-22.49,12.03-22.49,21.34s6.32,21.34,21.94,21.34ZM523.2,209.6c-10.45,0-16.71-8.98-16.71-20.31,0-13.56,7.13-17.04,13.39-17.04,8.93,0,15.95,7.57,15.95,19.76,0,15.73-8.82,17.59-12.63,17.59Z"/>
          <path class="cls-1" d="M584.84,158.48c-.27-.49-.38-.65-.76-.65-.16,0-.54.11-1.09.49-.87.54-6.59,4.79-8.77,6.86-.27.27-.49.49-.49.71s.22.33.33.33.49-.22.93-.44c2.01-1.09,6.32-2.83,9.31-3.21,1.09-.11,1.58,0,1.85,0s.6-.16.27-.82c-.65-1.47-1.14-2.5-1.58-3.27ZM563.56,181.29h.16c.98,1.03,7.02,7.84,12.96,13.72,5.66,5.61,12.63,12.74,16.06,16.01.6.6,1.25,1.2,1.85,1.2.49,0,.71-.49.71-1.69l.6-34.35c.05-3.05.49-4.19,2.01-4.63.65-.16,1.09-.16,1.63-.16.65,0,.98-.16.98-.49,0-.44-.54-.49-1.25-.49-2.67,0-4.74.16-5.34.16-1.14,0-3.76-.16-6.59-.16-.82,0-1.42.05-1.42.49,0,.33.22.49.87.49.76,0,2.07,0,2.89.33,1.31.54,1.8,1.58,1.85,4.9l.54,24.45h-.27c-.93-.87-8.28-8.71-11.98-12.41-7.95-7.89-16.22-16.77-16.88-17.48-.93-.98-1.42-1.69-2.01-1.69-.54,0-.71.76-.71,1.85l-.49,32.23c-.05,4.74-.27,6.32-1.69,6.75-.76.22-1.74.27-2.45.27-.54,0-.87.11-.87.44,0,.49.49.54,1.2.54,2.83,0,5.39-.16,5.88-.16,1.03,0,3.21.16,6.75.16.76,0,1.25-.11,1.25-.54,0-.33-.33-.44-.93-.44-.87,0-1.91-.05-2.83-.38-1.09-.38-1.8-1.8-1.91-6.04l-.6-22.87Z"/>
          <path class="cls-1" d="M623.35,212.33c2.89,0,5.93-.49,8.66-2.23,3.92-2.56,5.12-6.32,5.12-9.47,0-5.17-2.4-8.82-8.93-13.88l-1.52-1.14c-4.52-3.43-5.77-5.34-5.77-7.84,0-3.27,2.45-5.61,6.48-5.61,3.54,0,5.12,1.63,5.93,2.67,1.14,1.42,1.42,3.1,1.42,3.59,0,.65.16.98.54.98.44,0,.6-.44.6-1.63,0-4.25.22-5.83.22-6.53,0-.38-.27-.54-.76-.65-1.42-.38-3.7-.93-7.24-.93-7.57,0-12.58,4.3-12.58,10.29,0,4.41,2.07,8.22,8.06,12.9l2.5,1.96c4.52,3.48,5.34,6.04,5.34,8.71,0,2.89-2.4,6.21-7.3,6.21-3.38,0-6.59-1.47-7.79-5.5-.27-.93-.49-2.07-.49-2.78,0-.44-.05-.93-.54-.93-.44,0-.6.6-.65,1.42-.05.87-.27,4.14-.27,7.13,0,1.2.16,1.47,1.03,1.85,2.34,1.03,4.79,1.42,7.95,1.42Z"/>
          <path class="cls-1" d="M662.44,186.19c0-8.28,0-9.8.11-11.54.11-1.91.54-2.83,2.01-3.1.65-.11.98-.16,1.52-.16.44,0,.76-.11.76-.49s-.38-.49-1.14-.49c-1.85,0-5.28.16-6.59.16s-4.74-.16-7.62-.16c-.82,0-1.2.11-1.2.49s.33.49.93.49c.76,0,1.69.05,2.12.16,1.8.38,2.23,1.25,2.34,3.1.11,1.74.11,3.27.11,11.54v9.58c0,5.01,0,9.31-.27,11.6-.22,1.58-.49,2.78-1.58,2.99-.49.11-1.14.22-1.96.22-.65,0-.87.16-.87.44,0,.38.38.54,1.09.54,2.18,0,5.61-.16,6.86-.16,1.36,0,4.79.16,7.84.16.6,0,1.03-.16,1.03-.54,0-.27-.27-.44-.71-.44-.71,0-1.91-.11-2.67-.22-1.36-.22-1.85-1.42-1.96-2.94-.16-2.34-.16-6.64-.16-11.65v-4.95h.27l.6.82c1.14,1.58,11.87,14.16,14.26,16.28,2.34,2.07,3.81,3.27,6.75,3.54,1.14.11,2.12.11,3.76.11h4.74c1.03,0,1.31-.16,1.31-.54,0-.33-.33-.44-.71-.44-.65,0-1.74-.16-3.38-.82-2.94-1.14-5.39-3.59-7.79-5.88-2.12-2.01-12.79-13.5-14.75-16.06,1.85-1.96,10.07-10.13,11.76-11.76,2.34-2.29,4.19-3.43,5.88-4.08,1.03-.38,2.4-.6,3.16-.6.54,0,.82-.11.82-.49s-.38-.49-.93-.49c-1.69,0-4.68.16-6.37.16-1.47,0-4.46-.16-5.61-.16-.6,0-.87.11-.87.49,0,.33.22.44.71.54.54.11.76.49.76,1.09,0,.93-1.2,2.29-2.72,4.08-1.58,1.85-9.53,9.96-11.38,11.98h-.27v-2.4Z"/>
          <path class="cls-1" d="M703.34,195.77c0,5.28,0,9.58-.27,11.87-.16,1.58-.49,2.5-1.58,2.72-.49.11-1.14.22-1.96.22-.65,0-.87.16-.87.44,0,.38.38.54,1.09.54,2.18,0,5.61-.16,6.86-.16,1.47,0,4.9.16,8.49.16.6,0,1.03-.16,1.03-.54,0-.27-.27-.44-.87-.44-.82,0-2.01-.11-2.78-.22-1.63-.22-2.01-1.2-2.18-2.67-.22-2.34-.22-6.64-.22-11.92v-9.58c0-8.28,0-9.8.11-11.54.11-1.91.54-2.83,2.01-3.1.65-.11,1.09-.16,1.63-.16s.87-.11.87-.54c0-.33-.44-.44-1.14-.44-2.07,0-5.28.16-6.64.16-1.58,0-5.01-.16-7.08-.16-.87,0-1.31.11-1.31.44,0,.44.33.54.87.54.65,0,1.36.05,1.96.22,1.2.27,1.74,1.2,1.85,3.05.11,1.74.11,3.27.11,11.54v9.58Z"/>
        </g>
        <g>
          <path class="cls-1" d="M229.93,122.72c0,7.89,2.07,11.92,4.85,14.43,3.97,3.59,9.2,3.76,12.09,3.76,3.54,0,7.46-.6,11.32-3.92,4.57-3.92,5.17-10.34,5.17-16.39v-5.83c0-8.28,0-9.8.11-11.54.11-1.91.54-2.83,2.01-3.1.65-.11.98-.16,1.58-.16.65,0,.98-.11.98-.49s-.38-.49-1.14-.49c-2.12,0-5.55.16-6.21.16-.05,0-3.48-.16-6.26-.16-.76,0-1.14.11-1.14.49s.33.49.93.49,1.52.05,1.96.16c1.8.38,2.23,1.25,2.34,3.1.11,1.74.11,3.27.11,11.54v6.81c0,5.61-.16,10.51-3.16,13.5-2.18,2.18-5.12,2.94-7.51,2.94-1.85,0-4.36-.22-6.81-2.23-2.67-2.18-4.25-5.5-4.25-13.39v-7.62c0-8.28,0-9.8.11-11.54.11-1.91.54-2.83,2.01-3.1.65-.11.98-.16,1.58-.16.54,0,.87-.11.87-.49s-.38-.49-1.2-.49c-1.96,0-5.39.16-6.7.16-1.63,0-5.06-.16-7.95-.16-.82,0-1.2.11-1.2.49s.33.49.93.49c.76,0,1.69.05,2.12.16,1.8.38,2.23,1.25,2.34,3.1.11,1.74.11,3.27.11,11.54v7.95Z"/>
          <path class="cls-1" d="M286.83,109.87h.16c.98,1.03,7.02,7.84,12.96,13.72,5.66,5.61,12.63,12.74,16.06,16.01.6.6,1.25,1.2,1.85,1.2.49,0,.71-.49.71-1.69l.6-34.35c.05-3.05.49-4.19,2.01-4.63.65-.16,1.09-.16,1.63-.16.65,0,.98-.16.98-.49,0-.44-.54-.49-1.25-.49-2.67,0-4.74.16-5.34.16-1.14,0-3.76-.16-6.59-.16-.82,0-1.42.05-1.42.49,0,.33.22.49.87.49.76,0,2.07,0,2.89.33,1.31.54,1.8,1.58,1.85,4.9l.54,24.45h-.27c-.93-.87-8.28-8.71-11.98-12.41-7.95-7.89-16.22-16.77-16.88-17.48-.93-.98-1.42-1.69-2.01-1.69-.54,0-.71.76-.71,1.85l-.49,32.23c-.05,4.74-.27,6.32-1.69,6.75-.76.22-1.74.27-2.45.27-.54,0-.87.11-.87.44,0,.49.49.54,1.2.54,2.83,0,5.39-.16,5.88-.16,1.03,0,3.21.16,6.75.16.76,0,1.25-.11,1.25-.54,0-.33-.33-.44-.93-.44-.87,0-1.91-.05-2.83-.38-1.09-.38-1.8-1.8-1.91-6.04l-.6-22.87Z"/>
          <path class="cls-1" d="M341.67,124.35c0,5.28,0,9.58-.27,11.87-.16,1.58-.49,2.5-1.58,2.72-.49.11-1.14.22-1.96.22-.65,0-.87.16-.87.44,0,.38.38.54,1.09.54,2.18,0,5.61-.16,6.86-.16,1.47,0,4.9.16,8.49.16.6,0,1.03-.16,1.03-.54,0-.27-.27-.44-.87-.44-.82,0-2.01-.11-2.78-.22-1.63-.22-2.01-1.2-2.18-2.67-.22-2.34-.22-6.64-.22-11.92v-9.58c0-8.28,0-9.8.11-11.54.11-1.91.54-2.83,2.01-3.1.65-.11,1.09-.16,1.63-.16s.87-.11.87-.54c0-.33-.44-.44-1.14-.44-2.07,0-5.28.16-6.64.16-1.58,0-5.01-.16-7.08-.16-.87,0-1.31.11-1.31.44,0,.44.33.54.87.54.65,0,1.36.05,1.96.22,1.2.27,1.74,1.2,1.85,3.05.11,1.74.11,3.27.11,11.54v9.58Z"/>
          <path class="cls-1" d="M378.7,138.89c.44,1.42.71,2.01,1.25,2.01.65,0,.93-.65,1.96-2.89,2.34-5.01,9.58-24.28,10.62-27.06h.11l11.32,27.28c.82,2.01,1.14,2.67,1.69,2.67.71,0,.98-.65,1.58-2.56,2.67-8.17,8.38-25.48,10.89-32.34,1.14-3.1,1.74-5.28,3.05-5.77.6-.22,1.36-.27,1.91-.27.49,0,.76-.16.76-.54,0-.33-.38-.44-.98-.44-1.8,0-4.14.16-4.52.16-.49,0-2.78-.16-5.66-.16-.82,0-1.25.11-1.25.49,0,.33.38.49.93.49,2.12,0,2.61.76,2.61,1.63,0,.76-.16,1.91-.54,3.16-1.91,6.37-6.26,20.74-7.24,24.39h-.16l-11.32-27.39c-.71-1.74-.98-2.56-1.58-2.56-.44,0-.76.44-1.36,1.96l-10.56,28.37h-.16c-.98-3.05-6.04-19.55-6.97-23.14-.65-2.45-1.2-4.3-1.2-5.01,0-.6.11-.98.6-1.2.38-.22.93-.22,1.36-.22.54,0,.98-.05.98-.49,0-.33-.38-.49-1.14-.49-3.16,0-5.55.16-6.04.16s-3.48-.16-6.32-.16c-.76,0-1.2.11-1.2.49,0,.44.33.49.87.49.49,0,1.58.11,2.18.49.76.54,1.36,1.85,2.01,3.87l11.54,34.57Z"/>
          <path class="cls-1" d="M436.82,124.35c0,5.01,0,9.31-.27,11.6-.22,1.58-.49,2.78-1.58,2.99-.49.11-1.14.22-1.96.22-.65,0-.87.16-.87.44,0,.38.38.54,1.09.54,2.18,0,5.61-.16,6.86-.16,3.21,0,6.86.33,15.08.33,2.07,0,2.56,0,2.94-1.42.27-1.09.71-4.79.71-6.04,0-.54,0-.98-.44-.98-.38,0-.49.22-.6.82-.38,2.23-1.03,3.38-2.45,4.03s-3.7.65-5.12.65c-5.55,0-6.42-.82-6.53-4.57-.05-1.58,0-6.59,0-8.44v-4.3c0-.33.05-.54.33-.54,1.31,0,6.7.05,7.73.16,2.01.22,2.78,1.03,3.05,2.12.16.71.16,1.42.22,1.96,0,.27.11.49.49.49.49,0,.49-.6.49-1.03,0-.38.11-2.56.22-3.65.16-2.78.44-3.65.44-3.97s-.16-.44-.38-.44c-.27,0-.49.27-.87.71-.49.54-1.31.71-2.61.82-1.25.11-7.51.11-8.71.11-.33,0-.38-.22-.38-.6v-13.77c0-.38.11-.54.38-.54,1.09,0,6.81.11,7.73.22,2.72.33,3.27.98,3.65,1.96.27.65.33,1.58.33,1.96,0,.49.11.76.49.76s.49-.33.54-.6c.11-.65.22-3.05.27-3.59.16-2.5.44-3.16.44-3.54,0-.27-.05-.49-.33-.49s-.6.16-.87.22c-.44.11-1.31.22-2.34.33-1.03.05-11.87.05-13.61.05-1.52,0-4.95-.16-7.84-.16-.82,0-1.2.11-1.2.49s.33.49.93.49c.76,0,1.69.05,2.12.16,1.8.38,2.23,1.25,2.34,3.1.11,1.74.11,3.27.11,11.54v9.58Z"/>
          <path class="cls-1" d="M476.96,124.35c0,5.01,0,9.31-.27,11.6-.22,1.58-.49,2.78-1.58,2.99-.49.11-1.14.22-1.96.22-.65,0-.87.16-.87.44,0,.38.38.54,1.09.54,2.18,0,5.61-.16,6.64-.16.82,0,4.85.16,8,.16.71,0,1.09-.16,1.09-.54,0-.27-.22-.44-.65-.44-.65,0-1.85-.11-2.67-.22-1.63-.22-1.96-1.42-2.12-2.99-.27-2.29-.27-6.59-.27-11.65v-.76c0-.33.16-.44.44-.44l4.74.11c.38,0,.71.05.98.38.71.82,3.21,4.52,5.39,7.51,3.05,4.19,5.12,6.75,7.46,8,1.42.76,2.78,1.03,5.83,1.03h5.17c.65,0,1.03-.11,1.03-.54,0-.27-.22-.44-.65-.44s-.93-.05-1.52-.16c-.82-.16-3.05-.54-6.1-3.7-3.21-3.38-6.97-8.22-11.81-14.32,5.5-4.46,7.19-8.17,7.19-12.2,0-3.65-2.18-6.42-3.7-7.46-2.94-2.01-6.59-2.34-10.02-2.34-1.69,0-5.83.16-7.68.16-1.14,0-4.57-.16-7.46-.16-.82,0-1.2.11-1.2.49s.33.49.93.49c.76,0,1.69.05,2.12.16,1.8.38,2.23,1.25,2.34,3.1.11,1.74.11,3.27.11,11.54v9.58ZM483.38,102.52c0-.44.11-.65.49-.76.54-.16,1.52-.22,2.89-.22,3.21,0,8.33,2.23,8.33,9.96,0,4.46-1.58,6.97-3.21,8.17-.98.71-1.69.93-3.87.93-1.36,0-2.99-.16-4.14-.54-.38-.16-.49-.38-.49-.98v-16.55Z"/>
          <path class="cls-1" d="M528.75,140.9c2.89,0,5.93-.49,8.66-2.23,3.92-2.56,5.12-6.32,5.12-9.47,0-5.17-2.4-8.82-8.93-13.88l-1.52-1.14c-4.52-3.43-5.77-5.34-5.77-7.84,0-3.27,2.45-5.61,6.48-5.61,3.54,0,5.12,1.63,5.93,2.67,1.14,1.42,1.42,3.1,1.42,3.59,0,.65.16.98.54.98.44,0,.6-.44.6-1.63,0-4.25.22-5.83.22-6.53,0-.38-.27-.54-.76-.65-1.42-.38-3.7-.93-7.24-.93-7.57,0-12.58,4.3-12.58,10.29,0,4.41,2.07,8.22,8.06,12.9l2.5,1.96c4.52,3.48,5.34,6.04,5.34,8.71,0,2.89-2.4,6.21-7.3,6.21-3.38,0-6.59-1.47-7.79-5.5-.27-.93-.49-2.07-.49-2.78,0-.44-.05-.93-.54-.93-.44,0-.6.6-.65,1.42-.05.87-.27,4.14-.27,7.13,0,1.2.16,1.47,1.03,1.85,2.34,1.03,4.79,1.42,7.95,1.42Z"/>
          <path class="cls-1" d="M567.3,130.5c0,.87,0,3.16-.16,5.44-.11,1.58-.6,2.78-1.69,2.99-.49.11-1.14.22-1.91.22-.6,0-.87.16-.87.44,0,.44.44.54,1.2.54,2.01,0,5.44-.16,6.81-.16,1.47,0,4.9.16,8.33.16.71,0,1.14-.16,1.14-.54,0-.27-.27-.44-.87-.44-.76,0-1.96-.11-2.72-.22-1.63-.22-2.12-1.42-2.23-2.99-.16-2.29-.16-4.57-.16-5.44v-4.46c0-1.8,0-3.48.82-5.44.98-2.34,8.6-15.14,10.4-17.31,1.2-1.47,1.8-2.12,2.94-2.67.82-.44,1.85-.65,2.4-.65.6,0,1.03-.16,1.03-.54,0-.33-.38-.44-.98-.44-1.03,0-4.63.16-5.83.16-1.58,0-3.32-.16-5.12-.16-.65,0-.93.11-.93.49,0,.33.49.44.98.54.93.22,1.14.82,1.14,1.36,0,.71-.22,1.63-.76,2.83-.76,1.69-7.62,13.67-8.17,14.97-.87-1.52-8.49-14.65-9.26-16.28-.38-.76-.65-1.42-.65-1.85s.27-.87.76-.98c.82-.22,1.2-.27,1.2-.6s-.27-.49-.82-.49c-2.45,0-4.68.16-5.83.16-1.8,0-5.88-.16-6.86-.16-.65,0-1.03.16-1.03.49,0,.38.38.49.82.49.65,0,1.58.33,2.29.71,1.03.6,2.4,1.96,3.76,3.97,1.91,2.83,9.2,14.81,9.58,15.68.71,1.58,1.25,2.78,1.25,5.72v4.46Z"/>
          <path class="cls-1" d="M610.65,124.35c0,5.01,0,9.31-.27,11.6-.16,1.58-.49,2.78-1.58,2.99-.49.11-1.14.22-1.96.22-.65,0-.87.16-.87.44,0,.38.38.54,1.09.54,2.18,0,5.61-.16,6.86-.16,1.52,0,4.95.16,8.55.16.6,0,1.03-.16,1.03-.54,0-.27-.27-.44-.87-.44-.82,0-2.01-.11-2.78-.22-1.63-.22-1.96-1.42-2.12-2.94-.27-2.34-.27-6.64-.27-11.65v-22.32l6.86.16c4.85.11,6.32,1.63,6.42,3.05l.05.6c.05.82.16,1.09.6,1.09.33,0,.44-.33.49-.87,0-1.42.16-5.17.16-6.32,0-.82-.05-1.14-.44-1.14-.44,0-1.74.54-5.23.54h-21.56c-1.8,0-3.87-.11-5.44-.27-1.36-.11-1.91-.65-2.34-.65-.33,0-.49.33-.65,1.03-.11.44-1.14,5.39-1.14,6.26,0,.6.11.87.49.87.33,0,.49-.22.6-.65.11-.44.38-1.09.93-1.91.82-1.2,2.12-1.47,5.28-1.58l8.11-.22v22.32Z"/>
          <path class="cls-1" d="M647.8,124.35c0,5.01,0,9.31-.27,11.6-.22,1.58-.49,2.78-1.58,2.99-.49.11-1.14.22-1.96.22-.65,0-.87.16-.87.44,0,.38.38.54,1.09.54,2.18,0,5.61-.16,6.86-.16,3.21,0,6.86.33,15.08.33,2.07,0,2.56,0,2.94-1.42.27-1.09.71-4.79.71-6.04,0-.54,0-.98-.44-.98-.38,0-.49.22-.6.82-.38,2.23-1.03,3.38-2.45,4.03-1.42.65-3.7.65-5.12.65-5.55,0-6.42-.82-6.53-4.57-.05-1.58,0-6.59,0-8.44v-4.3c0-.33.05-.54.33-.54,1.31,0,6.7.05,7.73.16,2.01.22,2.78,1.03,3.05,2.12.16.71.16,1.42.22,1.96,0,.27.11.49.49.49.49,0,.49-.6.49-1.03,0-.38.11-2.56.22-3.65.16-2.78.44-3.65.44-3.97s-.16-.44-.38-.44c-.27,0-.49.27-.87.71-.49.54-1.31.71-2.61.82-1.25.11-7.51.11-8.71.11-.33,0-.38-.22-.38-.6v-13.77c0-.38.11-.54.38-.54,1.09,0,6.81.11,7.73.22,2.72.33,3.27.98,3.65,1.96.27.65.33,1.58.33,1.96,0,.49.11.76.49.76s.49-.33.54-.6c.11-.65.22-3.05.27-3.59.16-2.5.44-3.16.44-3.54,0-.27-.05-.49-.33-.49s-.6.16-.87.22c-.44.11-1.31.22-2.34.33-1.03.05-11.87.05-13.61.05-1.52,0-4.95-.16-7.84-.16-.82,0-1.2.11-1.2.49s.33.49.93.49c.76,0,1.69.05,2.12.16,1.8.38,2.23,1.25,2.34,3.1.11,1.74.11,3.27.11,11.54v9.58Z"/>
          <path class="cls-1" d="M695.17,124.35c0,5.01,0,9.31-.27,11.6-.16,1.58-.49,2.78-1.58,2.99-.49.11-1.14.22-1.96.22-.65,0-.87.16-.87.44,0,.38.38.54,1.09.54,2.18,0,5.61-.16,6.86-.16,1.52,0,4.95.16,8.55.16.6,0,1.03-.16,1.03-.54,0-.27-.27-.44-.87-.44-.82,0-2.01-.11-2.78-.22-1.63-.22-1.96-1.42-2.12-2.94-.27-2.34-.27-6.64-.27-11.65v-22.32l6.86.16c4.85.11,6.32,1.63,6.42,3.05l.05.6c.05.82.16,1.09.6,1.09.33,0,.44-.33.49-.87,0-1.42.16-5.17.16-6.32,0-.82-.05-1.14-.44-1.14-.44,0-1.74.54-5.23.54h-21.56c-1.8,0-3.87-.11-5.44-.27-1.36-.11-1.91-.65-2.34-.65-.33,0-.49.33-.65,1.03-.11.44-1.14,5.39-1.14,6.26,0,.6.11.87.49.87.33,0,.49-.22.6-.65s.38-1.09.93-1.91c.82-1.2,2.12-1.47,5.28-1.58l8.11-.22v22.32Z"/>
        </g>
      </g>
    </g>
  </g>
</svg>